<svg width="329" height="367" viewBox="0 0 329 367" fill="none" xmlns="http://www.w3.org/2000/svg">
<g opacity="0.2" filter="url(#filter0_f_140_5864)">
<circle cx="164.5" cy="202.43" r="92.0139" fill="black"/>
</g>
<mask id="mask0_140_5864" style="mask-type:alpha" maskUnits="userSpaceOnUse" x="32" y="0" width="265" height="265">
<circle cx="164.5" cy="132.5" r="132.5" fill="url(#paint0_radial_140_5864)"/>
</mask>
<g mask="url(#mask0_140_5864)">
<g filter="url(#filter1_di_140_5864)">
<circle cx="164.5" cy="132.5" r="132.5" fill="url(#paint1_radial_140_5864)"/>
</g>
<path d="M74.7275 184.413C76.0602 184.413 77.1406 183.333 77.1406 182C77.1406 180.667 76.0602 179.587 74.7275 179.587C73.3948 179.587 72.3145 180.667 72.3145 182C72.3145 183.333 73.3948 184.413 74.7275 184.413Z" fill="black" fill-opacity="0.3"/>
<path d="M229.164 81.4545C230.497 81.4545 231.577 80.3742 231.577 79.0415C231.577 77.7088 230.497 76.6284 229.164 76.6284C227.831 76.6284 226.751 77.7088 226.751 79.0415C226.751 80.3742 227.831 81.4545 229.164 81.4545Z" fill="black" fill-opacity="0.3"/>
<path d="M87.5976 4.23677C88.9303 4.23677 90.0107 3.15641 90.0107 1.82371C90.0107 0.491011 88.9303 -0.589355 87.5976 -0.589355C86.2649 -0.589355 85.1846 0.491011 85.1846 1.82371C85.1846 3.15641 86.2649 4.23677 87.5976 4.23677Z" fill="black" fill-opacity="0.3"/>
<path d="M36.1191 29.976C37.4518 29.976 38.5322 28.8957 38.5322 27.563C38.5322 26.2303 37.4518 25.1499 36.1191 25.1499C34.7864 25.1499 33.7061 26.2303 33.7061 27.563C33.7061 28.8957 34.7864 29.976 36.1191 29.976Z" fill="black" fill-opacity="0.3"/>
<path d="M36.1191 158.673C37.4518 158.673 38.5322 157.592 38.5322 156.26C38.5322 154.927 37.4518 153.847 36.1191 153.847C34.7864 153.847 33.7061 154.927 33.7061 156.26C33.7061 157.592 34.7864 158.673 36.1191 158.673Z" fill="black" fill-opacity="0.3"/>
<path d="M74.7275 145.804C76.0602 145.804 77.1406 144.723 77.1406 143.391C77.1406 142.058 76.0602 140.978 74.7275 140.978C73.3948 140.978 72.3145 142.058 72.3145 143.391C72.3145 144.723 73.3948 145.804 74.7275 145.804Z" fill="black" fill-opacity="0.3"/>
<path d="M61.0568 115.373C61.056 115.373 61.0551 115.374 61.0543 115.374C60.3666 115.617 59.8253 116.158 59.5824 116.846C59.1376 118.103 59.7955 119.481 61.0519 119.926C61.0527 119.926 61.0535 119.927 61.0543 119.927C62.3107 120.372 63.6893 119.715 64.135 118.459C64.32 117.937 64.32 117.368 64.135 116.846C63.6918 115.59 62.3132 114.93 61.0568 115.373Z" fill="black" fill-opacity="0.3"/>
<path d="M216.295 4.23677C217.628 4.23677 218.708 3.15641 218.708 1.82371C218.708 0.491011 217.628 -0.589355 216.295 -0.589355C214.962 -0.589355 213.882 0.491011 213.882 1.82371C213.882 3.15641 214.962 4.23677 216.295 4.23677Z" fill="black" fill-opacity="0.3"/>
<path d="M216.295 55.7158C217.628 55.7158 218.708 54.6354 218.708 53.3027C218.708 51.97 217.628 50.8896 216.295 50.8896C214.962 50.8896 213.882 51.97 213.882 53.3027C213.882 54.6354 214.962 55.7158 216.295 55.7158Z" fill="black" fill-opacity="0.3"/>
<path d="M177.686 29.976C179.018 29.976 180.099 28.8957 180.099 27.563C180.099 26.2303 179.018 25.1499 177.686 25.1499C176.353 25.1499 175.272 26.2303 175.272 27.563C175.272 28.8957 176.353 29.976 177.686 29.976Z" fill="black" fill-opacity="0.3"/>
<path d="M177.686 55.7158C179.018 55.7158 180.099 54.6354 180.099 53.3027C180.099 51.97 179.018 50.8896 177.686 50.8896C176.353 50.8896 175.272 51.97 175.272 53.3027C175.272 54.6354 176.353 55.7158 177.686 55.7158Z" fill="black" fill-opacity="0.3"/>
<path d="M164.815 55.7158C166.148 55.7158 167.228 54.6354 167.228 53.3027C167.228 51.97 166.148 50.8896 164.815 50.8896C163.483 50.8896 162.402 51.97 162.402 53.3027C162.402 54.6354 163.483 55.7158 164.815 55.7158Z" fill="black" fill-opacity="0.3"/>
<path d="M126.207 4.23677C127.54 4.23677 128.62 3.15641 128.62 1.82371C128.62 0.491011 127.54 -0.589355 126.207 -0.589355C124.874 -0.589355 123.794 0.491011 123.794 1.82371C123.794 3.15641 124.874 4.23677 126.207 4.23677Z" fill="black" fill-opacity="0.3"/>
<path d="M280.644 158.673C281.976 158.673 283.057 157.592 283.057 156.26C283.057 154.927 281.976 153.847 280.644 153.847C279.311 153.847 278.23 154.927 278.23 156.26C278.23 157.592 279.311 158.673 280.644 158.673Z" fill="black" fill-opacity="0.3"/>
<path d="M280.644 29.976C281.976 29.976 283.057 28.8957 283.057 27.563C283.057 26.2303 281.976 25.1499 280.644 25.1499C279.311 25.1499 278.23 26.2303 278.23 27.563C278.23 28.8957 279.311 29.976 280.644 29.976Z" fill="black" fill-opacity="0.3"/>
<path d="M190.556 55.7158C191.888 55.7158 192.969 54.6354 192.969 53.3027C192.969 51.97 191.888 50.8896 190.556 50.8896C189.223 50.8896 188.143 51.97 188.143 53.3027C188.143 54.6354 189.223 55.7158 190.556 55.7158Z" fill="black" fill-opacity="0.3"/>
<path d="M267.772 42.8461C269.105 42.8461 270.186 41.7658 270.186 40.4331C270.186 39.1004 269.105 38.02 267.772 38.02C266.44 38.02 265.359 39.1004 265.359 40.4331C265.359 41.7658 266.44 42.8461 267.772 42.8461Z" fill="black" fill-opacity="0.3"/>
<path d="M203.425 4.23677C204.757 4.23677 205.838 3.15641 205.838 1.82371C205.838 0.491011 204.757 -0.589355 203.425 -0.589355C202.092 -0.589355 201.012 0.491011 201.012 1.82371C201.012 3.15641 202.092 4.23677 203.425 4.23677Z" fill="black" fill-opacity="0.3"/>
<path d="M151.946 68.5854C153.279 68.5854 154.359 67.505 154.359 66.1723C154.359 64.8396 153.279 63.7593 151.946 63.7593C150.614 63.7593 149.533 64.8396 149.533 66.1723C149.533 67.505 150.614 68.5854 151.946 68.5854Z" fill="black" fill-opacity="0.3"/>
<path d="M293.513 145.804C294.845 145.804 295.926 144.723 295.926 143.391C295.926 142.058 294.845 140.978 293.513 140.978C292.18 140.978 291.1 142.058 291.1 143.391C291.1 144.723 292.18 145.804 293.513 145.804Z" fill="black" fill-opacity="0.3"/>
<path d="M216.295 68.5854C217.628 68.5854 218.708 67.505 218.708 66.1723C218.708 64.8396 217.628 63.7593 216.295 63.7593C214.962 63.7593 213.882 64.8396 213.882 66.1723C213.882 67.505 214.962 68.5854 216.295 68.5854Z" fill="black" fill-opacity="0.3"/>
<path d="M139.076 17.1069C140.409 17.1069 141.489 16.0265 141.489 14.6938C141.489 13.3611 140.409 12.2808 139.076 12.2808C137.743 12.2808 136.663 13.3611 136.663 14.6938C136.663 16.0265 137.743 17.1069 139.076 17.1069Z" fill="black" fill-opacity="0.3"/>
<path d="M267.772 68.5854C269.105 68.5854 270.186 67.505 270.186 66.1723C270.186 64.8396 269.105 63.7593 267.772 63.7593C266.44 63.7593 265.359 64.8396 265.359 66.1723C265.359 67.505 266.44 68.5854 267.772 68.5854Z" fill="black" fill-opacity="0.3"/>
<path d="M254.903 17.1069C256.236 17.1069 257.316 16.0265 257.316 14.6938C257.316 13.3611 256.236 12.2808 254.903 12.2808C253.571 12.2808 252.49 13.3611 252.49 14.6938C252.49 16.0265 253.571 17.1069 254.903 17.1069Z" fill="black" fill-opacity="0.3"/>
<path d="M267.772 55.7158C269.105 55.7158 270.186 54.6354 270.186 53.3027C270.186 51.97 269.105 50.8896 267.772 50.8896C266.44 50.8896 265.359 51.97 265.359 53.3027C265.359 54.6354 266.44 55.7158 267.772 55.7158Z" fill="black" fill-opacity="0.3"/>
<path d="M267.772 145.804C269.105 145.804 270.186 144.723 270.186 143.391C270.186 142.058 269.105 140.978 267.772 140.978C266.44 140.978 265.359 142.058 265.359 143.391C265.359 144.723 266.44 145.804 267.772 145.804Z" fill="black" fill-opacity="0.3"/>
<path d="M100.468 145.804C101.8 145.804 102.881 144.723 102.881 143.391C102.881 142.058 101.8 140.978 100.468 140.978C99.1351 140.978 98.0547 142.058 98.0547 143.391C98.0547 144.723 99.1351 145.804 100.468 145.804Z" fill="black" fill-opacity="0.3"/>
<path d="M113.337 107.194C114.67 107.194 115.75 106.113 115.75 104.781C115.75 103.448 114.67 102.368 113.337 102.368C112.004 102.368 110.924 103.448 110.924 104.781C110.924 106.113 112.004 107.194 113.337 107.194Z" fill="black" fill-opacity="0.3"/>
<path d="M229.164 94.3247C230.497 94.3247 231.577 93.2443 231.577 91.9116C231.577 90.5789 230.497 89.4985 229.164 89.4985C227.831 89.4985 226.751 90.5789 226.751 91.9116C226.751 93.2443 227.831 94.3247 229.164 94.3247Z" fill="black" fill-opacity="0.3"/>
<path d="M100.468 132.934C101.8 132.934 102.881 131.853 102.881 130.52C102.881 129.188 101.8 128.107 100.468 128.107C99.1351 128.107 98.0547 129.188 98.0547 130.52C98.0547 131.853 99.1351 132.934 100.468 132.934Z" fill="black" fill-opacity="0.3"/>
<path d="M100.468 55.7158C101.8 55.7158 102.881 54.6354 102.881 53.3027C102.881 51.97 101.8 50.8896 100.468 50.8896C99.1351 50.8896 98.0547 51.97 98.0547 53.3027C98.0547 54.6354 99.1351 55.7158 100.468 55.7158Z" fill="black" fill-opacity="0.3"/>
<path d="M74.7275 29.976C76.0602 29.976 77.1406 28.8957 77.1406 27.563C77.1406 26.2303 76.0602 25.1499 74.7275 25.1499C73.3948 25.1499 72.3145 26.2303 72.3145 27.563C72.3145 28.8957 73.3948 29.976 74.7275 29.976Z" fill="black" fill-opacity="0.3"/>
<path d="M74.7275 17.1069C76.0602 17.1069 77.1406 16.0265 77.1406 14.6938C77.1406 13.3611 76.0602 12.2808 74.7275 12.2808C73.3948 12.2808 72.3145 13.3611 72.3145 14.6938C72.3145 16.0265 73.3948 17.1069 74.7275 17.1069Z" fill="black" fill-opacity="0.3"/>
<path d="M100.468 68.5854C101.8 68.5854 102.881 67.505 102.881 66.1723C102.881 64.8396 101.8 63.7593 100.468 63.7593C99.1351 63.7593 98.0547 64.8396 98.0547 66.1723C98.0547 67.505 99.1351 68.5854 100.468 68.5854Z" fill="black" fill-opacity="0.3"/>
<path d="M100.468 81.4545C101.8 81.4545 102.881 80.3742 102.881 79.0415C102.881 77.7088 101.8 76.6284 100.468 76.6284C99.1351 76.6284 98.0547 77.7088 98.0547 79.0415C98.0547 80.3742 99.1351 81.4545 100.468 81.4545Z" fill="black" fill-opacity="0.3"/>
<path d="M48.9883 145.804C50.321 145.804 51.4013 144.723 51.4013 143.391C51.4013 142.058 50.321 140.978 48.9883 140.978C47.6556 140.978 46.5752 142.058 46.5752 143.391C46.5752 144.723 47.6556 145.804 48.9883 145.804Z" fill="black" fill-opacity="0.3"/>
<path d="M190.556 158.673C191.888 158.673 192.969 157.592 192.969 156.26C192.969 154.927 191.888 153.847 190.556 153.847C189.223 153.847 188.143 154.927 188.143 156.26C188.143 157.592 189.223 158.673 190.556 158.673Z" fill="black" fill-opacity="0.3"/>
<path d="M74.7275 248.761C76.0602 248.761 77.1406 247.68 77.1406 246.348C77.1406 245.015 76.0602 243.935 74.7275 243.935C73.3948 243.935 72.3145 245.015 72.3145 246.348C72.3145 247.68 73.3948 248.761 74.7275 248.761Z" fill="black" fill-opacity="0.3"/>
<path d="M242.033 107.194C243.366 107.194 244.446 106.113 244.446 104.781C244.446 103.448 243.366 102.368 242.033 102.368C240.7 102.368 239.62 103.448 239.62 104.781C239.62 106.113 240.7 107.194 242.033 107.194Z" fill="black" fill-opacity="0.3"/>
<path d="M74.7275 261.63C76.0602 261.63 77.1406 260.55 77.1406 259.217C77.1406 257.885 76.0602 256.804 74.7275 256.804C73.3948 256.804 72.3145 257.885 72.3145 259.217C72.3145 260.55 73.3948 261.63 74.7275 261.63Z" fill="black" fill-opacity="0.3"/>
<path d="M254.903 235.891C256.236 235.891 257.316 234.811 257.316 233.478C257.316 232.145 256.236 231.065 254.903 231.065C253.571 231.065 252.49 232.145 252.49 233.478C252.49 234.811 253.571 235.891 254.903 235.891Z" fill="black" fill-opacity="0.3"/>
<path d="M151.145 115.371C150.455 115.614 149.912 116.157 149.67 116.847C149.227 118.104 149.888 119.482 151.145 119.923C152.402 120.366 153.78 119.705 154.222 118.448C154.405 117.93 154.405 117.365 154.222 116.847C153.78 115.589 152.402 114.929 151.145 115.371Z" fill="black" fill-opacity="0.3"/>
<path d="M177.686 171.543C179.018 171.543 180.099 170.463 180.099 169.13C180.099 167.797 179.018 166.717 177.686 166.717C176.353 166.717 175.272 167.797 175.272 169.13C175.272 170.463 176.353 171.543 177.686 171.543Z" fill="black" fill-opacity="0.3"/>
<path d="M151.946 132.934C153.279 132.934 154.359 131.853 154.359 130.52C154.359 129.188 153.279 128.107 151.946 128.107C150.614 128.107 149.533 129.188 149.533 130.52C149.533 131.853 150.614 132.934 151.946 132.934Z" fill="black" fill-opacity="0.3"/>
<path d="M164.815 223.021C166.148 223.021 167.228 221.941 167.228 220.608C167.228 219.275 166.148 218.195 164.815 218.195C163.483 218.195 162.402 219.275 162.402 220.608C162.402 221.941 163.483 223.021 164.815 223.021Z" fill="black" fill-opacity="0.3"/>
<path d="M190.556 132.934C191.888 132.934 192.969 131.853 192.969 130.52C192.969 129.188 191.888 128.107 190.556 128.107C189.223 128.107 188.143 129.188 188.143 130.52C188.143 131.853 189.223 132.934 190.556 132.934Z" fill="black" fill-opacity="0.3"/>
<path d="M229.164 132.934C230.497 132.934 231.577 131.853 231.577 130.52C231.577 129.188 230.497 128.107 229.164 128.107C227.831 128.107 226.751 129.188 226.751 130.52C226.751 131.853 227.831 132.934 229.164 132.934Z" fill="black" fill-opacity="0.3"/>
<path d="M113.337 223.021C114.67 223.021 115.75 221.941 115.75 220.608C115.75 219.275 114.67 218.195 113.337 218.195C112.004 218.195 110.924 219.275 110.924 220.608C110.924 221.941 112.004 223.021 113.337 223.021Z" fill="black" fill-opacity="0.3"/>
<path d="M151.946 197.282C153.279 197.282 154.359 196.202 154.359 194.869C154.359 193.536 153.279 192.456 151.946 192.456C150.614 192.456 149.533 193.536 149.533 194.869C149.533 196.202 150.614 197.282 151.946 197.282Z" fill="black" fill-opacity="0.3"/>
<path d="M139.076 184.413C140.409 184.413 141.489 183.333 141.489 182C141.489 180.667 140.409 179.587 139.076 179.587C137.743 179.587 136.663 180.667 136.663 182C136.663 183.333 137.743 184.413 139.076 184.413Z" fill="black" fill-opacity="0.3"/>
<path d="M151.946 145.804C153.279 145.804 154.359 144.723 154.359 143.391C154.359 142.058 153.279 140.978 151.946 140.978C150.614 140.978 149.533 142.058 149.533 143.391C149.533 144.723 150.614 145.804 151.946 145.804Z" fill="black" fill-opacity="0.3"/>
<path d="M164.815 145.804C166.148 145.804 167.228 144.723 167.228 143.391C167.228 142.058 166.148 140.978 164.815 140.978C163.483 140.978 162.402 142.058 162.402 143.391C162.402 144.723 163.483 145.804 164.815 145.804Z" fill="black" fill-opacity="0.3"/>
<path d="M242.033 132.934C243.366 132.934 244.446 131.853 244.446 130.52C244.446 129.188 243.366 128.107 242.033 128.107C240.7 128.107 239.62 129.188 239.62 130.52C239.62 131.853 240.7 132.934 242.033 132.934Z" fill="black" fill-opacity="0.3"/>
<path d="M254.903 132.934C256.236 132.934 257.316 131.853 257.316 130.52C257.316 129.188 256.236 128.107 254.903 128.107C253.571 128.107 252.49 129.188 252.49 130.52C252.49 131.853 253.571 132.934 254.903 132.934Z" fill="black" fill-opacity="0.3"/>
<path d="M267.772 132.934C269.105 132.934 270.186 131.853 270.186 130.52C270.186 129.188 269.105 128.107 267.772 128.107C266.44 128.107 265.359 129.188 265.359 130.52C265.359 131.853 266.44 132.934 267.772 132.934Z" fill="black" fill-opacity="0.3"/>
<path d="M87.5976 42.8461C88.9303 42.8461 90.0107 41.7658 90.0107 40.4331C90.0107 39.1004 88.9303 38.02 87.5976 38.02C86.2649 38.02 85.1846 39.1004 85.1846 40.4331C85.1846 41.7658 86.2649 42.8461 87.5976 42.8461Z" fill="black" fill-opacity="0.3"/>
<path d="M74.7275 4.23677C76.0602 4.23677 77.1406 3.15641 77.1406 1.82371C77.1406 0.491011 76.0602 -0.589355 74.7275 -0.589355C73.3948 -0.589355 72.3145 0.491011 72.3145 1.82371C72.3145 3.15641 73.3948 4.23677 74.7275 4.23677Z" fill="black" fill-opacity="0.3"/>
<path d="M100.468 158.673C101.8 158.673 102.881 157.592 102.881 156.26C102.881 154.927 101.8 153.847 100.468 153.847C99.1351 153.847 98.0547 154.927 98.0547 156.26C98.0547 157.592 99.1351 158.673 100.468 158.673Z" fill="black" fill-opacity="0.3"/>
<path d="M61.0543 197.146C62.3115 197.588 63.6894 196.927 64.1318 195.67C64.5742 194.413 63.9129 193.035 62.6565 192.593C62.1385 192.41 61.5731 192.41 61.0551 192.593C59.7979 193.035 59.1375 194.413 59.5799 195.67C59.8212 196.361 60.3641 196.903 61.0543 197.146Z" fill="black" fill-opacity="0.3"/>
<path d="M87.5976 171.543C88.9303 171.543 90.0107 170.463 90.0107 169.13C90.0107 167.797 88.9303 166.717 87.5976 166.717C86.2649 166.717 85.1846 167.797 85.1846 169.13C85.1846 170.463 86.2649 171.543 87.5976 171.543Z" fill="black" fill-opacity="0.3"/>
<path d="M48.9883 210.152C50.321 210.152 51.4013 209.071 51.4013 207.739C51.4013 206.406 50.321 205.326 48.9883 205.326C47.6556 205.326 46.5752 206.406 46.5752 207.739C46.5752 209.071 47.6556 210.152 48.9883 210.152Z" fill="black" fill-opacity="0.3"/>
<path d="M36.1191 223.021C37.4518 223.021 38.5322 221.941 38.5322 220.608C38.5322 219.275 37.4518 218.195 36.1191 218.195C34.7864 218.195 33.7061 219.275 33.7061 220.608C33.7061 221.941 34.7864 223.021 36.1191 223.021Z" fill="black" fill-opacity="0.3"/>
<path d="M293.513 210.152C294.845 210.152 295.926 209.071 295.926 207.739C295.926 206.406 294.845 205.326 293.513 205.326C292.18 205.326 291.1 206.406 291.1 207.739C291.1 209.071 292.18 210.152 293.513 210.152Z" fill="black" fill-opacity="0.3"/>
<path d="M203.425 223.021C204.757 223.021 205.838 221.941 205.838 220.608C205.838 219.275 204.757 218.195 203.425 218.195C202.092 218.195 201.012 219.275 201.012 220.608C201.012 221.941 202.092 223.021 203.425 223.021Z" fill="black" fill-opacity="0.3"/>
<path d="M280.644 223.021C281.976 223.021 283.057 221.941 283.057 220.608C283.057 219.275 281.976 218.195 280.644 218.195C279.311 218.195 278.23 219.275 278.23 220.608C278.23 221.941 279.311 223.021 280.644 223.021Z" fill="black" fill-opacity="0.3"/>
<path d="M203.425 248.761C204.757 248.761 205.838 247.68 205.838 246.348C205.838 245.015 204.757 243.935 203.425 243.935C202.092 243.935 201.012 245.015 201.012 246.348C201.012 247.68 202.092 248.761 203.425 248.761Z" fill="black" fill-opacity="0.3"/>
<path d="M139.076 261.63C140.409 261.63 141.489 260.55 141.489 259.217C141.489 257.885 140.409 256.804 139.076 256.804C137.743 256.804 136.663 257.885 136.663 259.217C136.663 260.55 137.743 261.63 139.076 261.63Z" fill="black" fill-opacity="0.3"/>
<path d="M126.207 248.761C127.54 248.761 128.62 247.68 128.62 246.348C128.62 245.015 127.54 243.935 126.207 243.935C124.874 243.935 123.794 245.015 123.794 246.348C123.794 247.68 124.874 248.761 126.207 248.761Z" fill="black" fill-opacity="0.3"/>
<path d="M164.815 210.152C166.148 210.152 167.228 209.071 167.228 207.739C167.228 206.406 166.148 205.326 164.815 205.326C163.483 205.326 162.402 206.406 162.402 207.739C162.402 209.071 163.483 210.152 164.815 210.152Z" fill="black" fill-opacity="0.3"/>
<path d="M100.468 235.891C101.8 235.891 102.881 234.811 102.881 233.478C102.881 232.145 101.8 231.065 100.468 231.065C99.1351 231.065 98.0547 232.145 98.0547 233.478C98.0547 234.811 99.1351 235.891 100.468 235.891Z" fill="black" fill-opacity="0.3"/>
<path d="M216.295 210.152C217.628 210.152 218.708 209.071 218.708 207.739C218.708 206.406 217.628 205.326 216.295 205.326C214.962 205.326 213.882 206.406 213.882 207.739C213.882 209.071 214.962 210.152 216.295 210.152Z" fill="black" fill-opacity="0.3"/>
<path d="M267.772 235.891C269.105 235.891 270.186 234.811 270.186 233.478C270.186 232.145 269.105 231.065 267.772 231.065C266.44 231.065 265.359 232.145 265.359 233.478C265.359 234.811 266.44 235.891 267.772 235.891Z" fill="black" fill-opacity="0.3"/>
<path d="M139.076 197.282C140.409 197.282 141.489 196.202 141.489 194.869C141.489 193.536 140.409 192.456 139.076 192.456C137.743 192.456 136.663 193.536 136.663 194.869C136.663 196.202 137.743 197.282 139.076 197.282Z" fill="black" fill-opacity="0.3"/>
<path d="M203.425 235.891C204.757 235.891 205.838 234.811 205.838 233.478C205.838 232.145 204.757 231.065 203.425 231.065C202.092 231.065 201.012 232.145 201.012 233.478C201.012 234.811 202.092 235.891 203.425 235.891Z" fill="black" fill-opacity="0.3"/>
<path d="M87.5976 248.761C88.9303 248.761 90.0107 247.68 90.0107 246.348C90.0107 245.015 88.9303 243.935 87.5976 243.935C86.2649 243.935 85.1846 245.015 85.1846 246.348C85.1846 247.68 86.2649 248.761 87.5976 248.761Z" fill="black" fill-opacity="0.3"/>
<path d="M216.295 248.761C217.628 248.761 218.708 247.68 218.708 246.348C218.708 245.015 217.628 243.935 216.295 243.935C214.962 243.935 213.882 245.015 213.882 246.348C213.882 247.68 214.962 248.761 216.295 248.761Z" fill="black" fill-opacity="0.3"/>
<path d="M254.903 261.63C256.236 261.63 257.316 260.55 257.316 259.217C257.316 257.885 256.236 256.804 254.903 256.804C253.571 256.804 252.49 257.885 252.49 259.217C252.49 260.55 253.571 261.63 254.903 261.63Z" fill="black" fill-opacity="0.3"/>
<path d="M344.186 57.2434C346.362 57.6874 348.486 56.2838 348.93 54.1072C349.374 51.9306 347.971 49.8063 345.794 49.3623C343.618 48.9183 341.493 50.3219 341.049 52.4985H305.577H271.714C271.391 50.9187 270.158 49.6848 268.578 49.3623C266.401 48.9183 264.277 50.3219 263.833 52.4985C263.389 54.6751 264.793 56.7994 266.969 57.2434C269.146 57.6874 271.27 56.2838 271.714 54.1072H305.577H341.049C341.372 55.6869 342.606 56.9209 344.186 57.2434ZM344.991 50.8898C346.324 50.8898 347.404 51.97 347.404 53.3028C347.404 54.6357 346.324 55.7159 344.991 55.7159C343.658 55.7159 342.578 54.6357 342.578 53.3028C342.578 51.97 343.658 50.8898 344.991 50.8898ZM267.773 55.7159C266.44 55.7159 265.36 54.6357 265.36 53.3028C265.36 51.97 266.44 50.8898 267.773 50.8898C269.105 50.8898 270.186 51.97 270.186 53.3028C270.186 54.6357 269.105 55.7159 267.773 55.7159Z" fill="black" fill-opacity="0.3"/>
<path d="M332.925 -79.334C330.749 -79.778 328.625 -78.3744 328.181 -76.1979C327.737 -74.0213 329.14 -71.8969 331.317 -71.4529V-56.4195L305.577 -30.6802L292.708 -17.8105V39.6285H271.714C271.391 38.0487 270.158 36.8148 268.578 36.4923C266.401 36.0483 264.277 37.4519 263.833 39.6285C263.389 41.8051 264.793 43.9294 266.969 44.3734C269.146 44.8174 271.27 43.4138 271.714 41.2372H294.316V-17.1509L305.577 -28.4119L332.925 -55.76V-71.4529C334.505 -71.7755 335.739 -73.0094 336.062 -74.5891C336.506 -76.7657 335.102 -78.89 332.925 -79.334ZM267.773 42.8459C266.44 42.8459 265.36 41.7657 265.36 40.4328C265.36 39.1 266.44 38.0198 267.773 38.0198C269.105 38.0198 270.186 39.1 270.186 40.4328C270.186 41.7657 269.105 42.8459 267.773 42.8459ZM332.121 -72.9812C330.788 -72.9812 329.708 -74.0615 329.708 -75.3943C329.708 -76.7271 330.788 -77.8073 332.121 -77.8073C333.454 -77.8073 334.534 -76.7271 334.534 -75.3943C334.534 -74.0615 333.454 -72.9812 332.121 -72.9812Z" fill="black" fill-opacity="0.3"/>
<path d="M332.926 148.86V116.846V66.172V65.3676H305.578H271.715C271.392 63.7879 270.158 62.554 268.579 62.2314C266.402 61.7874 264.278 63.191 263.834 65.3676C263.39 67.5442 264.793 69.6686 266.97 70.1126C269.146 70.5566 271.271 69.1529 271.715 66.9763H305.578H331.317V116.846V149.495L312.488 168.325H305.578H268.578V147.331C270.158 147.009 271.391 145.775 271.714 144.195C272.158 142.019 270.754 139.894 268.578 139.45C266.401 139.006 264.277 140.41 263.833 142.586C263.389 144.763 264.793 146.887 266.969 147.331V169.934H305.578H313.147L332.926 150.155V148.86ZM267.773 68.585C266.441 68.585 265.36 67.5048 265.36 66.172C265.36 64.8392 266.441 63.7589 267.773 63.7589C269.106 63.7589 270.187 64.8392 270.187 66.172C270.187 67.5048 269.106 68.585 267.773 68.585ZM265.36 143.39C265.36 142.057 266.441 140.977 267.773 140.977C269.106 140.977 270.187 142.057 270.187 143.39C270.187 144.723 269.106 145.803 267.773 145.803C266.441 145.803 265.36 144.723 265.36 143.39Z" fill="black" fill-opacity="0.3"/>
<path d="M138.273 -127.677V-89.0683H112.533V-43.5498L73.9243 -4.94079V-2.1175C72.3445 -1.79495 71.1106 -0.561033 70.788 1.01872C70.344 3.1953 71.7477 5.31955 73.9243 5.76355C76.1009 6.20755 78.2252 4.80401 78.6692 2.62743C79.1132 0.450846 77.7096 -1.67349 75.533 -2.1175V-4.28117L114.142 -42.8903V-87.4595H139.881V-127.677V-138.938H238.093C238.416 -137.359 239.65 -136.125 241.229 -135.802C243.406 -135.358 245.53 -136.762 245.974 -138.938C246.418 -141.115 245.015 -143.239 242.838 -143.683C240.661 -144.127 238.537 -142.724 238.093 -140.547H138.273V-127.677ZM77.1417 1.82386C77.1417 3.15668 76.0614 4.23693 74.7286 4.23693C73.3958 4.23693 72.3156 3.15668 72.3156 1.82386C72.3156 0.491045 73.3958 -0.589204 74.7286 -0.589204C76.0614 -0.589204 77.1417 0.491045 77.1417 1.82386ZM242.034 -142.156C243.367 -142.156 244.448 -141.075 244.448 -139.743C244.448 -138.41 243.367 -137.33 242.034 -137.33C240.702 -137.33 239.621 -138.41 239.621 -139.743C239.621 -141.075 240.702 -142.156 242.034 -142.156Z" fill="black" fill-opacity="0.3"/>
<path d="M73.9242 31.5037C76.1008 31.9477 78.2251 30.544 78.6691 28.3674H93.7025L112.532 47.1974V65.3678H104.408C104.086 63.788 102.852 62.5541 101.272 62.2316C99.0957 61.7876 96.9714 63.1912 96.5274 65.3678C96.0834 67.5444 97.4869 69.6687 99.6635 70.1127C101.84 70.5567 103.964 69.1531 104.408 66.9765H114.141V46.5378L94.3621 26.7587H78.6691C78.3466 25.179 77.1126 23.9451 75.5329 23.6225C73.3563 23.1785 71.2321 24.5822 70.7881 26.7587C70.344 28.9353 71.7476 31.0597 73.9242 31.5037ZM100.467 68.5852C99.1343 68.5852 98.054 67.505 98.054 66.1721C98.054 64.8393 99.1343 63.7591 100.467 63.7591C101.8 63.7591 102.88 64.8393 102.88 66.1721C102.88 67.505 101.8 68.5852 100.467 68.5852ZM74.7277 25.15C76.0606 25.15 77.1408 26.2303 77.1408 27.5631C77.1408 28.8959 76.0606 29.9762 74.7277 29.9762C73.3949 29.9762 72.3147 28.8959 72.3147 27.5631C72.3147 26.2303 73.3949 25.15 74.7277 25.15Z" fill="black" fill-opacity="0.3"/>
<path d="M189.75 -30.6806V49.3608C188.171 49.6834 186.937 50.9173 186.614 52.497C186.17 54.6736 187.574 56.7979 189.75 57.2419C191.927 57.6859 194.051 56.2823 194.495 54.1057C194.939 51.9292 193.536 49.8048 191.359 49.3608V-30.021L210.189 -48.8509H302.441C302.762 -47.2712 303.998 -46.0365 305.578 -45.7139C305.842 -45.66 306.112 -45.6327 306.383 -45.6327C308.604 -45.6335 310.404 -47.4345 310.404 -49.6553C310.403 -49.9135 310.376 -50.1717 310.326 -50.425C309.891 -52.6121 307.765 -54.0326 305.578 -53.5966C303.998 -53.2741 302.762 -52.0394 302.441 -50.4596H209.53L189.75 -30.6806ZM192.968 53.3022C192.968 54.635 191.888 55.7152 190.555 55.7152C189.222 55.7152 188.142 54.635 188.142 53.3022C188.142 51.9693 189.222 50.8891 190.555 50.8891C191.888 50.8891 192.968 51.9693 192.968 53.3022ZM305.578 -51.9316C306.096 -52.1142 306.661 -52.1142 307.179 -51.9316C308.436 -51.4892 309.097 -50.1114 308.654 -48.8542C308.212 -47.597 306.834 -46.9366 305.577 -47.379C304.887 -47.6219 304.344 -48.1648 304.102 -48.8542C303.66 -50.1114 304.32 -51.4892 305.578 -51.9316Z" fill="black" fill-opacity="0.3"/>
<path d="M202.291 -63.3288L176.881 -37.9192V23.622C175.302 23.9445 174.068 25.1784 173.745 26.7582C173.301 28.9348 174.705 31.059 176.881 31.503C179.058 31.947 181.182 30.5435 181.626 28.3669C182.07 26.1903 180.667 24.066 178.49 23.622V-37.2596L202.95 -61.7201H242.838V-110.062C244.418 -110.384 245.652 -111.618 245.975 -113.198C246.419 -115.375 245.015 -117.499 242.838 -117.943C240.662 -118.387 238.537 -116.983 238.093 -114.807C237.649 -112.63 239.053 -110.506 241.23 -110.062V-63.3288H202.291ZM180.099 27.5633C180.099 28.8961 179.018 29.9764 177.686 29.9764C176.353 29.9764 175.273 28.8961 175.273 27.5633C175.273 26.2305 176.353 25.1503 177.686 25.1503C179.018 25.1503 180.099 26.2305 180.099 27.5633ZM239.621 -114.003C239.621 -115.336 240.701 -116.416 242.034 -116.416C243.367 -116.416 244.447 -115.336 244.447 -114.003C244.447 -112.67 243.367 -111.59 242.034 -111.59C240.701 -111.59 239.621 -112.67 239.621 -114.003Z" fill="black" fill-opacity="0.3"/>
<path d="M276.702 26.7581C276.258 28.9347 277.661 31.0589 279.838 31.5029C282.015 31.9469 284.139 30.5434 284.583 28.3668C285.027 26.1902 283.623 24.0659 281.447 23.6219V-11.8501H271.714C271.391 -13.4299 270.158 -14.6638 268.578 -14.9864C266.401 -15.4304 264.277 -14.0267 263.833 -11.8501C263.389 -9.67356 264.793 -7.54922 266.969 -7.10522C269.146 -6.66122 271.27 -8.06485 271.714 -10.2414H279.838V23.6219C278.258 23.9444 277.024 25.1784 276.702 26.7581ZM267.773 -8.63273C266.44 -8.63273 265.36 -9.71298 265.36 -11.0458C265.36 -12.3786 266.44 -13.4589 267.773 -13.4589C269.105 -13.4589 270.186 -12.3786 270.186 -11.0458C270.186 -9.71298 269.105 -8.63273 267.773 -8.63273ZM280.642 25.1502C281.975 25.1502 283.055 26.2304 283.055 27.5632C283.055 28.8961 281.975 29.9763 280.642 29.9763C279.31 29.9763 278.229 28.8961 278.229 27.5632C278.229 26.2304 279.31 25.1502 280.642 25.1502Z" fill="black" fill-opacity="0.3"/>
<path d="M268.577 28.3677V1.01963H255.708V-7.10434C257.287 -7.42688 258.521 -8.6608 258.844 -10.2406C259.288 -12.4171 257.884 -14.5414 255.708 -14.9854C253.531 -15.4294 251.407 -14.0259 250.963 -11.8493C250.519 -9.67268 251.922 -7.54834 254.099 -7.10434V2.62834H266.969V26.759H254.099V79.8464H292.708V116.847V131.325H305.578H319.252H320.056V116.847V78.2377H305.578V113.71C303.998 114.032 302.763 115.267 302.441 116.847C302.441 116.848 302.441 116.848 302.441 116.848C301.997 119.025 303.402 121.148 305.578 121.592C306.096 121.695 306.629 121.695 307.147 121.592C309.335 121.159 310.757 119.035 310.323 116.847C310.001 115.267 308.765 114.032 307.186 113.71V79.8464H318.447V116.847V129.716H305.577H294.316V116.847V78.2377H255.707V28.3677H268.577ZM252.49 -11.0457C252.49 -12.3785 253.571 -13.4588 254.903 -13.4588C256.236 -13.4588 257.316 -12.3785 257.316 -11.0457C257.316 -9.71288 256.236 -8.63263 254.903 -8.63263C253.571 -8.63263 252.49 -9.71288 252.49 -11.0457ZM308.658 116.847C308.843 117.368 308.843 117.937 308.658 118.459C308.213 119.716 306.833 120.373 305.578 119.927C305.577 119.927 305.576 119.927 305.575 119.927C304.319 119.482 303.661 118.103 304.106 116.847C304.349 116.159 304.89 115.618 305.578 115.375C305.579 115.375 305.579 115.374 305.58 115.374C306.836 114.931 308.215 115.59 308.658 116.847Z" fill="black" fill-opacity="0.3"/>
<path d="M99.6622 57.2434C101.839 57.6874 103.963 56.2838 104.407 54.1072C104.851 51.9306 103.447 49.8063 101.271 49.3623C99.0943 48.9183 96.9699 50.3219 96.5259 52.4985H61.0539H27.1906C26.868 50.9187 25.6341 49.6848 24.0544 49.3623C21.8778 48.9183 19.7535 50.3219 19.3095 52.4985C18.8655 54.6751 20.2691 56.7994 22.4457 57.2434C24.6222 57.6874 26.7466 56.2838 27.1906 54.1072H61.0539H96.5259C96.8485 55.6869 98.0824 56.9209 99.6622 57.2434ZM100.467 50.8898C101.8 50.8898 102.88 51.97 102.88 53.3028C102.88 54.6357 101.8 55.7159 100.467 55.7159C99.1345 55.7159 98.0542 54.6357 98.0542 53.3028C98.0542 51.97 99.1345 50.8898 100.467 50.8898ZM23.2492 55.7159C21.9164 55.7159 20.8362 54.6357 20.8362 53.3028C20.8362 51.97 21.9164 50.8898 23.2492 50.8898C24.582 50.8898 25.6623 51.97 25.6623 53.3028C25.6623 54.6357 24.582 55.7159 23.2492 55.7159Z" fill="black" fill-opacity="0.3"/>
<path d="M212.353 52.4975C211.909 54.6741 213.313 56.7983 215.49 57.2423C217.666 57.6864 219.791 56.2828 220.235 54.1062C220.679 51.9296 219.275 49.8053 217.098 49.3613V5.76529C218.678 5.44275 219.912 4.20883 220.235 2.62907C220.679 0.452489 219.275 -1.67175 217.098 -2.11576C214.922 -2.55976 212.797 -1.15622 212.353 1.02036C211.909 3.19695 213.313 5.32129 215.49 5.76529V49.3613C213.91 49.6838 212.676 50.9178 212.353 52.4975ZM213.881 1.82393C213.881 0.491117 214.961 -0.589132 216.294 -0.589132C217.627 -0.589132 218.707 0.491117 218.707 1.82393C218.707 3.15675 217.627 4.237 216.294 4.237C214.961 4.237 213.881 3.15675 213.881 1.82393ZM216.294 50.8896C217.627 50.8896 218.707 51.9698 218.707 53.3027C218.707 54.6355 217.627 55.7157 216.294 55.7157C214.961 55.7157 213.881 54.6355 213.881 53.3027C213.881 51.9698 214.961 50.8896 216.294 50.8896Z" fill="black" fill-opacity="0.3"/>
<path d="M215.491 70.1129C217.668 70.5569 219.792 69.1532 220.236 66.9766H229.969V2.62824H242.838V-11.8501H207.366C207.044 -13.4299 205.81 -14.6638 204.23 -14.9864C202.054 -15.4304 199.929 -14.0267 199.485 -11.8501C199.041 -9.67356 200.445 -7.54922 202.621 -7.10522C204.798 -6.66121 206.922 -8.06485 207.366 -10.2414H241.23V1.01953H228.36V65.3679H220.236C219.914 63.7882 218.68 62.5543 217.1 62.2317C214.923 61.7877 212.799 63.1914 212.355 65.3679C211.911 67.5445 213.315 69.6689 215.491 70.1129ZM203.425 -8.63273C202.092 -8.63273 201.012 -9.71298 201.012 -11.0458C201.012 -12.3786 202.092 -13.4589 203.425 -13.4589C204.758 -13.4589 205.838 -12.3786 205.838 -11.0458C205.838 -9.71298 204.758 -8.63273 203.425 -8.63273ZM216.295 63.7592C217.628 63.7592 218.708 64.8395 218.708 66.1723C218.708 67.5051 217.628 68.5854 216.295 68.5854C214.962 68.5854 213.882 67.5051 213.882 66.1723C213.882 64.8395 214.962 63.7592 216.295 63.7592Z" fill="black" fill-opacity="0.3"/>
<path d="M61.0537 -11.3756V41.2372H83.6561C83.9786 42.817 85.2125 44.0509 86.7923 44.3735C88.9689 44.8175 91.0931 43.4138 91.5371 41.2372C91.9811 39.0607 90.5776 36.9363 88.401 36.4923C86.2244 36.0483 84.1001 37.4519 83.6561 39.6285H62.6624V-10.716L101.271 -49.3251V-84.3226C102.851 -84.6451 104.085 -85.879 104.408 -87.4588C104.852 -89.6354 103.448 -91.7596 101.271 -92.2036C99.0949 -92.6477 96.9705 -91.2441 96.5265 -89.0675C96.0825 -86.8909 97.4862 -84.7666 99.6628 -84.3226V-49.9846L61.0537 -11.3756ZM87.5974 38.0198C88.9302 38.0198 90.0105 39.1001 90.0105 40.4329C90.0105 41.7657 88.9302 42.846 87.5974 42.846C86.2646 42.846 85.1844 41.7657 85.1844 40.4329C85.1844 39.1001 86.2646 38.0198 87.5974 38.0198ZM98.054 -88.2639C98.054 -89.5967 99.1343 -90.677 100.467 -90.677C101.8 -90.677 102.88 -89.5967 102.88 -88.2639C102.88 -86.9311 101.8 -85.8508 100.467 -85.8508C99.1343 -85.8508 98.054 -86.9311 98.054 -88.2639Z" fill="black" fill-opacity="0.3"/>
<path d="M88.403 -2.11674C86.2264 -2.56074 84.1022 -1.1571 83.6582 1.01948C83.2142 3.19607 84.6177 5.32041 86.7943 5.76441C88.9709 6.20841 91.0952 4.80478 91.5392 2.62819H106.581L138.272 34.3198V79.8463H225.223C225.546 81.426 226.779 82.6599 228.359 82.9825C230.536 83.4265 232.66 82.0229 233.104 79.8463C233.548 77.6697 232.144 75.5453 229.968 75.1013C227.791 74.6573 225.667 76.061 225.223 78.2376H139.881V33.6763L107.224 1.01948H91.5392C91.2167 -0.560272 89.9828 -1.79419 88.403 -2.11674ZM87.5979 4.2369C86.265 4.2369 85.1848 3.15665 85.1848 1.82384C85.1848 0.49102 86.265 -0.589229 87.5979 -0.589229C88.9307 -0.589229 90.0109 0.49102 90.0109 1.82384C90.0109 3.15665 88.9307 4.2369 87.5979 4.2369ZM229.164 76.6289C230.497 76.6289 231.577 77.7091 231.577 79.0419C231.577 80.3747 230.497 81.455 229.164 81.455C227.832 81.455 226.751 80.3747 226.751 79.0419C226.751 77.7091 227.832 76.6289 229.164 76.6289Z" fill="black" fill-opacity="0.3"/>
<path d="M88.402 -79.334C86.2254 -79.778 84.1011 -78.3744 83.6571 -76.1979C83.2131 -74.0213 84.6167 -71.8969 86.7933 -71.4529V-56.4195L61.0539 -30.6802L48.1842 -17.8105V39.6285H27.1906C26.868 38.0487 25.6341 36.8148 24.0544 36.4923C21.8778 36.0483 19.7535 37.4519 19.3095 39.6285C18.8655 41.8051 20.2691 43.9294 22.4457 44.3734C24.6222 44.8174 26.7466 43.4138 27.1906 41.2372H49.7929V-17.1509L61.0539 -28.4119L88.402 -55.76V-71.4529C89.9817 -71.7755 91.2157 -73.0094 91.5382 -74.5891C91.9822 -76.7657 90.5786 -78.89 88.402 -79.334ZM23.2492 42.8459C21.9164 42.8459 20.8362 41.7657 20.8362 40.4328C20.8362 39.1 21.9164 38.0198 23.2492 38.0198C24.582 38.0198 25.6623 39.1 25.6623 40.4328C25.6623 41.7657 24.582 42.8459 23.2492 42.8459ZM87.5976 -72.9812C86.2648 -72.9812 85.1846 -74.0615 85.1846 -75.3943C85.1846 -76.7271 86.2648 -77.8073 87.5976 -77.8073C88.9305 -77.8073 90.0107 -76.7271 90.0107 -75.3943C90.0107 -74.0615 88.9305 -72.9812 87.5976 -72.9812Z" fill="black" fill-opacity="0.3"/>
<path d="M75.5329 10.7534C73.3563 10.3094 71.2321 11.713 70.7881 13.8896C70.344 16.0662 71.7476 18.1905 73.9242 18.6345C76.1008 19.0785 78.2251 17.6749 78.6691 15.4983H100.137L125.402 40.7631V78.238H104.408C104.086 76.6582 102.852 75.4243 101.272 75.1018C99.0957 74.6578 96.9714 76.0614 96.5274 78.238C96.0834 80.4146 97.4869 82.5389 99.6635 82.9829C101.84 83.4269 103.964 82.0233 104.408 79.8467H127.011V40.1035L100.797 13.8896H78.6691C78.3466 12.3098 77.1126 11.0759 75.5329 10.7534ZM74.7277 17.107C73.3949 17.107 72.3147 16.0268 72.3147 14.694C72.3147 13.3611 73.3949 12.2809 74.7277 12.2809C76.0606 12.2809 77.1408 13.3611 77.1408 14.694C77.1408 16.0268 76.0606 17.107 74.7277 17.107ZM100.467 81.4554C99.1343 81.4554 98.054 80.3752 98.054 79.0424C98.054 77.7095 99.1343 76.6293 100.467 76.6293C101.8 76.6293 102.88 77.7095 102.88 79.0424C102.88 80.3752 101.8 81.4554 100.467 81.4554Z" fill="black" fill-opacity="0.3"/>
<path d="M127.012 -2.11663C124.836 -2.56063 122.712 -1.157 122.268 1.01959C121.824 3.19617 123.227 5.32051 125.404 5.76452C127.58 6.20852 129.705 4.80488 130.149 2.6283H152.751V-35.9807H160.875C161.197 -34.401 162.431 -33.1671 164.011 -32.8445C166.188 -32.4005 168.312 -33.8042 168.756 -35.9807C169.2 -38.1573 167.796 -40.2816 165.62 -40.7256C163.443 -41.1696 161.319 -39.766 160.875 -37.5895H151.142V1.01959H130.149C129.826 -0.560164 128.592 -1.79408 127.012 -2.11663ZM126.207 4.23701C124.874 4.23701 123.794 3.15676 123.794 1.82394C123.794 0.491129 124.874 -0.58912 126.207 -0.58912C127.54 -0.58912 128.62 0.491129 128.62 1.82394C128.62 3.15676 127.54 4.23701 126.207 4.23701ZM164.816 -39.1982C166.149 -39.1982 167.229 -38.1179 167.229 -36.7851C167.229 -35.4523 166.149 -34.372 164.816 -34.372C163.483 -34.372 162.403 -35.4523 162.403 -36.7851C162.403 -38.1179 163.483 -39.1982 164.816 -39.1982Z" fill="black" fill-opacity="0.3"/>
<path d="M173.745 52.4971C173.301 54.6737 174.704 56.7979 176.881 57.2419C179.057 57.686 181.182 56.2824 181.626 54.1058C182.07 51.9292 180.666 49.8049 178.49 49.3609V39.6282H165.62V-19.9745C167.2 -20.297 168.434 -21.5309 168.756 -23.1107C169.2 -25.2873 167.796 -27.4115 165.62 -27.8555C163.443 -28.2995 161.319 -26.896 160.875 -24.7194C160.431 -22.5428 161.835 -20.4185 164.011 -19.9745V41.2369H176.881V49.3609C175.301 49.6834 174.067 50.9174 173.745 52.4971ZM162.402 -23.9158C162.402 -25.2486 163.483 -26.3289 164.816 -26.3289C166.148 -26.3289 167.229 -25.2486 167.229 -23.9158C167.229 -22.583 166.148 -21.5027 164.816 -21.5027C163.483 -21.5027 162.402 -22.583 162.402 -23.9158ZM177.685 50.8892C179.018 50.8892 180.098 51.9694 180.098 53.3023C180.098 54.6351 179.018 55.7153 177.685 55.7153C176.352 55.7153 175.272 54.6351 175.272 53.3023C175.272 51.9694 176.352 50.8892 177.685 50.8892Z" fill="black" fill-opacity="0.3"/>
<path d="M138.273 18.6345C140.449 19.0785 142.574 17.6749 143.018 15.4983H151.142V54.1073H160.874C161.197 55.6871 162.431 56.921 164.011 57.2436C166.187 57.6876 168.311 56.2839 168.755 54.1073C169.199 51.9308 167.796 49.8064 165.619 49.3624C163.443 48.9184 161.318 50.3221 160.874 52.4986H152.75V13.8896H143.018C142.695 12.3098 141.461 11.0759 139.882 10.7534C137.705 10.3094 135.581 11.713 135.137 13.8896C134.693 16.0662 136.096 18.1905 138.273 18.6345ZM164.816 50.8899C166.149 50.8899 167.229 51.9702 167.229 53.303C167.229 54.6358 166.149 55.7161 164.816 55.7161C163.483 55.7161 162.403 54.6358 162.403 53.303C162.403 51.9702 163.483 50.8899 164.816 50.8899ZM139.076 12.2809C140.409 12.2809 141.489 13.3611 141.489 14.694C141.489 16.0268 140.409 17.107 139.076 17.107C137.744 17.107 136.663 16.0268 136.663 14.694C136.663 13.3611 137.744 12.2809 139.076 12.2809Z" fill="black" fill-opacity="0.3"/>
<path d="M151.142 70.1129C153.319 70.5569 155.443 69.1533 155.887 66.9767H204.229V5.76529C205.808 5.44275 207.042 4.20883 207.365 2.62907C207.809 0.452489 206.405 -1.67175 204.229 -2.11576C202.052 -2.55976 199.928 -1.15622 199.484 1.02036C199.04 3.19695 200.443 5.32129 202.62 5.76529V65.368H155.887C155.564 63.7882 154.33 62.5543 152.751 62.2318C150.574 61.7878 148.45 63.1914 148.006 65.368C147.562 67.5446 148.965 69.6689 151.142 70.1129ZM201.011 1.82393C201.011 0.491117 202.091 -0.589132 203.424 -0.589132C204.757 -0.589132 205.837 0.491117 205.837 1.82393C205.837 3.15675 204.757 4.237 203.424 4.237C202.091 4.237 201.011 3.15675 201.011 1.82393ZM151.946 63.7593C153.278 63.7593 154.359 64.8395 154.359 66.1723C154.359 67.5052 153.278 68.5854 151.946 68.5854C150.613 68.5854 149.532 67.5052 149.532 66.1723C149.532 64.8395 150.613 63.7593 151.946 63.7593Z" fill="black" fill-opacity="0.3"/>
<path d="M279.839 116.847V144.195H289.571C289.894 145.775 291.128 147.009 292.707 147.331C294.884 147.775 297.008 146.372 297.452 144.195C297.896 142.019 296.493 139.894 294.316 139.45C292.14 139.006 290.015 140.41 289.571 142.586H281.447V116.847V91.1077H242.838V15.4983H250.962C251.285 17.0781 252.519 18.312 254.098 18.6345C256.275 19.0785 258.399 17.6749 258.843 15.4983C259.287 13.3217 257.884 11.1974 255.707 10.7534C253.531 10.3094 251.406 11.713 250.962 13.8896H241.229V92.7164H279.839V116.847ZM293.513 140.978C294.845 140.978 295.926 142.058 295.926 143.391C295.926 144.724 294.845 145.804 293.513 145.804C292.18 145.804 291.1 144.724 291.1 143.391C291.1 142.058 292.18 140.978 293.513 140.978ZM254.904 12.2809C256.236 12.2809 257.317 13.3611 257.317 14.694C257.317 16.0268 256.236 17.107 254.904 17.107C253.571 17.107 252.49 16.0268 252.49 14.694C252.49 13.3611 253.571 12.2809 254.904 12.2809Z" fill="black" fill-opacity="0.3"/>
<path d="M242.838 232.674H207.366C207.044 231.094 205.81 229.86 204.23 229.538C202.054 229.094 199.929 230.497 199.485 232.674C199.041 234.85 200.445 236.975 202.621 237.419C204.798 237.863 206.922 236.459 207.366 234.282H241.23V245.543H228.36V309.892H220.236C219.914 308.312 218.68 307.078 217.1 306.756C214.923 306.312 212.799 307.715 212.355 309.892C211.911 312.068 213.315 314.193 215.491 314.637C217.668 315.081 219.792 313.677 220.236 311.501H229.969V247.152H242.838V232.674ZM203.425 235.891C202.092 235.891 201.012 234.811 201.012 233.478C201.012 232.145 202.092 231.065 203.425 231.065C204.758 231.065 205.838 232.145 205.838 233.478C205.838 234.811 204.758 235.891 203.425 235.891ZM216.295 313.109C214.962 313.109 213.882 312.029 213.882 310.696C213.882 309.363 214.962 308.283 216.295 308.283C217.628 308.283 218.708 309.363 218.708 310.696C218.708 312.029 217.628 313.109 216.295 313.109Z" fill="black" fill-opacity="0.3"/>
<path d="M305.578 182.804H315.31C315.633 184.384 316.867 185.617 318.447 185.94C320.623 186.384 322.747 184.98 323.191 182.804C323.635 180.627 322.232 178.503 320.055 178.059C317.879 177.615 315.754 179.018 315.31 181.195H305.578H255.708V134.462C257.287 134.14 258.521 132.906 258.844 131.326C259.288 129.149 257.884 127.025 255.708 126.581C253.531 126.137 251.407 127.541 250.963 129.717C250.519 131.894 251.922 134.018 254.099 134.462V182.804H305.578ZM319.252 179.586C320.585 179.586 321.665 180.667 321.665 181.999C321.665 183.332 320.585 184.412 319.252 184.412C317.919 184.412 316.839 183.332 316.839 181.999C316.839 180.667 317.919 179.586 319.252 179.586ZM252.49 130.521C252.49 129.188 253.571 128.108 254.903 128.108C256.236 128.108 257.316 129.188 257.316 130.521C257.316 131.854 256.236 132.934 254.903 132.934C253.571 132.934 252.49 131.854 252.49 130.521Z" fill="black" fill-opacity="0.3"/>
<path d="M202.95 182.804H242.838V134.462C244.418 134.14 245.652 132.906 245.975 131.326C246.419 129.149 245.015 127.025 242.838 126.581C240.662 126.137 238.537 127.541 238.093 129.717C237.649 131.894 239.053 134.018 241.23 134.462V181.195H202.291L176.881 206.605V268.146C175.302 268.468 174.068 269.702 173.745 271.282C173.301 273.459 174.705 275.583 176.881 276.027C179.058 276.471 181.182 275.067 181.626 272.891C182.07 270.714 180.667 268.59 178.49 268.146V207.264L202.95 182.804ZM239.621 130.521C239.621 129.188 240.701 128.108 242.034 128.108C243.367 128.108 244.447 129.188 244.447 130.521C244.447 131.854 243.367 132.934 242.034 132.934C240.701 132.934 239.621 131.854 239.621 130.521ZM180.099 272.087C180.099 273.42 179.018 274.5 177.686 274.5C176.353 274.5 175.273 273.42 175.273 272.087C175.273 270.754 176.353 269.674 177.686 269.674C179.018 269.674 180.099 270.754 180.099 272.087Z" fill="black" fill-opacity="0.3"/>
<path d="M125.404 250.289C127.58 250.733 129.705 249.329 130.149 247.153H152.751V208.544H160.875C161.197 210.123 162.431 211.357 164.011 211.68C166.188 212.124 168.312 210.72 168.756 208.544C169.2 206.367 167.796 204.243 165.62 203.799C163.443 203.355 161.319 204.758 160.875 206.935H151.142V245.544H130.149C129.826 243.964 128.592 242.73 127.012 242.408C124.836 241.964 122.712 243.367 122.268 245.544C121.824 247.721 123.227 249.845 125.404 250.289ZM164.816 205.326C166.149 205.326 167.229 206.407 167.229 207.739C167.229 209.072 166.149 210.152 164.816 210.152C163.483 210.152 162.403 209.072 162.403 207.739C162.403 206.407 163.483 205.326 164.816 205.326ZM126.207 243.935C127.54 243.935 128.62 245.016 128.62 246.348C128.62 247.681 127.54 248.761 126.207 248.761C124.874 248.761 123.794 247.681 123.794 246.348C123.794 245.016 124.874 243.935 126.207 243.935Z" fill="black" fill-opacity="0.3"/>
<path d="M268.577 272.891V245.543H255.708V237.419C257.287 237.097 258.521 235.863 258.844 234.283C259.288 232.106 257.884 229.982 255.708 229.538C253.531 229.094 251.407 230.498 250.963 232.674C250.519 234.851 251.922 236.975 254.099 237.419V247.152H266.969V271.282H254.099V324.37H292.708V361.37V375.849H305.578H319.252H320.056V361.37V322.761H305.578V358.233C303.998 358.556 302.763 359.79 302.441 361.37C302.441 361.371 302.441 361.371 302.441 361.372C301.997 363.548 303.402 365.672 305.578 366.116C306.096 366.219 306.629 366.219 307.147 366.116C309.335 365.682 310.757 363.558 310.323 361.37C310.001 359.79 308.765 358.556 307.186 358.233V324.37H318.447V361.37V374.24H305.577H294.316V361.37V322.761H255.707V272.891H268.577ZM252.49 233.478C252.49 232.145 253.571 231.065 254.903 231.065C256.236 231.065 257.316 232.145 257.316 233.478C257.316 234.811 256.236 235.891 254.903 235.891C253.571 235.891 252.49 234.811 252.49 233.478ZM308.658 361.37C308.843 361.891 308.843 362.461 308.658 362.983C308.213 364.239 306.833 364.896 305.578 364.451C305.577 364.451 305.576 364.45 305.575 364.45C304.319 364.005 303.661 362.627 304.106 361.37C304.349 360.682 304.89 360.141 305.578 359.898C305.579 359.898 305.579 359.897 305.58 359.897C306.836 359.454 308.215 360.114 308.658 361.37Z" fill="black" fill-opacity="0.3"/>
<path d="M212.353 297.021C211.909 299.198 213.313 301.322 215.49 301.766C217.666 302.21 219.791 300.807 220.235 298.63C220.679 296.454 219.275 294.329 217.098 293.885V250.289C218.678 249.967 219.912 248.733 220.235 247.153C220.679 244.976 219.275 242.852 217.098 242.408C214.922 241.964 212.797 243.368 212.353 245.544C211.909 247.721 213.313 249.845 215.49 250.289V293.885C213.91 294.208 212.676 295.442 212.353 297.021ZM213.881 246.348C213.881 245.015 214.961 243.935 216.294 243.935C217.627 243.935 218.707 245.015 218.707 246.348C218.707 247.681 217.627 248.761 216.294 248.761C214.961 248.761 213.881 247.681 213.881 246.348ZM216.294 295.414C217.627 295.414 218.707 296.494 218.707 297.827C218.707 299.159 217.627 300.24 216.294 300.24C214.961 300.24 213.881 299.159 213.881 297.827C213.881 296.494 214.961 295.414 216.294 295.414Z" fill="black" fill-opacity="0.3"/>
<path d="M99.6644 237.419C101.841 237.863 103.965 236.459 104.409 234.283H139.881V198.811C141.461 198.488 142.695 197.254 143.018 195.674C143.462 193.498 142.058 191.374 139.881 190.93C137.705 190.486 135.58 191.889 135.136 194.066C134.692 196.242 136.096 198.367 138.273 198.811V232.674H104.409C104.087 231.094 102.853 229.86 101.273 229.538C99.0965 229.094 96.9723 230.497 96.5283 232.674C96.0843 234.851 97.4878 236.975 99.6644 237.419ZM136.664 194.869C136.664 193.537 137.744 192.456 139.077 192.456C140.41 192.456 141.49 193.537 141.49 194.869C141.49 196.202 140.41 197.282 139.077 197.282C137.744 197.282 136.664 196.202 136.664 194.869ZM100.468 231.065C101.801 231.065 102.881 232.146 102.881 233.478C102.881 234.811 101.801 235.891 100.468 235.891C99.1352 235.891 98.0549 234.811 98.0549 233.478C98.0549 232.146 99.1352 231.065 100.468 231.065Z" fill="black" fill-opacity="0.3"/>
<path d="M99.6644 147.331C101.841 147.775 103.965 146.371 104.409 144.195H127.012V116.847V92.7161H225.223C225.546 94.2958 226.78 95.5298 228.36 95.8523C230.536 96.2963 232.66 94.8927 233.104 92.7161C233.548 90.5395 232.145 88.4152 229.968 87.9712C227.792 87.5271 225.667 88.9308 225.223 91.1074H127.012H125.403V116.847V142.586H104.409C104.087 141.006 102.853 139.772 101.273 139.45C99.0965 139.006 96.9723 140.41 96.5283 142.586C96.0843 144.763 97.4878 146.887 99.6644 147.331ZM229.165 89.4987C230.498 89.4987 231.578 90.5789 231.578 91.9117C231.578 93.2445 230.498 94.3248 229.165 94.3248C227.832 94.3248 226.752 93.2445 226.752 91.9117C226.752 90.5789 227.832 89.4987 229.165 89.4987ZM100.468 140.977C101.801 140.977 102.881 142.058 102.881 143.39C102.881 144.723 101.801 145.804 100.468 145.804C99.1352 145.804 98.0549 144.723 98.0549 143.39C98.0549 142.058 99.1352 140.977 100.468 140.977Z" fill="black" fill-opacity="0.3"/>
<path d="M86.7923 288.897C88.9689 289.341 91.0931 287.938 91.5371 285.761C91.9811 283.585 90.5776 281.46 88.401 281.016C86.2244 280.572 84.1001 281.976 83.6561 284.152H62.6624V233.808L101.271 195.199V160.201C102.851 159.879 104.085 158.645 104.408 157.065C104.852 154.889 103.448 152.764 101.271 152.32C99.0949 151.876 96.9705 153.28 96.5265 155.456C96.0825 157.633 97.4862 159.757 99.6628 160.201V194.539L61.0537 233.148V285.761H83.6561C83.9786 287.341 85.2125 288.575 86.7923 288.897ZM87.5974 282.544C88.9302 282.544 90.0105 283.624 90.0105 284.957C90.0105 286.29 88.9302 287.37 87.5974 287.37C86.2646 287.37 85.1844 286.29 85.1844 284.957C85.1844 283.624 86.2646 282.544 87.5974 282.544ZM98.054 156.26C98.054 154.927 99.1343 153.847 100.467 153.847C101.8 153.847 102.88 154.927 102.88 156.26C102.88 157.593 101.8 158.673 100.467 158.673C99.1343 158.673 98.054 157.593 98.054 156.26Z" fill="black" fill-opacity="0.3"/>
<path d="M229.968 319.625C227.791 319.181 225.667 320.584 225.223 322.761H139.881V278.2L107.224 245.543H91.5392C91.2167 243.963 89.9828 242.729 88.403 242.407C86.2264 241.963 84.1022 243.366 83.6582 245.543C83.2142 247.72 84.6177 249.844 86.7943 250.288C88.9709 250.732 91.0952 249.328 91.5392 247.152H106.581L138.272 278.843V324.37H225.223C225.546 325.949 226.779 327.183 228.359 327.506C230.536 327.95 232.66 326.546 233.104 324.37C233.548 322.193 232.144 320.069 229.968 319.625ZM87.5979 248.76C86.265 248.76 85.1848 247.68 85.1848 246.347C85.1848 245.014 86.265 243.934 87.5979 243.934C88.9307 243.934 90.0109 245.014 90.0109 246.347C90.0109 247.68 88.9307 248.76 87.5979 248.76ZM229.164 325.978C227.832 325.978 226.751 324.898 226.751 323.565C226.751 322.233 227.832 321.152 229.164 321.152C230.497 321.152 231.577 322.233 231.577 323.565C231.577 324.898 230.497 325.978 229.164 325.978Z" fill="black" fill-opacity="0.3"/>
<path d="M127.011 284.627L100.797 258.413H78.6691C78.3466 256.833 77.1126 255.599 75.5329 255.277C73.3563 254.833 71.2321 256.236 70.7881 258.413C70.344 260.59 71.7476 262.714 73.9242 263.158C76.1008 263.602 78.2251 262.198 78.6691 260.022H100.137L125.402 285.287V322.761H104.408C104.086 321.182 102.852 319.948 101.272 319.625C99.0957 319.181 96.9714 320.585 96.5274 322.761C96.0834 324.938 97.4869 327.062 99.6635 327.506C101.84 327.95 103.964 326.547 104.408 324.37H127.011V284.627V284.627ZM74.7277 261.63C73.3949 261.63 72.3147 260.55 72.3147 259.217C72.3147 257.885 73.3949 256.804 74.7277 256.804C76.0606 256.804 77.1408 257.885 77.1408 259.217C77.1408 260.55 76.0606 261.63 74.7277 261.63ZM100.467 325.979C99.1343 325.979 98.054 324.899 98.054 323.566C98.054 322.233 99.1343 321.153 100.467 321.153C101.8 321.153 102.88 322.233 102.88 323.566C102.88 324.899 101.8 325.979 100.467 325.979Z" fill="black" fill-opacity="0.3"/>
<path d="M138.273 263.158C140.449 263.602 142.574 262.198 143.018 260.022H151.142V298.631H160.874C161.197 300.211 162.431 301.444 164.011 301.767C166.187 302.211 168.311 300.807 168.755 298.631C169.199 296.454 167.796 294.33 165.619 293.886C163.443 293.442 161.318 294.845 160.874 297.022H152.75V258.413H143.018C142.695 256.833 141.461 255.599 139.882 255.277C137.705 254.833 135.581 256.236 135.137 258.413C134.693 260.59 136.096 262.714 138.273 263.158ZM164.816 295.413C166.149 295.413 167.229 296.494 167.229 297.826C167.229 299.159 166.149 300.239 164.816 300.239C163.483 300.239 162.403 299.159 162.403 297.826C162.403 296.494 163.483 295.413 164.816 295.413ZM139.076 256.804C140.409 256.804 141.489 257.885 141.489 259.217C141.489 260.55 140.409 261.63 139.076 261.63C137.744 261.63 136.663 260.55 136.663 259.217C136.663 257.885 137.744 256.804 139.076 256.804Z" fill="black" fill-opacity="0.3"/>
<path d="M173.745 297.021C173.301 299.198 174.704 301.322 176.881 301.766C179.057 302.21 181.182 300.806 181.626 298.63C182.07 296.453 180.666 294.329 178.49 293.885V284.152H165.62V224.549C167.2 224.227 168.434 222.993 168.756 221.413C169.2 219.237 167.796 217.112 165.62 216.668C163.443 216.224 161.319 217.628 160.875 219.805C160.431 221.981 161.835 224.105 164.011 224.549V285.761H176.881V293.885C175.301 294.207 174.067 295.441 173.745 297.021ZM162.402 220.608C162.402 219.275 163.483 218.195 164.816 218.195C166.148 218.195 167.229 219.275 167.229 220.608C167.229 221.941 166.148 223.021 164.816 223.021C163.483 223.021 162.402 221.941 162.402 220.608ZM177.685 295.413C179.018 295.413 180.098 296.493 180.098 297.826C180.098 299.159 179.018 300.239 177.685 300.239C176.352 300.239 175.272 299.159 175.272 297.826C175.272 296.493 176.352 295.413 177.685 295.413Z" fill="black" fill-opacity="0.3"/>
<path d="M88.4019 148.86V116.846V66.172V65.3676H61.0538H27.1905C26.8679 63.7879 25.634 62.554 24.0543 62.2314C21.8777 61.7874 19.7534 63.191 19.3094 65.3676C18.8654 67.5442 20.269 69.6686 22.4456 70.1126C24.6221 70.5566 26.7465 69.1529 27.1905 66.9763H61.0538H86.7932V116.846V149.495L67.9632 168.325H61.0538H24.0535V147.331C25.6332 147.009 26.8672 145.775 27.1897 144.195C27.6337 142.019 26.2301 139.894 24.0535 139.45C21.8769 139.006 19.7526 140.41 19.3086 142.586C18.8646 144.763 20.2682 146.887 22.4448 147.331V169.934H61.0538H68.6228L88.4019 150.155V148.86ZM23.2491 68.585C21.9163 68.585 20.8361 67.5048 20.8361 66.172C20.8361 64.8392 21.9163 63.7589 23.2491 63.7589C24.5819 63.7589 25.6622 64.8392 25.6622 66.172C25.6622 67.5048 24.5819 68.585 23.2491 68.585ZM20.8361 143.39C20.8361 142.057 21.9163 140.977 23.2491 140.977C24.5819 140.977 25.6622 142.057 25.6622 143.39C25.6622 144.723 24.5819 145.803 23.2491 145.803C21.9163 145.803 20.8361 144.723 20.8361 143.39Z" fill="black" fill-opacity="0.3"/>
<path d="M210.189 195.673H302.441C302.762 197.253 303.998 198.487 305.578 198.81C305.842 198.864 306.112 198.891 306.383 198.891C308.604 198.891 310.404 197.089 310.404 194.869C310.403 194.61 310.376 194.352 310.326 194.099C309.891 191.912 307.765 190.491 305.578 190.927C303.998 191.25 302.762 192.485 302.441 194.064H209.53L189.75 213.843V293.885C188.171 294.207 186.937 295.441 186.614 297.021C186.17 299.198 187.574 301.322 189.75 301.766C191.927 302.21 194.051 300.806 194.495 298.63C194.939 296.453 193.536 294.329 191.359 293.885V214.503L210.189 195.673ZM305.578 192.592C306.096 192.41 306.661 192.41 307.179 192.592C308.436 193.035 309.097 194.413 308.654 195.67C308.212 196.927 306.834 197.587 305.577 197.145C304.887 196.902 304.344 196.359 304.102 195.67C303.66 194.413 304.32 193.035 305.578 192.592ZM192.968 297.826C192.968 299.159 191.888 300.239 190.555 300.239C189.222 300.239 188.142 299.159 188.142 297.826C188.142 296.493 189.222 295.413 190.555 295.413C191.888 295.413 192.968 296.493 192.968 297.826Z" fill="black" fill-opacity="0.3"/>
<path d="M151.142 198.81C153.319 199.254 155.443 197.85 155.887 195.673H171.918L197.657 169.934H229.968V134.462C231.548 134.14 232.782 132.906 233.104 131.326C233.548 129.149 232.145 127.025 229.968 126.581C227.791 126.137 225.667 127.541 225.223 129.717C224.779 131.894 226.183 134.018 228.359 134.462V168.325H196.989L171.25 194.065H155.887C155.564 192.485 154.33 191.251 152.751 190.929C150.574 190.485 148.45 191.888 148.006 194.065C147.562 196.241 148.965 198.366 151.142 198.81ZM226.751 130.521C226.751 129.188 227.831 128.108 229.164 128.108C230.496 128.108 231.577 129.188 231.577 130.521C231.577 131.854 230.496 132.934 229.164 132.934C227.831 132.934 226.751 131.854 226.751 130.521ZM151.946 192.456C153.278 192.456 154.359 193.536 154.359 194.869C154.359 196.202 153.278 197.282 151.946 197.282C150.613 197.282 149.532 196.202 149.532 194.869C149.532 193.536 150.613 192.456 151.946 192.456Z" fill="black" fill-opacity="0.3"/>
<path d="M255.708 116.847V105.586H266.969V116.847V126.58C265.389 126.902 264.155 128.136 263.832 129.716C263.388 131.893 264.792 134.017 266.969 134.461C269.145 134.905 271.269 133.501 271.713 131.325C272.157 129.148 270.754 127.024 268.577 126.58V116.847V104.782V103.978H254.099V116.847H215.49V155.456H194.496C194.174 153.877 192.94 152.643 191.36 152.32C189.183 151.876 187.059 153.28 186.615 155.456C186.171 157.633 187.575 159.757 189.751 160.201C191.928 160.645 194.052 159.242 194.496 157.065H217.099V118.456H255.708V116.847ZM270.186 130.521C270.186 131.854 269.106 132.934 267.773 132.934C266.44 132.934 265.36 131.854 265.36 130.521C265.36 129.188 266.44 128.108 267.773 128.108C269.106 128.108 270.186 129.188 270.186 130.521ZM190.555 158.674C189.222 158.674 188.142 157.593 188.142 156.261C188.142 154.928 189.222 153.848 190.555 153.848C191.888 153.848 192.968 154.928 192.968 156.261C192.968 157.593 191.888 158.674 190.555 158.674Z" fill="black" fill-opacity="0.3"/>
<path d="M114.142 201.634V157.065H139.881V116.847V105.586H238.093C238.416 107.166 239.65 108.4 241.229 108.722C243.406 109.166 245.53 107.763 245.974 105.586C246.418 103.41 245.015 101.285 242.838 100.841C240.661 100.397 238.537 101.801 238.093 103.977H138.273V116.847V155.456H112.533V200.975L73.9243 239.584V242.407C72.3445 242.729 71.1106 243.963 70.788 245.543C70.344 247.72 71.7477 249.844 73.9243 250.288C76.1009 250.732 78.2252 249.328 78.6692 247.152C79.1132 244.975 77.7096 242.851 75.533 242.407V240.243L114.142 201.634ZM242.034 102.369C243.367 102.369 244.448 103.449 244.448 104.782C244.448 106.115 243.367 107.195 242.034 107.195C240.702 107.195 239.621 106.115 239.621 104.782C239.621 103.449 240.702 102.369 242.034 102.369ZM77.1417 246.348C77.1417 247.681 76.0614 248.761 74.7286 248.761C73.3958 248.761 72.3156 247.681 72.3156 246.348C72.3156 245.015 73.3958 243.935 74.7286 243.935C76.0614 243.935 77.1417 245.015 77.1417 246.348Z" fill="black" fill-opacity="0.3"/>
<path d="M276.702 271.282C276.258 273.459 277.661 275.583 279.838 276.027C282.015 276.471 284.139 275.067 284.583 272.891C285.027 270.714 283.623 268.59 281.447 268.146V232.674H271.714C271.391 231.094 270.158 229.86 268.578 229.538C266.401 229.094 264.277 230.497 263.833 232.674C263.389 234.85 264.793 236.975 266.969 237.419C269.146 237.863 271.27 236.459 271.714 234.282H279.838V268.146C278.258 268.468 277.024 269.702 276.702 271.282ZM267.773 235.891C266.44 235.891 265.36 234.811 265.36 233.478C265.36 232.145 266.44 231.065 267.773 231.065C269.105 231.065 270.186 232.145 270.186 233.478C270.186 234.811 269.105 235.891 267.773 235.891ZM280.642 269.674C281.975 269.674 283.055 270.754 283.055 272.087C283.055 273.42 281.975 274.5 280.642 274.5C279.31 274.5 278.229 273.42 278.229 272.087C278.229 270.754 279.31 269.674 280.642 269.674Z" fill="black" fill-opacity="0.3"/>
<path d="M173.744 168.325C173.3 170.501 174.704 172.625 176.881 173.069C179.057 173.513 181.181 172.11 181.625 169.933C182.069 167.757 180.666 165.632 178.489 165.188V129.716H155.887C155.564 128.137 154.33 126.903 152.751 126.58C150.574 126.136 148.45 127.54 148.006 129.716C147.562 131.893 148.965 134.017 151.142 134.461C153.319 134.905 155.443 133.502 155.887 131.325H176.881V165.188C175.301 165.511 174.067 166.745 173.744 168.325ZM151.946 132.934C150.613 132.934 149.532 131.853 149.532 130.521C149.532 129.188 150.613 128.108 151.946 128.108C153.278 128.108 154.359 129.188 154.359 130.521C154.359 131.853 153.278 132.934 151.946 132.934ZM177.685 166.717C179.018 166.717 180.098 167.797 180.098 169.13C180.098 170.462 179.018 171.543 177.685 171.543C176.352 171.543 175.272 170.462 175.272 169.13C175.272 167.797 176.352 166.717 177.685 166.717Z" fill="black" fill-opacity="0.3"/>
<path d="M125.402 168.326V219.805H117.278C116.956 218.225 115.722 216.991 114.142 216.668C111.966 216.224 109.841 217.628 109.397 219.805C108.953 221.981 110.357 224.105 112.534 224.549C114.71 224.993 116.834 223.59 117.278 221.413H127.011V169.935H152.751V147.332C154.33 147.01 155.564 145.776 155.887 144.196C156.331 142.019 154.927 139.895 152.751 139.451C150.574 139.007 148.45 140.411 148.006 142.587C147.562 144.764 148.965 146.888 151.142 147.332V168.326H125.402ZM113.337 223.022C112.004 223.022 110.924 221.942 110.924 220.609C110.924 219.276 112.004 218.196 113.337 218.196C114.67 218.196 115.75 219.276 115.75 220.609C115.75 221.942 114.67 223.022 113.337 223.022ZM149.533 143.391C149.533 142.058 150.613 140.978 151.946 140.978C153.279 140.978 154.359 142.058 154.359 143.391C154.359 144.724 153.279 145.804 151.946 145.804C150.613 145.804 149.533 144.724 149.533 143.391Z" fill="black" fill-opacity="0.3"/>
<path d="M138.273 185.94C140.449 186.384 142.574 184.981 143.018 182.804H165.62V147.332C167.2 147.01 168.434 145.776 168.756 144.196C169.2 142.019 167.797 139.895 165.62 139.451C163.444 139.007 161.319 140.411 160.875 142.587C160.431 144.764 161.835 146.888 164.011 147.332V181.196H143.018C142.695 179.616 141.461 178.382 139.882 178.059C137.705 177.615 135.581 179.019 135.137 181.196C134.693 183.372 136.096 185.496 138.273 185.94ZM162.403 143.391C162.403 142.058 163.483 140.978 164.816 140.978C166.149 140.978 167.229 142.058 167.229 143.391C167.229 144.724 166.149 145.804 164.816 145.804C163.483 145.804 162.403 144.724 162.403 143.391ZM139.076 179.587C140.409 179.587 141.489 180.667 141.489 182C141.489 183.333 140.409 184.413 139.076 184.413C137.744 184.413 136.663 183.333 136.663 182C136.663 180.667 137.744 179.587 139.076 179.587Z" fill="black" fill-opacity="0.3"/>
<path d="M104.409 129.716C104.087 128.137 102.853 126.903 101.273 126.58C99.0965 126.136 96.9723 127.54 96.5283 129.716C96.0843 131.893 97.4878 134.017 99.6644 134.461C101.841 134.905 103.965 133.502 104.409 131.325H114.142V116.847H101.272V92.7161H112.533V100.84C110.954 101.163 109.72 102.397 109.397 103.976C108.953 106.153 110.357 108.277 112.533 108.721C114.71 109.165 116.834 107.762 117.278 105.585C117.722 103.408 116.319 101.284 114.142 100.84V91.1074H99.6636V116.847V118.455H112.533V129.716H104.409ZM100.468 132.934C99.1352 132.934 98.0549 131.854 98.0549 130.521C98.0549 129.188 99.1352 128.108 100.468 128.108C101.801 128.108 102.881 129.188 102.881 130.521C102.881 131.854 101.801 132.934 100.468 132.934ZM115.751 104.781C115.751 106.114 114.67 107.195 113.338 107.195C112.005 107.195 110.925 106.114 110.925 104.781C110.925 103.449 112.005 102.368 113.338 102.368C114.67 102.368 115.751 103.449 115.751 104.781Z" fill="black" fill-opacity="0.3"/>
<path d="M204.229 144.195V116.847H155.888C155.566 115.264 154.329 114.028 152.746 113.706C150.57 113.263 148.447 114.67 148.005 116.847C147.561 119.023 148.965 121.149 151.142 121.593C153.318 122.037 155.444 120.632 155.888 118.456H202.621V142.586H191.36V134.462C192.939 134.14 194.173 132.906 194.496 131.326C194.94 129.149 193.536 127.025 191.36 126.581C189.183 126.137 187.059 127.541 186.615 129.717C186.171 131.894 187.574 134.018 189.751 134.462V144.195H204.229ZM154.222 118.448C153.78 119.706 152.402 120.366 151.145 119.923C149.888 119.481 149.227 118.104 149.67 116.847C149.913 116.157 150.456 115.614 151.145 115.372C152.402 114.929 153.78 115.59 154.222 116.847C154.405 117.365 154.405 117.93 154.222 118.448ZM188.142 130.521C188.142 129.188 189.222 128.108 190.555 128.108C191.888 128.108 192.968 129.188 192.968 130.521C192.968 131.854 191.888 132.934 190.555 132.934C189.222 132.934 188.142 131.854 188.142 130.521Z" fill="black" fill-opacity="0.3"/>
<path d="M299.618 155.455H284.584C284.261 153.875 283.028 152.641 281.448 152.319C279.271 151.875 277.147 153.278 276.703 155.455C276.259 157.632 277.663 159.756 279.839 160.2C282.016 160.644 284.14 159.24 284.584 157.064H300.277L305.578 151.763L313.147 144.194H315.311C315.633 145.774 316.867 147.008 318.447 147.33C320.623 147.774 322.748 146.371 323.192 144.194C323.636 142.018 322.232 139.893 320.055 139.449C317.879 139.005 315.755 140.409 315.311 142.585H312.487L305.578 149.503V149.495L299.618 155.455ZM280.643 158.672C279.31 158.672 278.23 157.592 278.23 156.259C278.23 154.927 279.31 153.846 280.643 153.846C281.976 153.846 283.056 154.927 283.056 156.259C283.056 157.592 281.976 158.672 280.643 158.672ZM319.252 140.977C320.585 140.977 321.665 142.057 321.665 143.39C321.665 144.723 320.585 145.803 319.252 145.803C317.919 145.803 316.839 144.723 316.839 143.39C316.839 142.057 317.919 140.977 319.252 140.977Z" fill="black" fill-opacity="0.3"/>
<path d="M151.142 314.637C153.319 315.081 155.443 313.677 155.887 311.501H204.229V250.289C205.808 249.967 207.042 248.733 207.365 247.153C207.809 244.976 206.405 242.852 204.229 242.408C202.052 241.964 199.928 243.368 199.484 245.544C199.04 247.721 200.443 249.845 202.62 250.289V309.892H155.887C155.564 308.312 154.33 307.078 152.751 306.756C150.574 306.312 148.45 307.715 148.006 309.892C147.562 312.068 148.965 314.193 151.142 314.637ZM201.011 246.348C201.011 245.015 202.091 243.935 203.424 243.935C204.757 243.935 205.837 245.015 205.837 246.348C205.837 247.681 204.757 248.761 203.424 248.761C202.091 248.761 201.011 247.681 201.011 246.348ZM151.946 308.283C153.278 308.283 154.359 309.363 154.359 310.696C154.359 312.029 153.278 313.109 151.946 313.109C150.613 313.109 149.532 312.029 149.532 310.696C149.532 309.363 150.613 308.283 151.946 308.283Z" fill="black" fill-opacity="0.3"/>
<path d="M266.969 288.897C269.146 289.341 271.27 287.938 271.714 285.761H294.316V227.373L305.577 216.112L332.925 188.764V173.071C334.505 172.748 335.739 171.514 336.062 169.935C336.506 167.758 335.102 165.634 332.925 165.19C330.749 164.746 328.625 166.149 328.181 168.326C327.737 170.503 329.14 172.627 331.317 173.071V188.104L305.577 213.844L292.708 226.713V284.152H271.714C271.391 282.573 270.158 281.339 268.578 281.016C266.401 280.572 264.277 281.976 263.833 284.152C263.389 286.329 264.793 288.453 266.969 288.897ZM329.708 169.13C329.708 167.797 330.788 166.717 332.121 166.717C333.454 166.717 334.534 167.797 334.534 169.13C334.534 170.462 333.454 171.543 332.121 171.543C330.788 171.543 329.708 170.462 329.708 169.13ZM267.773 282.544C269.105 282.544 270.186 283.624 270.186 284.957C270.186 286.29 269.105 287.37 267.773 287.37C266.44 287.37 265.36 286.29 265.36 284.957C265.36 283.624 266.44 282.544 267.773 282.544Z" fill="black" fill-opacity="0.3"/>
<path d="M289.571 206.935H220.236C219.913 205.355 218.679 204.121 217.099 203.799C214.923 203.355 212.798 204.758 212.354 206.935C211.91 209.112 213.314 211.236 215.491 211.68C217.667 212.124 219.792 210.72 220.236 208.544H289.571C289.894 210.123 291.127 211.357 292.707 211.68C294.884 212.124 297.008 210.72 297.452 208.544C297.896 206.367 296.492 204.243 294.316 203.799C292.139 203.355 290.015 204.758 289.571 206.935ZM216.294 210.152C214.961 210.152 213.881 209.072 213.881 207.739C213.881 206.407 214.961 205.326 216.294 205.326C217.627 205.326 218.707 206.407 218.707 207.739C218.707 209.072 217.627 210.152 216.294 210.152ZM295.925 207.739C295.925 209.072 294.845 210.152 293.512 210.152C292.179 210.152 291.099 209.072 291.099 207.739C291.099 206.407 292.179 205.326 293.512 205.326C294.845 205.326 295.925 206.407 295.925 207.739Z" fill="black" fill-opacity="0.3"/>
<path d="M202.621 224.549C204.798 224.993 206.922 223.589 207.366 221.412H276.702C277.024 222.992 278.258 224.226 279.838 224.549C282.015 224.993 284.139 223.589 284.583 221.412C285.027 219.236 283.623 217.111 281.447 216.667C279.27 216.223 277.146 217.627 276.702 219.804H207.366C207.044 218.224 205.81 216.99 204.23 216.667C202.054 216.223 199.929 217.627 199.485 219.804C199.041 221.98 200.445 224.105 202.621 224.549ZM280.643 218.195C281.976 218.195 283.056 219.275 283.056 220.608C283.056 221.941 281.976 223.021 280.643 223.021C279.31 223.021 278.23 221.941 278.23 220.608C278.23 219.275 279.31 218.195 280.643 218.195ZM203.425 218.195C204.758 218.195 205.838 219.275 205.838 220.608C205.838 221.941 204.758 223.021 203.425 223.021C202.092 223.021 201.012 221.941 201.012 220.608C201.012 219.275 202.092 218.195 203.425 218.195Z" fill="black" fill-opacity="0.3"/>
<path d="M35.3151 116.847V144.195H45.0478C45.3703 145.775 46.6042 147.009 48.184 147.331C50.3606 147.775 52.4848 146.372 52.9288 144.195C53.3728 142.019 51.9693 139.894 49.7927 139.45C47.6161 139.006 45.4918 140.41 45.0478 142.586H36.9238V116.847V91.1077H-1.68524V15.4983H6.43873C6.76128 17.0781 7.9952 18.312 9.57495 18.6345C11.7515 19.0785 13.8758 17.6749 14.3198 15.4983C14.7638 13.3217 13.3602 11.1974 11.1837 10.7534C9.00707 10.3094 6.88273 11.713 6.43873 13.8896H-3.29395V92.7164H35.3151V116.847ZM48.9891 140.978C50.3219 140.978 51.4022 142.058 51.4022 143.391C51.4022 144.724 50.3219 145.804 48.9891 145.804C47.6563 145.804 46.5761 144.724 46.5761 143.391C46.5761 142.058 47.6563 140.978 48.9891 140.978ZM10.3801 12.2809C11.7129 12.2809 12.7932 13.3611 12.7932 14.694C12.7932 16.0268 11.7129 17.107 10.3801 17.107C9.04727 17.107 7.96703 16.0268 7.96703 14.694C7.96703 13.3611 9.04727 12.2809 10.3801 12.2809Z" fill="black" fill-opacity="0.3"/>
<path d="M32.1783 26.7581C31.7343 28.9347 33.138 31.0589 35.3146 31.5029C37.4911 31.9469 39.6155 30.5434 40.0595 28.3668C40.5035 26.1902 39.0998 24.0659 36.9233 23.6219V-11.8501H27.1906C26.868 -13.4299 25.6341 -14.6638 24.0544 -14.9864C21.8778 -15.4304 19.7535 -14.0267 19.3095 -11.8501C18.8655 -9.67356 20.2691 -7.54922 22.4457 -7.10522C24.6222 -6.66122 26.7466 -8.06485 27.1906 -10.2414H35.3146V23.6219C33.7348 23.9444 32.5009 25.1784 32.1783 26.7581ZM23.2492 -8.63273C21.9164 -8.63273 20.8362 -9.71298 20.8362 -11.0458C20.8362 -12.3786 21.9164 -13.4589 23.2492 -13.4589C24.582 -13.4589 25.6623 -12.3786 25.6623 -11.0458C25.6623 -9.71298 24.582 -8.63273 23.2492 -8.63273ZM36.1189 25.1502C37.4517 25.1502 38.532 26.2304 38.532 27.5632C38.532 28.8961 37.4517 29.9763 36.1189 29.9763C34.7861 29.9763 33.7058 28.8961 33.7058 27.5632C33.7058 26.2304 34.7861 25.1502 36.1189 25.1502Z" fill="black" fill-opacity="0.3"/>
<path d="M-54.773 -30.6806V49.3608C-56.3528 49.6834 -57.5867 50.9173 -57.9092 52.497C-58.3532 54.6736 -56.9496 56.7979 -54.773 57.2419C-52.5964 57.6859 -50.4721 56.2823 -50.0281 54.1057C-49.5841 51.9292 -50.9877 49.8048 -53.1643 49.3608V-30.021L-34.3343 -48.8509H57.9171C58.2397 -47.2712 59.4744 -46.0365 61.0541 -45.7139C61.3188 -45.66 61.589 -45.6327 61.8593 -45.6327C64.0801 -45.6335 65.8811 -47.4345 65.8802 -49.6553C65.8794 -49.9135 65.8529 -50.1717 65.8022 -50.425C65.367 -52.6121 63.2412 -54.0326 61.0541 -53.5966C59.4744 -53.2741 58.2397 -52.0394 57.9171 -50.4596H-34.9939L-54.773 -30.6806ZM-51.5556 53.3022C-51.5556 54.635 -52.6358 55.7152 -53.9686 55.7152C-55.3015 55.7152 -56.3817 54.635 -56.3817 53.3022C-56.3817 51.9693 -55.3015 50.8891 -53.9686 50.8891C-52.6358 50.8891 -51.5556 51.9693 -51.5556 53.3022ZM61.0541 -51.9316C61.5721 -52.1142 62.1376 -52.1142 62.6556 -51.9316C63.9128 -51.4892 64.5731 -50.1114 64.1307 -48.8542C63.6883 -47.597 62.3105 -46.9366 61.0533 -47.379C60.3632 -47.6219 59.8203 -48.1648 59.5782 -48.8542C59.1366 -50.1114 59.7969 -51.4892 61.0541 -51.9316Z" fill="black" fill-opacity="0.3"/>
<path d="M24.054 28.3677V1.01963H11.1843V-7.10434C12.7641 -7.42688 13.998 -8.6608 14.3206 -10.2406C14.7646 -12.4171 13.3609 -14.5414 11.1843 -14.9854C9.00776 -15.4294 6.88342 -14.0259 6.43941 -11.8493C5.99541 -9.67268 7.39905 -7.54834 9.57563 -7.10434V2.62834H22.4453V26.759H9.57563V79.8464H48.1847V116.847V131.325H61.0544H74.7284H75.5327V116.847V78.2377H61.0544V113.71C59.4746 114.032 58.2399 115.267 57.9174 116.847C57.9174 116.848 57.9174 116.848 57.9174 116.848C57.4733 119.025 58.8786 121.148 61.0544 121.592C61.5724 121.695 62.1057 121.695 62.6237 121.592C64.8115 121.159 66.2336 119.035 65.8001 116.847C65.4775 115.267 64.2428 114.032 62.6631 113.71V79.8464H73.924V116.847V129.716H61.0544H49.7934V116.847V78.2377H11.1843V28.3677H24.054ZM7.96692 -11.0457C7.96692 -12.3785 9.04717 -13.4588 10.38 -13.4588C11.7128 -13.4588 12.7931 -12.3785 12.7931 -11.0457C12.7931 -9.71288 11.7128 -8.63263 10.38 -8.63263C9.04717 -8.63263 7.96692 -9.71288 7.96692 -11.0457ZM64.135 116.847C64.32 117.368 64.32 117.937 64.135 118.459C63.6894 119.716 62.3108 120.373 61.0544 119.927C61.0536 119.927 61.0527 119.927 61.0519 119.927C59.7955 119.482 59.1376 118.103 59.5824 116.847C59.8253 116.159 60.3666 115.618 61.0544 115.375C61.0552 115.375 61.056 115.374 61.0568 115.374C62.3132 114.931 63.6918 115.59 64.135 116.847Z" fill="black" fill-opacity="0.3"/>
<path d="M-41.903 224.549C-39.7264 224.993 -37.6021 223.589 -37.158 221.412H32.1773C32.4999 222.992 33.7338 224.226 35.3135 224.549C37.4901 224.993 39.6144 223.589 40.0584 221.412C40.5024 219.236 39.0988 217.111 36.9222 216.667C34.7457 216.223 32.6213 217.627 32.1773 219.804H-37.158C-37.4806 218.224 -38.7145 216.99 -40.2943 216.667C-42.4709 216.223 -44.5951 217.627 -45.0391 219.804C-45.4831 221.98 -44.0796 224.105 -41.903 224.549ZM36.1187 218.195C37.4515 218.195 38.5317 219.275 38.5317 220.608C38.5317 221.941 37.4515 223.021 36.1187 223.021C34.7858 223.021 33.7056 221.941 33.7056 220.608C33.7056 219.275 34.7858 218.195 36.1187 218.195ZM-41.0994 218.195C-39.7666 218.195 -38.6863 219.275 -38.6863 220.608C-38.6863 221.941 -39.7666 223.021 -41.0994 223.021C-42.4322 223.021 -43.5125 221.941 -43.5125 220.608C-43.5125 219.275 -42.4322 218.195 -41.0994 218.195Z" fill="black" fill-opacity="0.3"/>
<path d="M61.0544 182.804H70.787C71.1096 184.384 72.3435 185.617 73.9233 185.94C76.0998 186.384 78.2241 184.98 78.6681 182.804C79.1121 180.627 77.7086 178.503 75.532 178.059C73.3554 177.615 71.231 179.018 70.787 181.195H61.0544H11.1843V134.462C12.7641 134.14 13.998 132.906 14.3206 131.326C14.7646 129.149 13.3609 127.025 11.1843 126.581C9.00776 126.137 6.88342 127.541 6.43941 129.717C5.99541 131.894 7.39905 134.018 9.57563 134.462V182.804H61.0544ZM74.7284 179.586C76.0612 179.586 77.1415 180.667 77.1415 181.999C77.1415 183.332 76.0612 184.412 74.7284 184.412C73.3956 184.412 72.3153 183.332 72.3153 181.999C72.3153 180.667 73.3956 179.586 74.7284 179.586ZM7.96692 130.521C7.96692 129.188 9.04717 128.108 10.38 128.108C11.7128 128.108 12.7931 129.188 12.7931 130.521C12.7931 131.854 11.7128 132.934 10.38 132.934C9.04717 132.934 7.96692 131.854 7.96692 130.521Z" fill="black" fill-opacity="0.3"/>
<path d="M22.4457 288.897C24.6222 289.341 26.7466 287.938 27.1906 285.761H49.7929V227.373L61.0539 216.112L88.402 188.764V173.071C89.9817 172.748 91.2157 171.514 91.5382 169.935C91.9822 167.758 90.5786 165.634 88.402 165.19C86.2254 164.746 84.1011 166.149 83.6571 168.326C83.2131 170.503 84.6167 172.627 86.7933 173.071V188.104L61.0539 213.844L48.1842 226.713V284.152H27.1906C26.868 282.573 25.6341 281.339 24.0544 281.016C21.8778 280.572 19.7535 281.976 19.3095 284.152C18.8655 286.329 20.2691 288.453 22.4457 288.897ZM85.1846 169.13C85.1846 167.797 86.2648 166.717 87.5976 166.717C88.9305 166.717 90.0107 167.797 90.0107 169.13C90.0107 170.462 88.9305 171.543 87.5976 171.543C86.2648 171.543 85.1846 170.462 85.1846 169.13ZM23.2492 282.544C24.582 282.544 25.6623 283.624 25.6623 284.957C25.6623 286.29 24.582 287.37 23.2492 287.37C21.9164 287.37 20.8362 286.29 20.8362 284.957C20.8362 283.624 21.9164 282.544 23.2492 282.544Z" fill="black" fill-opacity="0.3"/>
<path d="M-34.3343 195.673H57.9171C58.2397 197.253 59.4744 198.487 61.0541 198.81C61.3188 198.864 61.589 198.891 61.8593 198.891C64.0801 198.891 65.8811 197.089 65.8802 194.869C65.8794 194.61 65.8529 194.352 65.8022 194.099C65.367 191.912 63.2412 190.491 61.0541 190.927C59.4744 191.25 58.2397 192.485 57.9171 194.064H-34.9939L-54.773 213.843V293.885C-56.3528 294.207 -57.5867 295.441 -57.9092 297.021C-58.3532 299.198 -56.9496 301.322 -54.773 301.766C-52.5964 302.21 -50.4721 300.806 -50.0281 298.63C-49.5841 296.453 -50.9877 294.329 -53.1643 293.885V214.503L-34.3343 195.673ZM61.0541 192.592C61.5721 192.41 62.1376 192.41 62.6556 192.592C63.9128 193.035 64.5731 194.413 64.1307 195.67C63.6883 196.927 62.3105 197.587 61.0533 197.145C60.3632 196.902 59.8203 196.359 59.5782 195.67C59.1366 194.413 59.7969 193.035 61.0541 192.592ZM-51.5556 297.826C-51.5556 299.159 -52.6358 300.239 -53.9686 300.239C-55.3015 300.239 -56.3817 299.159 -56.3817 297.826C-56.3817 296.493 -55.3015 295.413 -53.9686 295.413C-52.6358 295.413 -51.5556 296.493 -51.5556 297.826Z" fill="black" fill-opacity="0.3"/>
<path d="M32.1783 271.282C31.7343 273.459 33.138 275.583 35.3146 276.027C37.4911 276.471 39.6155 275.067 40.0595 272.891C40.5035 270.714 39.0998 268.59 36.9233 268.146V232.674H27.1906C26.868 231.094 25.6341 229.86 24.0544 229.538C21.8778 229.094 19.7535 230.497 19.3095 232.674C18.8655 234.85 20.2691 236.975 22.4457 237.419C24.6222 237.863 26.7466 236.459 27.1906 234.282H35.3146V268.146C33.7348 268.468 32.5009 269.702 32.1783 271.282ZM23.2492 235.891C21.9164 235.891 20.8362 234.811 20.8362 233.478C20.8362 232.145 21.9164 231.065 23.2492 231.065C24.582 231.065 25.6623 232.145 25.6623 233.478C25.6623 234.811 24.582 235.891 23.2492 235.891ZM36.1189 269.674C37.4517 269.674 38.532 270.754 38.532 272.087C38.532 273.42 37.4517 274.5 36.1189 274.5C34.7861 274.5 33.7058 273.42 33.7058 272.087C33.7058 270.754 34.7861 269.674 36.1189 269.674Z" fill="black" fill-opacity="0.3"/>
<path d="M55.094 155.455H40.0607C39.7382 153.875 38.5042 152.641 36.9245 152.319C34.7479 151.875 32.6237 153.278 32.1797 155.455C31.7356 157.632 33.1392 159.756 35.3158 160.2C37.4924 160.644 39.6167 159.24 40.0607 157.064H55.7537L61.0543 151.763L68.6234 144.194H70.787C71.1096 145.774 72.3435 147.008 73.9232 147.33C76.0998 147.774 78.2241 146.371 78.6681 144.194C79.1121 142.018 77.7085 139.893 75.5319 139.449C73.3554 139.005 71.231 140.409 70.787 142.585H67.9637L61.0543 149.503V149.495L55.094 155.455ZM36.1193 158.672C34.7865 158.672 33.7063 157.592 33.7063 156.259C33.7063 154.927 34.7865 153.846 36.1193 153.846C37.4522 153.846 38.5324 154.927 38.5324 156.259C38.5324 157.592 37.4522 158.672 36.1193 158.672ZM74.7284 140.977C76.0612 140.977 77.1414 142.057 77.1414 143.39C77.1414 144.723 76.0612 145.803 74.7284 145.803C73.3956 145.803 72.3153 144.723 72.3153 143.39C72.3153 142.057 73.3956 140.977 74.7284 140.977Z" fill="black" fill-opacity="0.3"/>
<path d="M45.0474 206.935H-24.2879C-24.6105 205.355 -25.8444 204.121 -27.4241 203.799C-29.6007 203.355 -31.725 204.758 -32.169 206.935C-32.613 209.112 -31.2094 211.236 -29.0329 211.68C-26.8563 212.124 -24.7319 210.72 -24.2879 208.544H45.0474C45.37 210.123 46.6039 211.357 48.1836 211.68C50.3602 212.124 52.4845 210.72 52.9285 208.544C53.3725 206.367 51.9689 204.243 49.7924 203.799C47.6158 203.355 45.4914 204.758 45.0474 206.935ZM-28.2293 210.152C-29.5621 210.152 -30.6424 209.072 -30.6424 207.739C-30.6424 206.407 -29.5621 205.326 -28.2293 205.326C-26.8965 205.326 -25.8162 206.407 -25.8162 207.739C-25.8162 209.072 -26.8965 210.152 -28.2293 210.152ZM51.4018 207.739C51.4018 209.072 50.3216 210.152 48.9888 210.152C47.656 210.152 46.5757 209.072 46.5757 207.739C46.5757 206.407 47.656 205.326 48.9888 205.326C50.3216 205.326 51.4018 206.407 51.4018 207.739Z" fill="black" fill-opacity="0.3"/>
<path d="M24.054 272.891V245.543H11.1843V237.419C12.7641 237.097 13.998 235.863 14.3206 234.283C14.7646 232.106 13.3609 229.982 11.1843 229.538C9.00776 229.094 6.88342 230.498 6.43941 232.674C5.99541 234.851 7.39905 236.975 9.57563 237.419V247.152H22.4453V271.282H9.57563V324.37H48.1847V361.37V375.849H61.0544H74.7284H75.5327V361.37V322.761H61.0544V358.233C59.4746 358.556 58.2399 359.79 57.9174 361.37C57.9174 361.371 57.9174 361.371 57.9174 361.372C57.4733 363.548 58.8786 365.672 61.0544 366.116C61.5724 366.219 62.1057 366.219 62.6237 366.116C64.8115 365.682 66.2336 363.558 65.8001 361.37C65.4775 359.79 64.2428 358.556 62.6631 358.233V324.37H73.924V361.37V374.24H61.0544H49.7934V361.37V322.761H11.1843V272.891H24.054ZM7.96692 233.478C7.96692 232.145 9.04717 231.065 10.38 231.065C11.7128 231.065 12.7931 232.145 12.7931 233.478C12.7931 234.811 11.7128 235.891 10.38 235.891C9.04717 235.891 7.96692 234.811 7.96692 233.478ZM64.135 361.37C64.32 361.891 64.32 362.461 64.135 362.983C63.6894 364.239 62.3108 364.896 61.0544 364.451C61.0536 364.451 61.0527 364.45 61.0519 364.45C59.7955 364.005 59.1376 362.627 59.5824 361.37C59.8253 360.682 60.3666 360.141 61.0544 359.898C61.0552 359.898 61.056 359.897 61.0568 359.897C62.3132 359.454 63.6918 360.114 64.135 361.37Z" fill="black" fill-opacity="0.3"/>
<g filter="url(#filter2_i_140_5864)">
<circle cx="164.5" cy="132.5" r="132.5" fill="url(#paint2_radial_140_5864)"/>
</g>
</g>
<g filter="url(#filter3_di_140_5864)">
<circle cx="164.5" cy="132.5" r="68.7037" fill="url(#paint3_radial_140_5864)"/>
<circle cx="164.5" cy="132.5" r="56.4352" stroke="black" stroke-opacity="0.1" stroke-width="24.537" stroke-dasharray="3.68 3.68"/>
</g>
<circle cx="164.5" cy="132.5" r="34.3519" fill="url(#paint4_linear_140_5864)"/>
<circle opacity="0.5" cx="202.532" cy="99.375" r="12.2685" fill="white"/>
<circle opacity="0.5" cx="177.996" cy="117.778" r="6.13426" fill="white"/>
<defs>
<filter id="filter0_f_140_5864" x="0.919968" y="38.8501" width="327.16" height="327.161" filterUnits="userSpaceOnUse" color-interpolation-filters="sRGB">
<feFlood flood-opacity="0" result="BackgroundImageFix"/>
<feBlend mode="normal" in="SourceGraphic" in2="BackgroundImageFix" result="shape"/>
<feGaussianBlur stdDeviation="35.7832" result="effect1_foregroundBlur_140_5864"/>
</filter>
<filter id="filter1_di_140_5864" x="2.55556" y="-41.713" width="323.889" height="323.889" filterUnits="userSpaceOnUse" color-interpolation-filters="sRGB">
<feFlood flood-opacity="0" result="BackgroundImageFix"/>
<feColorMatrix in="SourceAlpha" type="matrix" values="0 0 0 0 0 0 0 0 0 0 0 0 0 0 0 0 0 0 127 0" result="hardAlpha"/>
<feOffset dy="-12.2685"/>
<feGaussianBlur stdDeviation="14.7222"/>
<feComposite in2="hardAlpha" operator="out"/>
<feColorMatrix type="matrix" values="0 0 0 0 0 0 0 0 0 0 0 0 0 0 0 0 0 0 0.12 0"/>
<feBlend mode="normal" in2="BackgroundImageFix" result="effect1_dropShadow_140_5864"/>
<feBlend mode="normal" in="SourceGraphic" in2="effect1_dropShadow_140_5864" result="shape"/>
<feColorMatrix in="SourceAlpha" type="matrix" values="0 0 0 0 0 0 0 0 0 0 0 0 0 0 0 0 0 0 127 0" result="hardAlpha"/>
<feOffset dy="-31.8981"/>
<feGaussianBlur stdDeviation="14.7222"/>
<feComposite in2="hardAlpha" operator="arithmetic" k2="-1" k3="1"/>
<feColorMatrix type="matrix" values="0 0 0 0 1 0 0 0 0 1 0 0 0 0 1 0 0 0 1 0"/>
<feBlend mode="normal" in2="shape" result="effect2_innerShadow_140_5864"/>
</filter>
<filter id="filter2_i_140_5864" x="32" y="0" width="265" height="265" filterUnits="userSpaceOnUse" color-interpolation-filters="sRGB">
<feFlood flood-opacity="0" result="BackgroundImageFix"/>
<feBlend mode="normal" in="SourceGraphic" in2="BackgroundImageFix" result="shape"/>
<feColorMatrix in="SourceAlpha" type="matrix" values="0 0 0 0 0 0 0 0 0 0 0 0 0 0 0 0 0 0 127 0" result="hardAlpha"/>
<feMorphology radius="14.7222" operator="erode" in="SourceAlpha" result="effect1_innerShadow_140_5864"/>
<feOffset/>
<feGaussianBlur stdDeviation="13.4954"/>
<feComposite in2="hardAlpha" operator="arithmetic" k2="-1" k3="1"/>
<feColorMatrix type="matrix" values="0 0 0 0 1 0 0 0 0 1 0 0 0 0 1 0 0 0 1 0"/>
<feBlend mode="normal" in2="shape" result="effect1_innerShadow_140_5864"/>
</filter>
<filter id="filter3_di_140_5864" x="71.2589" y="39.2589" width="186.481" height="186.481" filterUnits="userSpaceOnUse" color-interpolation-filters="sRGB">
<feFlood flood-opacity="0" result="BackgroundImageFix"/>
<feColorMatrix in="SourceAlpha" type="matrix" values="0 0 0 0 0 0 0 0 0 0 0 0 0 0 0 0 0 0 127 0" result="hardAlpha"/>
<feMorphology radius="12.2685" operator="dilate" in="SourceAlpha" result="effect1_dropShadow_140_5864"/>
<feOffset/>
<feGaussianBlur stdDeviation="6.13426"/>
<feComposite in2="hardAlpha" operator="out"/>
<feColorMatrix type="matrix" values="0 0 0 0 1 0 0 0 0 1 0 0 0 0 1 0 0 0 0.25 0"/>
<feBlend mode="normal" in2="BackgroundImageFix" result="effect1_dropShadow_140_5864"/>
<feBlend mode="normal" in="SourceGraphic" in2="effect1_dropShadow_140_5864" result="shape"/>
<feColorMatrix in="SourceAlpha" type="matrix" values="0 0 0 0 0 0 0 0 0 0 0 0 0 0 0 0 0 0 127 0" result="hardAlpha"/>
<feOffset dy="-7.36111"/>
<feGaussianBlur stdDeviation="4.90741"/>
<feComposite in2="hardAlpha" operator="arithmetic" k2="-1" k3="1"/>
<feColorMatrix type="matrix" values="0 0 0 0 1 0 0 0 0 1 0 0 0 0 1 0 0 0 0.5 0"/>
<feBlend mode="normal" in2="shape" result="effect2_innerShadow_140_5864"/>
</filter>
<radialGradient id="paint0_radial_140_5864" cx="0" cy="0" r="1" gradientUnits="userSpaceOnUse" gradientTransform="translate(164.5) rotate(90) scale(265)">
<stop stop-color="white"/>
<stop offset="1" stop-color="#DBDBDB"/>
</radialGradient>
<radialGradient id="paint1_radial_140_5864" cx="0" cy="0" r="1" gradientUnits="userSpaceOnUse" gradientTransform="translate(164.5) rotate(90) scale(265)">
<stop stop-color="white"/>
<stop offset="1" stop-color="#DBDBDB"/>
</radialGradient>
<radialGradient id="paint2_radial_140_5864" cx="0" cy="0" r="1" gradientUnits="userSpaceOnUse" gradientTransform="translate(159.593 126.366) rotate(87.9727) scale(138.721)">
<stop stop-color="white" stop-opacity="0.7"/>
<stop offset="1" stop-color="#DBDBDB" stop-opacity="0.9"/>
</radialGradient>
<radialGradient id="paint3_radial_140_5864" cx="0" cy="0" r="1" gradientUnits="userSpaceOnUse" gradientTransform="translate(164.5 63.7959) rotate(90) scale(137.407)">
<stop stop-color="#67BFFF"/>
<stop offset="1" stop-color="#0075FF"/>
</radialGradient>
<linearGradient id="paint4_linear_140_5864" x1="164.5" y1="98.1484" x2="164.5" y2="213.473" gradientUnits="userSpaceOnUse">
<stop offset="0.177083" stop-color="#050505"/>
<stop offset="1" stop-color="#050505" stop-opacity="0"/>
</linearGradient>
</defs>
</svg>
