<svg width="512" height="512" viewBox="0 0 512 512" fill="none" xmlns="http://www.w3.org/2000/svg">
<g clip-path="url(#clip0_205_4833)">
<g filter="url(#filter0_d_205_4833)">
<mask id="mask0_205_4833" style="mask-type:alpha" maskUnits="userSpaceOnUse" x="44" y="42" width="423" height="423">
<circle cx="255.5" cy="253.5" r="211.5" fill="url(#paint0_radial_205_4833)"/>
</mask>
<g mask="url(#mask0_205_4833)">
<g filter="url(#filter1_di_205_4833)">
<circle cx="255.5" cy="253.5" r="211.5" fill="url(#paint1_radial_205_4833)"/>
</g>
<path d="M112.203 336.365C114.331 336.365 116.055 334.64 116.055 332.513C116.055 330.386 114.331 328.661 112.203 328.661C110.076 328.661 108.352 330.386 108.352 332.513C108.352 334.64 110.076 336.365 112.203 336.365Z" fill="black" fill-opacity="0.3"/>
<path d="M358.719 172.02C360.846 172.02 362.571 170.295 362.571 168.168C362.571 166.041 360.846 164.316 358.719 164.316C356.592 164.316 354.867 166.041 354.867 168.168C354.867 170.295 356.592 172.02 358.719 172.02Z" fill="black" fill-opacity="0.3"/>
<path d="M132.746 48.7627C134.874 48.7627 136.598 47.0382 136.598 44.9109C136.598 42.7836 134.874 41.0591 132.746 41.0591C130.619 41.0591 128.895 42.7836 128.895 44.9109C128.895 47.0382 130.619 48.7627 132.746 48.7627Z" fill="black" fill-opacity="0.3"/>
<path d="M50.5745 89.8486C52.7017 89.8486 54.4263 88.1241 54.4263 85.9968C54.4263 83.8695 52.7017 82.145 50.5745 82.145C48.4472 82.145 46.7227 83.8695 46.7227 85.9968C46.7227 88.1241 48.4472 89.8486 50.5745 89.8486Z" fill="black" fill-opacity="0.3"/>
<path d="M50.5745 295.278C52.7017 295.278 54.4263 293.553 54.4263 291.426C54.4263 289.299 52.7017 287.574 50.5745 287.574C48.4472 287.574 46.7227 289.299 46.7227 291.426C46.7227 293.553 48.4472 295.278 50.5745 295.278Z" fill="black" fill-opacity="0.3"/>
<path d="M112.203 274.735C114.331 274.735 116.055 273.011 116.055 270.884C116.055 268.756 114.331 267.032 112.203 267.032C110.076 267.032 108.352 268.756 108.352 270.884C108.352 273.011 110.076 274.735 112.203 274.735Z" fill="black" fill-opacity="0.3"/>
<path d="M90.381 226.162C90.3798 226.162 90.3784 226.163 90.3771 226.163C89.2794 226.551 88.4153 227.415 88.0276 228.513C87.3176 230.518 88.3677 232.719 90.3732 233.429C90.3745 233.429 90.3758 233.43 90.3771 233.43C92.3826 234.141 94.5832 233.091 95.2945 231.087C95.5898 230.254 95.5898 229.346 95.2945 228.513C94.5871 226.507 92.3865 225.454 90.381 226.162Z" fill="black" fill-opacity="0.3"/>
<path d="M338.176 48.7627C340.303 48.7627 342.028 47.0382 342.028 44.9109C342.028 42.7836 340.303 41.0591 338.176 41.0591C336.049 41.0591 334.324 42.7836 334.324 44.9109C334.324 47.0382 336.049 48.7627 338.176 48.7627Z" fill="black" fill-opacity="0.3"/>
<path d="M338.176 130.935C340.303 130.935 342.028 129.211 342.028 127.083C342.028 124.956 340.303 123.231 338.176 123.231C336.049 123.231 334.324 124.956 334.324 127.083C334.324 129.211 336.049 130.935 338.176 130.935Z" fill="black" fill-opacity="0.3"/>
<path d="M276.547 89.8486C278.674 89.8486 280.399 88.1241 280.399 85.9968C280.399 83.8695 278.674 82.145 276.547 82.145C274.42 82.145 272.695 83.8695 272.695 85.9968C272.695 88.1241 274.42 89.8486 276.547 89.8486Z" fill="black" fill-opacity="0.3"/>
<path d="M276.547 130.935C278.674 130.935 280.399 129.211 280.399 127.083C280.399 124.956 278.674 123.231 276.547 123.231C274.42 123.231 272.695 124.956 272.695 127.083C272.695 129.211 274.42 130.935 276.547 130.935Z" fill="black" fill-opacity="0.3"/>
<path d="M256.004 130.935C258.131 130.935 259.856 129.211 259.856 127.083C259.856 124.956 258.131 123.231 256.004 123.231C253.877 123.231 252.152 124.956 252.152 127.083C252.152 129.211 253.877 130.935 256.004 130.935Z" fill="black" fill-opacity="0.3"/>
<path d="M194.375 48.7627C196.503 48.7627 198.227 47.0382 198.227 44.9109C198.227 42.7836 196.503 41.0591 194.375 41.0591C192.248 41.0591 190.523 42.7836 190.523 44.9109C190.523 47.0382 192.248 48.7627 194.375 48.7627Z" fill="black" fill-opacity="0.3"/>
<path d="M440.891 295.278C443.018 295.278 444.743 293.553 444.743 291.426C444.743 289.299 443.018 287.574 440.891 287.574C438.764 287.574 437.039 289.299 437.039 291.426C437.039 293.553 438.764 295.278 440.891 295.278Z" fill="black" fill-opacity="0.3"/>
<path d="M440.891 89.8486C443.018 89.8486 444.743 88.1241 444.743 85.9968C444.743 83.8695 443.018 82.145 440.891 82.145C438.764 82.145 437.039 83.8695 437.039 85.9968C437.039 88.1241 438.764 89.8486 440.891 89.8486Z" fill="black" fill-opacity="0.3"/>
<path d="M297.09 130.935C299.217 130.935 300.942 129.211 300.942 127.083C300.942 124.956 299.217 123.231 297.09 123.231C294.963 123.231 293.238 124.956 293.238 127.083C293.238 129.211 294.963 130.935 297.09 130.935Z" fill="black" fill-opacity="0.3"/>
<path d="M420.347 110.392C422.474 110.392 424.199 108.668 424.199 106.54C424.199 104.413 422.474 102.688 420.347 102.688C418.22 102.688 416.495 104.413 416.495 106.54C416.495 108.668 418.22 110.392 420.347 110.392Z" fill="black" fill-opacity="0.3"/>
<path d="M317.633 48.7627C319.76 48.7627 321.485 47.0382 321.485 44.9109C321.485 42.7836 319.76 41.0591 317.633 41.0591C315.506 41.0591 313.781 42.7836 313.781 44.9109C313.781 47.0382 315.506 48.7627 317.633 48.7627Z" fill="black" fill-opacity="0.3"/>
<path d="M235.461 151.478C237.588 151.478 239.313 149.754 239.313 147.626C239.313 145.499 237.588 143.774 235.461 143.774C233.334 143.774 231.609 145.499 231.609 147.626C231.609 149.754 233.334 151.478 235.461 151.478Z" fill="black" fill-opacity="0.3"/>
<path d="M461.433 274.735C463.56 274.735 465.285 273.011 465.285 270.884C465.285 268.756 463.56 267.032 461.433 267.032C459.306 267.032 457.581 268.756 457.581 270.884C457.581 273.011 459.306 274.735 461.433 274.735Z" fill="black" fill-opacity="0.3"/>
<path d="M338.176 151.478C340.303 151.478 342.028 149.754 342.028 147.626C342.028 145.499 340.303 143.774 338.176 143.774C336.049 143.774 334.324 145.499 334.324 147.626C334.324 149.754 336.049 151.478 338.176 151.478Z" fill="black" fill-opacity="0.3"/>
<path d="M214.918 69.3061C217.045 69.3061 218.77 67.5816 218.77 65.4543C218.77 63.327 217.045 61.6025 214.918 61.6025C212.791 61.6025 211.066 63.327 211.066 65.4543C211.066 67.5816 212.791 69.3061 214.918 69.3061Z" fill="black" fill-opacity="0.3"/>
<path d="M420.347 151.478C422.474 151.478 424.199 149.754 424.199 147.626C424.199 145.499 422.474 143.774 420.347 143.774C418.22 143.774 416.495 145.499 416.495 147.626C416.495 149.754 418.22 151.478 420.347 151.478Z" fill="black" fill-opacity="0.3"/>
<path d="M399.805 69.3061C401.932 69.3061 403.657 67.5816 403.657 65.4543C403.657 63.327 401.932 61.6025 399.805 61.6025C397.678 61.6025 395.953 63.327 395.953 65.4543C395.953 67.5816 397.678 69.3061 399.805 69.3061Z" fill="black" fill-opacity="0.3"/>
<path d="M420.347 130.935C422.474 130.935 424.199 129.211 424.199 127.083C424.199 124.956 422.474 123.231 420.347 123.231C418.22 123.231 416.495 124.956 416.495 127.083C416.495 129.211 418.22 130.935 420.347 130.935Z" fill="black" fill-opacity="0.3"/>
<path d="M420.347 274.735C422.474 274.735 424.199 273.011 424.199 270.884C424.199 268.756 422.474 267.032 420.347 267.032C418.22 267.032 416.495 268.756 416.495 270.884C416.495 273.011 418.22 274.735 420.347 274.735Z" fill="black" fill-opacity="0.3"/>
<path d="M153.289 274.735C155.417 274.735 157.141 273.011 157.141 270.884C157.141 268.756 155.417 267.032 153.289 267.032C151.162 267.032 149.438 268.756 149.438 270.884C149.438 273.011 151.162 274.735 153.289 274.735Z" fill="black" fill-opacity="0.3"/>
<path d="M173.832 213.105C175.96 213.105 177.684 211.381 177.684 209.254C177.684 207.126 175.96 205.402 173.832 205.402C171.705 205.402 169.98 207.126 169.98 209.254C169.98 211.381 171.705 213.105 173.832 213.105Z" fill="black" fill-opacity="0.3"/>
<path d="M358.719 192.563C360.846 192.563 362.571 190.839 362.571 188.712C362.571 186.584 360.846 184.86 358.719 184.86C356.592 184.86 354.867 186.584 354.867 188.712C354.867 190.839 356.592 192.563 358.719 192.563Z" fill="black" fill-opacity="0.3"/>
<path d="M153.289 254.192C155.417 254.192 157.141 252.468 157.141 250.341C157.141 248.213 155.417 246.489 153.289 246.489C151.162 246.489 149.438 248.213 149.438 250.341C149.438 252.468 151.162 254.192 153.289 254.192Z" fill="black" fill-opacity="0.3"/>
<path d="M153.289 130.935C155.417 130.935 157.141 129.211 157.141 127.083C157.141 124.956 155.417 123.231 153.289 123.231C151.162 123.231 149.438 124.956 149.438 127.083C149.438 129.211 151.162 130.935 153.289 130.935Z" fill="black" fill-opacity="0.3"/>
<path d="M112.203 89.8486C114.331 89.8486 116.055 88.1241 116.055 85.9968C116.055 83.8695 114.331 82.145 112.203 82.145C110.076 82.145 108.352 83.8695 108.352 85.9968C108.352 88.1241 110.076 89.8486 112.203 89.8486Z" fill="black" fill-opacity="0.3"/>
<path d="M112.203 69.3061C114.331 69.3061 116.055 67.5816 116.055 65.4543C116.055 63.327 114.331 61.6025 112.203 61.6025C110.076 61.6025 108.352 63.327 108.352 65.4543C108.352 67.5816 110.076 69.3061 112.203 69.3061Z" fill="black" fill-opacity="0.3"/>
<path d="M153.289 151.478C155.417 151.478 157.141 149.754 157.141 147.626C157.141 145.499 155.417 143.774 153.289 143.774C151.162 143.774 149.438 145.499 149.438 147.626C149.438 149.754 151.162 151.478 153.289 151.478Z" fill="black" fill-opacity="0.3"/>
<path d="M153.289 172.02C155.417 172.02 157.141 170.295 157.141 168.168C157.141 166.041 155.417 164.316 153.289 164.316C151.162 164.316 149.438 166.041 149.438 168.168C149.438 170.295 151.162 172.02 153.289 172.02Z" fill="black" fill-opacity="0.3"/>
<path d="M71.1174 274.735C73.2447 274.735 74.9692 273.011 74.9692 270.884C74.9692 268.756 73.2447 267.032 71.1174 267.032C68.9901 267.032 67.2656 268.756 67.2656 270.884C67.2656 273.011 68.9901 274.735 71.1174 274.735Z" fill="black" fill-opacity="0.3"/>
<path d="M297.09 295.278C299.217 295.278 300.942 293.553 300.942 291.426C300.942 289.299 299.217 287.574 297.09 287.574C294.963 287.574 293.238 289.299 293.238 291.426C293.238 293.553 294.963 295.278 297.09 295.278Z" fill="black" fill-opacity="0.3"/>
<path d="M112.203 439.079C114.331 439.079 116.055 437.354 116.055 435.227C116.055 433.1 114.331 431.375 112.203 431.375C110.076 431.375 108.352 433.1 108.352 435.227C108.352 437.354 110.076 439.079 112.203 439.079Z" fill="black" fill-opacity="0.3"/>
<path d="M379.261 213.105C381.388 213.105 383.113 211.381 383.113 209.254C383.113 207.126 381.388 205.402 379.261 205.402C377.134 205.402 375.409 207.126 375.409 209.254C375.409 211.381 377.134 213.105 379.261 213.105Z" fill="black" fill-opacity="0.3"/>
<path d="M112.203 459.622C114.331 459.622 116.055 457.897 116.055 455.77C116.055 453.642 114.331 451.918 112.203 451.918C110.076 451.918 108.352 453.642 108.352 455.77C108.352 457.897 110.076 459.622 112.203 459.622Z" fill="black" fill-opacity="0.3"/>
<path d="M399.805 418.536C401.932 418.536 403.657 416.811 403.657 414.684C403.657 412.557 401.932 410.832 399.805 410.832C397.678 410.832 395.953 412.557 395.953 414.684C395.953 416.811 397.678 418.536 399.805 418.536Z" fill="black" fill-opacity="0.3"/>
<path d="M234.183 226.159C233.081 226.547 232.214 227.413 231.828 228.514C231.122 230.52 232.176 232.72 234.183 233.425C236.189 234.131 238.389 233.077 239.095 231.07C239.386 230.243 239.386 229.341 239.095 228.514C238.389 226.507 236.189 225.453 234.183 226.159Z" fill="black" fill-opacity="0.3"/>
<path d="M276.547 315.821C278.674 315.821 280.399 314.097 280.399 311.969C280.399 309.842 278.674 308.118 276.547 308.118C274.42 308.118 272.695 309.842 272.695 311.969C272.695 314.097 274.42 315.821 276.547 315.821Z" fill="black" fill-opacity="0.3"/>
<path d="M235.461 254.192C237.588 254.192 239.313 252.468 239.313 250.341C239.313 248.213 237.588 246.489 235.461 246.489C233.334 246.489 231.609 248.213 231.609 250.341C231.609 252.468 233.334 254.192 235.461 254.192Z" fill="black" fill-opacity="0.3"/>
<path d="M256.004 397.992C258.131 397.992 259.856 396.268 259.856 394.14C259.856 392.013 258.131 390.289 256.004 390.289C253.877 390.289 252.152 392.013 252.152 394.14C252.152 396.268 253.877 397.992 256.004 397.992Z" fill="black" fill-opacity="0.3"/>
<path d="M297.09 254.192C299.217 254.192 300.942 252.468 300.942 250.341C300.942 248.213 299.217 246.489 297.09 246.489C294.963 246.489 293.238 248.213 293.238 250.341C293.238 252.468 294.963 254.192 297.09 254.192Z" fill="black" fill-opacity="0.3"/>
<path d="M358.719 254.192C360.846 254.192 362.571 252.468 362.571 250.341C362.571 248.213 360.846 246.489 358.719 246.489C356.592 246.489 354.867 248.213 354.867 250.341C354.867 252.468 356.592 254.192 358.719 254.192Z" fill="black" fill-opacity="0.3"/>
<path d="M173.832 397.992C175.96 397.992 177.684 396.268 177.684 394.14C177.684 392.013 175.96 390.289 173.832 390.289C171.705 390.289 169.98 392.013 169.98 394.14C169.98 396.268 171.705 397.992 173.832 397.992Z" fill="black" fill-opacity="0.3"/>
<path d="M235.461 356.907C237.588 356.907 239.313 355.182 239.313 353.055C239.313 350.928 237.588 349.203 235.461 349.203C233.334 349.203 231.609 350.928 231.609 353.055C231.609 355.182 233.334 356.907 235.461 356.907Z" fill="black" fill-opacity="0.3"/>
<path d="M214.918 336.365C217.045 336.365 218.77 334.64 218.77 332.513C218.77 330.386 217.045 328.661 214.918 328.661C212.791 328.661 211.066 330.386 211.066 332.513C211.066 334.64 212.791 336.365 214.918 336.365Z" fill="black" fill-opacity="0.3"/>
<path d="M235.461 274.735C237.588 274.735 239.313 273.011 239.313 270.884C239.313 268.756 237.588 267.032 235.461 267.032C233.334 267.032 231.609 268.756 231.609 270.884C231.609 273.011 233.334 274.735 235.461 274.735Z" fill="black" fill-opacity="0.3"/>
<path d="M256.004 274.735C258.131 274.735 259.856 273.011 259.856 270.884C259.856 268.756 258.131 267.032 256.004 267.032C253.877 267.032 252.152 268.756 252.152 270.884C252.152 273.011 253.877 274.735 256.004 274.735Z" fill="black" fill-opacity="0.3"/>
<path d="M379.261 254.192C381.388 254.192 383.113 252.468 383.113 250.341C383.113 248.213 381.388 246.489 379.261 246.489C377.134 246.489 375.409 248.213 375.409 250.341C375.409 252.468 377.134 254.192 379.261 254.192Z" fill="black" fill-opacity="0.3"/>
<path d="M399.805 254.192C401.932 254.192 403.657 252.468 403.657 250.341C403.657 248.213 401.932 246.489 399.805 246.489C397.678 246.489 395.953 248.213 395.953 250.341C395.953 252.468 397.678 254.192 399.805 254.192Z" fill="black" fill-opacity="0.3"/>
<path d="M420.347 254.192C422.474 254.192 424.199 252.468 424.199 250.341C424.199 248.213 422.474 246.489 420.347 246.489C418.22 246.489 416.495 248.213 416.495 250.341C416.495 252.468 418.22 254.192 420.347 254.192Z" fill="black" fill-opacity="0.3"/>
<path d="M132.746 110.392C134.874 110.392 136.598 108.668 136.598 106.54C136.598 104.413 134.874 102.688 132.746 102.688C130.619 102.688 128.895 104.413 128.895 106.54C128.895 108.668 130.619 110.392 132.746 110.392Z" fill="black" fill-opacity="0.3"/>
<path d="M112.203 48.7627C114.331 48.7627 116.055 47.0382 116.055 44.9109C116.055 42.7836 114.331 41.0591 112.203 41.0591C110.076 41.0591 108.352 42.7836 108.352 44.9109C108.352 47.0382 110.076 48.7627 112.203 48.7627Z" fill="black" fill-opacity="0.3"/>
<path d="M153.289 295.278C155.417 295.278 157.141 293.553 157.141 291.426C157.141 289.299 155.417 287.574 153.289 287.574C151.162 287.574 149.438 289.299 149.438 291.426C149.438 293.553 151.162 295.278 153.289 295.278Z" fill="black" fill-opacity="0.3"/>
<path d="M90.3767 356.689C92.3834 357.395 94.5829 356.339 95.289 354.334C95.9952 352.327 94.9397 350.128 92.9342 349.422C92.1073 349.13 91.2048 349.13 90.3779 349.422C88.3711 350.128 87.317 352.327 88.0232 354.334C88.4084 355.436 89.275 356.301 90.3767 356.689Z" fill="black" fill-opacity="0.3"/>
<path d="M132.746 315.821C134.874 315.821 136.598 314.097 136.598 311.969C136.598 309.842 134.874 308.118 132.746 308.118C130.619 308.118 128.895 309.842 128.895 311.969C128.895 314.097 130.619 315.821 132.746 315.821Z" fill="black" fill-opacity="0.3"/>
<path d="M71.1174 377.45C73.2447 377.45 74.9692 375.726 74.9692 373.598C74.9692 371.471 73.2447 369.747 71.1174 369.747C68.9901 369.747 67.2656 371.471 67.2656 373.598C67.2656 375.726 68.9901 377.45 71.1174 377.45Z" fill="black" fill-opacity="0.3"/>
<path d="M50.5745 397.992C52.7017 397.992 54.4263 396.268 54.4263 394.14C54.4263 392.013 52.7017 390.289 50.5745 390.289C48.4472 390.289 46.7227 392.013 46.7227 394.14C46.7227 396.268 48.4472 397.992 50.5745 397.992Z" fill="black" fill-opacity="0.3"/>
<path d="M461.433 377.45C463.56 377.45 465.285 375.726 465.285 373.598C465.285 371.471 463.56 369.747 461.433 369.747C459.306 369.747 457.581 371.471 457.581 373.598C457.581 375.726 459.306 377.45 461.433 377.45Z" fill="black" fill-opacity="0.3"/>
<path d="M317.633 397.992C319.76 397.992 321.485 396.268 321.485 394.14C321.485 392.013 319.76 390.289 317.633 390.289C315.506 390.289 313.781 392.013 313.781 394.14C313.781 396.268 315.506 397.992 317.633 397.992Z" fill="black" fill-opacity="0.3"/>
<path d="M440.891 397.992C443.018 397.992 444.743 396.268 444.743 394.14C444.743 392.013 443.018 390.289 440.891 390.289C438.764 390.289 437.039 392.013 437.039 394.14C437.039 396.268 438.764 397.992 440.891 397.992Z" fill="black" fill-opacity="0.3"/>
<path d="M317.633 439.079C319.76 439.079 321.485 437.354 321.485 435.227C321.485 433.1 319.76 431.375 317.633 431.375C315.506 431.375 313.781 433.1 313.781 435.227C313.781 437.354 315.506 439.079 317.633 439.079Z" fill="black" fill-opacity="0.3"/>
<path d="M214.918 459.622C217.045 459.622 218.77 457.897 218.77 455.77C218.77 453.642 217.045 451.918 214.918 451.918C212.791 451.918 211.066 453.642 211.066 455.77C211.066 457.897 212.791 459.622 214.918 459.622Z" fill="black" fill-opacity="0.3"/>
<path d="M194.375 439.079C196.503 439.079 198.227 437.354 198.227 435.227C198.227 433.1 196.503 431.375 194.375 431.375C192.248 431.375 190.523 433.1 190.523 435.227C190.523 437.354 192.248 439.079 194.375 439.079Z" fill="black" fill-opacity="0.3"/>
<path d="M256.004 377.45C258.131 377.45 259.856 375.726 259.856 373.598C259.856 371.471 258.131 369.747 256.004 369.747C253.877 369.747 252.152 371.471 252.152 373.598C252.152 375.726 253.877 377.45 256.004 377.45Z" fill="black" fill-opacity="0.3"/>
<path d="M153.289 418.536C155.417 418.536 157.141 416.811 157.141 414.684C157.141 412.557 155.417 410.832 153.289 410.832C151.162 410.832 149.438 412.557 149.438 414.684C149.438 416.811 151.162 418.536 153.289 418.536Z" fill="black" fill-opacity="0.3"/>
<path d="M338.176 377.45C340.303 377.45 342.028 375.726 342.028 373.598C342.028 371.471 340.303 369.747 338.176 369.747C336.049 369.747 334.324 371.471 334.324 373.598C334.324 375.726 336.049 377.45 338.176 377.45Z" fill="black" fill-opacity="0.3"/>
<path d="M420.347 418.536C422.474 418.536 424.199 416.811 424.199 414.684C424.199 412.557 422.474 410.832 420.347 410.832C418.22 410.832 416.495 412.557 416.495 414.684C416.495 416.811 418.22 418.536 420.347 418.536Z" fill="black" fill-opacity="0.3"/>
<path d="M214.918 356.907C217.045 356.907 218.77 355.182 218.77 353.055C218.77 350.928 217.045 349.203 214.918 349.203C212.791 349.203 211.066 350.928 211.066 353.055C211.066 355.182 212.791 356.907 214.918 356.907Z" fill="black" fill-opacity="0.3"/>
<path d="M317.633 418.536C319.76 418.536 321.485 416.811 321.485 414.684C321.485 412.557 319.76 410.832 317.633 410.832C315.506 410.832 313.781 412.557 313.781 414.684C313.781 416.811 315.506 418.536 317.633 418.536Z" fill="black" fill-opacity="0.3"/>
<path d="M132.746 439.079C134.874 439.079 136.598 437.354 136.598 435.227C136.598 433.1 134.874 431.375 132.746 431.375C130.619 431.375 128.895 433.1 128.895 435.227C128.895 437.354 130.619 439.079 132.746 439.079Z" fill="black" fill-opacity="0.3"/>
<path d="M338.176 439.079C340.303 439.079 342.028 437.354 342.028 435.227C342.028 433.1 340.303 431.375 338.176 431.375C336.049 431.375 334.324 433.1 334.324 435.227C334.324 437.354 336.049 439.079 338.176 439.079Z" fill="black" fill-opacity="0.3"/>
<path d="M399.805 459.622C401.932 459.622 403.657 457.897 403.657 455.77C403.657 453.642 401.932 451.918 399.805 451.918C397.678 451.918 395.953 453.642 395.953 455.77C395.953 457.897 397.678 459.622 399.805 459.622Z" fill="black" fill-opacity="0.3"/>
<path d="M542.32 133.373C545.794 134.082 549.185 131.841 549.893 128.367C550.602 124.893 548.362 121.502 544.887 120.793C541.413 120.084 538.022 122.325 537.314 125.799H480.692H426.638C426.124 123.277 424.154 121.308 421.632 120.793C418.158 120.084 414.767 122.325 414.059 125.799C413.35 129.273 415.59 132.664 419.065 133.373C422.539 134.082 425.93 131.841 426.638 128.367H480.692H537.314C537.828 130.889 539.798 132.858 542.32 133.373ZM543.605 123.231C545.732 123.231 547.457 124.956 547.457 127.083C547.457 129.211 545.732 130.935 543.605 130.935C541.477 130.935 539.753 129.211 539.753 127.083C539.753 124.956 541.477 123.231 543.605 123.231ZM420.347 130.935C418.22 130.935 416.495 129.211 416.495 127.083C416.495 124.956 418.22 123.231 420.347 123.231C422.475 123.231 424.199 124.956 424.199 127.083C424.199 129.211 422.475 130.935 420.347 130.935Z" fill="black" fill-opacity="0.3"/>
<path d="M524.346 -84.6347C520.871 -85.3435 517.481 -83.103 516.772 -79.6287C516.063 -76.1544 518.304 -72.7635 521.778 -72.0547V-48.058L480.692 -6.97225L460.149 13.5707V105.256H426.638C426.124 102.735 424.154 100.765 421.632 100.25C418.158 99.5415 414.767 101.782 414.059 105.256C413.35 108.731 415.59 112.122 419.065 112.83C422.539 113.539 425.93 111.299 426.638 107.824H462.717V14.6236L480.692 -3.35147L524.346 -47.0053V-72.0547C526.867 -72.5696 528.837 -74.5392 529.352 -77.0608C530.06 -80.5352 527.82 -83.926 524.346 -84.6347ZM420.347 110.392C418.22 110.392 416.495 108.668 416.495 106.54C416.495 104.413 418.22 102.688 420.347 102.688C422.475 102.688 424.199 104.413 424.199 106.54C424.199 108.668 422.475 110.392 420.347 110.392ZM523.062 -74.4942C520.934 -74.4942 519.21 -76.2186 519.21 -78.346C519.21 -80.4735 520.934 -82.1978 523.062 -82.1978C525.189 -82.1978 526.914 -80.4735 526.914 -78.346C526.914 -76.2186 525.189 -74.4942 523.062 -74.4942Z" fill="black" fill-opacity="0.3"/>
<path d="M524.346 279.614V228.513V147.626V146.342H480.692H426.639C426.124 143.82 424.154 141.85 421.633 141.335C418.158 140.627 414.768 142.867 414.059 146.342C413.35 149.816 415.591 153.207 419.065 153.916C422.539 154.624 425.93 152.384 426.639 148.909H480.692H521.778V228.513V280.628L491.721 310.685H480.692H421.631V277.174C424.153 276.659 426.123 274.69 426.637 272.168C427.346 268.694 425.106 265.303 421.631 264.594C418.157 263.886 414.766 266.126 414.058 269.6C413.349 273.075 415.589 276.466 419.064 277.174V313.253H480.692H492.774L524.346 281.681V279.614ZM420.348 151.477C418.22 151.477 416.496 149.753 416.496 147.626C416.496 145.498 418.22 143.774 420.348 143.774C422.475 143.774 424.199 145.498 424.199 147.626C424.199 149.753 422.475 151.477 420.348 151.477ZM416.496 270.883C416.496 268.756 418.22 267.031 420.348 267.031C422.475 267.031 424.199 268.756 424.199 270.883C424.199 273.011 422.475 274.735 420.348 274.735C418.22 274.735 416.496 273.011 416.496 270.883Z" fill="black" fill-opacity="0.3"/>
<path d="M213.635 -161.802V-100.173H172.549V-27.5151L110.92 34.1136V38.6203C108.399 39.1351 106.429 41.1047 105.914 43.6264C105.205 47.1007 107.446 50.4915 110.92 51.2002C114.395 51.9089 117.785 49.6686 118.494 46.1942C119.203 42.7199 116.962 39.329 113.488 38.6203V35.1666L175.117 -26.4623V-97.605H216.203V-161.802V-179.777H372.971C373.486 -177.255 375.455 -175.285 377.977 -174.771C381.451 -174.062 384.842 -176.302 385.551 -179.777C386.259 -183.251 384.019 -186.642 380.545 -187.351C377.07 -188.059 373.68 -185.819 372.971 -182.345H213.635V-161.802ZM116.056 44.9116C116.056 47.039 114.332 48.7634 112.204 48.7634C110.077 48.7634 108.352 47.039 108.352 44.9116C108.352 42.7841 110.077 41.0598 112.204 41.0598C114.332 41.0598 116.056 42.7841 116.056 44.9116ZM379.262 -184.912C381.39 -184.912 383.114 -183.188 383.114 -181.061C383.114 -178.933 381.39 -177.209 379.262 -177.209C377.135 -177.209 375.41 -178.933 375.41 -181.061C375.41 -183.188 377.135 -184.912 379.262 -184.912Z" fill="black" fill-opacity="0.3"/>
<path d="M110.921 92.2867C114.395 92.9954 117.786 90.7549 118.495 87.2805H142.492L172.549 117.337V146.341H159.581C159.066 143.82 157.096 141.85 154.575 141.335C151.1 140.627 147.71 142.867 147.001 146.341C146.292 149.816 148.533 153.207 152.007 153.915C155.481 154.624 158.872 152.384 159.581 148.909H175.116V116.285L143.545 84.7127H118.495C117.98 82.191 116.011 80.2214 113.489 79.7066C110.015 78.9978 106.624 81.2384 105.915 84.7127C105.206 88.187 107.447 91.5779 110.921 92.2867ZM153.29 151.477C151.162 151.477 149.438 149.753 149.438 147.625C149.438 145.498 151.162 143.774 153.29 143.774C155.417 143.774 157.141 145.498 157.141 147.625C157.141 149.753 155.417 151.477 153.29 151.477ZM112.204 82.1448C114.331 82.1448 116.056 83.8691 116.056 85.9966C116.056 88.1241 114.331 89.8484 112.204 89.8484C110.076 89.8484 108.352 88.1241 108.352 85.9966C108.352 83.8691 110.076 82.1448 112.204 82.1448Z" fill="black" fill-opacity="0.3"/>
<path d="M295.806 -6.97297V120.791C293.284 121.306 291.315 123.276 290.8 125.797C290.091 129.272 292.332 132.662 295.806 133.371C299.28 134.08 302.671 131.84 303.38 128.365C304.089 124.891 301.848 121.5 298.374 120.791V-5.92005L328.431 -35.977H475.685C476.199 -33.4553 478.171 -31.4845 480.692 -30.9696C481.115 -30.8836 481.546 -30.84 481.977 -30.84C485.522 -30.8413 488.397 -33.716 488.396 -37.2609C488.395 -37.673 488.352 -38.0851 488.271 -38.4896C487.577 -41.9806 484.183 -44.2481 480.692 -43.5522C478.171 -43.0373 476.199 -41.0665 475.685 -38.5448H327.378L295.806 -6.97297ZM300.942 127.083C300.942 129.21 299.217 130.934 297.09 130.934C294.962 130.934 293.238 129.21 293.238 127.083C293.238 124.955 294.962 123.231 297.09 123.231C299.217 123.231 300.942 124.955 300.942 127.083ZM480.692 -40.8944C481.519 -41.1859 482.422 -41.1859 483.249 -40.8944C485.255 -40.1883 486.309 -37.9889 485.603 -35.9821C484.897 -33.9753 482.698 -32.9212 480.691 -33.6273C479.589 -34.0151 478.723 -34.8818 478.336 -35.9821C477.631 -37.9889 478.685 -40.1883 480.692 -40.8944Z" fill="black" fill-opacity="0.3"/>
<path d="M315.822 -59.0872L275.263 -18.5277V79.7059C272.741 80.2208 270.772 82.1904 270.257 84.7121C269.548 88.1864 271.789 91.5772 275.263 92.2859C278.737 92.9946 282.128 90.7542 282.837 87.2799C283.546 83.8056 281.305 80.4147 277.831 79.7059V-17.4749L316.875 -56.5193H380.545V-133.684C383.067 -134.198 385.037 -136.168 385.551 -138.69C386.26 -142.164 384.02 -145.555 380.545 -146.264C377.071 -146.972 373.68 -144.732 372.971 -141.258C372.263 -137.783 374.503 -134.392 377.978 -133.684V-59.0872H315.822ZM280.399 85.9972C280.399 88.1247 278.674 89.849 276.547 89.849C274.419 89.849 272.695 88.1247 272.695 85.9972C272.695 83.8698 274.419 82.1454 276.547 82.1454C278.674 82.1454 280.399 83.8698 280.399 85.9972ZM375.41 -139.975C375.41 -142.102 377.134 -143.827 379.262 -143.827C381.389 -143.827 383.113 -142.102 383.113 -139.975C383.113 -137.847 381.389 -136.123 379.262 -136.123C377.134 -136.123 375.41 -137.847 375.41 -139.975Z" fill="black" fill-opacity="0.3"/>
<path d="M434.6 84.7123C433.892 88.1866 436.132 91.5774 439.606 92.2861C443.081 92.9948 446.471 90.7545 447.18 87.2801C447.889 83.8058 445.648 80.4149 442.174 79.7061V23.0847H426.638C426.124 20.5631 424.154 18.5935 421.632 18.0786C418.158 17.3699 414.767 19.6104 414.059 23.0847C413.35 26.5591 415.59 29.95 419.065 30.6587C422.539 31.3675 425.93 29.1269 426.638 25.6526H439.606V79.7061C437.085 80.221 435.115 82.1906 434.6 84.7123ZM420.347 28.2205C418.22 28.2205 416.495 26.4962 416.495 24.3687C416.495 22.2412 418.22 20.5169 420.347 20.5169C422.475 20.5169 424.199 22.2412 424.199 24.3687C424.199 26.4962 422.475 28.2205 420.347 28.2205ZM440.89 82.1457C443.018 82.1457 444.742 83.87 444.742 85.9974C444.742 88.1249 443.018 89.8492 440.89 89.8492C438.763 89.8492 437.038 88.1249 437.038 85.9974C437.038 83.87 438.763 82.1457 440.89 82.1457Z" fill="black" fill-opacity="0.3"/>
<path d="M421.631 87.2809V43.6272H401.088V30.6596C403.61 30.1447 405.58 28.1751 406.094 25.6534C406.803 22.1791 404.563 18.7883 401.088 18.0796C397.614 17.3709 394.223 19.6113 393.515 23.0856C392.806 26.5599 395.046 29.9508 398.521 30.6596V46.1951H419.064V84.7131H398.521V169.453H460.149V228.514V251.624H480.692H502.519H503.803V228.514V166.885H480.692V223.506C478.171 224.021 476.199 225.992 475.685 228.514C475.685 228.515 475.685 228.515 475.685 228.516C474.976 231.99 477.219 235.38 480.692 236.089C481.519 236.253 482.37 236.253 483.197 236.089C486.689 235.397 488.959 232.006 488.266 228.514C487.753 225.992 485.781 224.021 483.259 223.506V169.453H501.234V228.514V249.056H480.691H462.716V228.514V166.885H401.087V87.2809H421.631ZM395.953 24.3683C395.953 22.2408 397.677 20.5165 399.805 20.5165C401.932 20.5165 403.656 22.2408 403.656 24.3683C403.656 26.4957 401.932 28.2201 399.805 28.2201C397.677 28.2201 395.953 26.4957 395.953 24.3683ZM485.61 228.514C485.905 229.346 485.905 230.255 485.61 231.088C484.899 233.093 482.697 234.142 480.692 233.431C480.691 233.431 480.69 233.43 480.689 233.43C478.683 232.72 477.633 230.519 478.343 228.514C478.73 227.416 479.595 226.552 480.692 226.164C480.694 226.164 480.695 226.163 480.696 226.163C482.702 225.455 484.902 226.508 485.61 228.514Z" fill="black" fill-opacity="0.3"/>
<path d="M152.004 133.373C155.478 134.082 158.869 131.841 159.578 128.367C160.287 124.893 158.046 121.502 154.572 120.793C151.098 120.084 147.707 122.325 146.998 125.799H90.3767H36.3231C35.8083 123.277 33.8387 121.308 31.317 120.793C27.8427 120.084 24.4519 122.325 23.7432 125.799C23.0345 129.273 25.2748 132.664 28.7491 133.373C32.2235 134.082 35.6144 131.841 36.3231 128.367H90.3767H146.998C147.513 130.889 149.483 132.858 152.004 133.373ZM153.289 123.231C155.417 123.231 157.141 124.956 157.141 127.083C157.141 129.211 155.417 130.935 153.289 130.935C151.162 130.935 149.438 129.211 149.438 127.083C149.438 124.956 151.162 123.231 153.289 123.231ZM30.0318 130.935C27.9044 130.935 26.18 129.211 26.18 127.083C26.18 124.956 27.9044 123.231 30.0318 123.231C32.1593 123.231 33.8836 124.956 33.8836 127.083C33.8836 129.211 32.1593 130.935 30.0318 130.935Z" fill="black" fill-opacity="0.3"/>
<path d="M331.886 125.798C331.177 129.273 333.418 132.663 336.892 133.372C340.366 134.081 343.757 131.84 344.466 128.366C345.175 124.892 342.934 121.501 339.46 120.792V51.203C341.981 50.6882 343.951 48.7185 344.466 46.1969C345.175 42.7226 342.934 39.3318 339.46 38.6231C335.985 37.9143 332.594 40.1547 331.886 43.629C331.177 47.1034 333.418 50.4943 336.892 51.203V120.792C334.37 121.307 332.401 123.277 331.886 125.798ZM334.324 44.9117C334.324 42.7842 336.048 41.0599 338.176 41.0599C340.303 41.0599 342.028 42.7842 342.028 44.9117C342.028 47.0392 340.303 48.7635 338.176 48.7635C336.048 48.7635 334.324 47.0392 334.324 44.9117ZM338.176 123.232C340.303 123.232 342.028 124.956 342.028 127.083C342.028 129.211 340.303 130.935 338.176 130.935C336.048 130.935 334.324 129.211 334.324 127.083C334.324 124.956 336.048 123.232 338.176 123.232Z" fill="black" fill-opacity="0.3"/>
<path d="M336.893 153.916C340.367 154.625 343.758 152.384 344.467 148.91H360.002V46.1955H380.545V23.0847H323.924C323.409 20.5631 321.439 18.5935 318.918 18.0786C315.443 17.3699 312.053 19.6104 311.344 23.0847C310.635 26.5591 312.875 29.95 316.35 30.6587C319.824 31.3675 323.215 29.1269 323.924 25.6526H377.977V43.6277H357.434V146.342H344.467C343.952 143.821 341.982 141.851 339.461 141.336C335.986 140.627 332.595 142.868 331.887 146.342C331.178 149.817 333.418 153.208 336.893 153.916ZM317.632 28.2205C315.505 28.2205 313.781 26.4962 313.781 24.3687C313.781 22.2412 315.505 20.5169 317.632 20.5169C319.76 20.5169 321.484 22.2412 321.484 24.3687C321.484 26.4962 319.76 28.2205 317.632 28.2205ZM338.175 143.774C340.303 143.774 342.027 145.499 342.027 147.626C342.027 149.754 340.303 151.478 338.175 151.478C336.048 151.478 334.324 149.754 334.324 147.626C334.324 145.499 336.048 143.774 338.175 143.774Z" fill="black" fill-opacity="0.3"/>
<path d="M90.377 23.8421V107.824H126.455C126.97 110.346 128.94 112.315 131.462 112.83C134.936 113.539 138.327 111.298 139.035 107.824C139.744 104.35 137.504 100.959 134.029 100.25C130.555 99.5414 127.164 101.782 126.455 105.256H92.9448V24.895L154.574 -36.7339V-92.5977C157.095 -93.1126 159.065 -95.0822 159.58 -97.6038C160.288 -101.078 158.048 -104.469 154.574 -105.178C151.099 -105.886 147.708 -103.646 147 -100.172C146.291 -96.6974 148.531 -93.3064 152.006 -92.5977V-37.7866L90.377 23.8421ZM132.747 102.688C134.874 102.688 136.599 104.413 136.599 106.54C136.599 108.668 134.874 110.392 132.747 110.392C130.619 110.392 128.895 108.668 128.895 106.54C128.895 104.413 130.619 102.688 132.747 102.688ZM149.438 -98.889C149.438 -101.016 151.162 -102.741 153.29 -102.741C155.417 -102.741 157.141 -101.016 157.141 -98.889C157.141 -96.7615 155.417 -95.0372 153.29 -95.0372C151.162 -95.0372 149.438 -96.7615 149.438 -98.889Z" fill="black" fill-opacity="0.3"/>
<path d="M134.032 38.6211C130.558 37.9124 127.167 40.1529 126.458 43.6272C125.749 47.1016 127.99 50.4925 131.464 51.2012C134.938 51.9099 138.329 49.6694 139.038 46.1951H163.047L213.634 96.7821V169.453H352.428C352.942 171.974 354.912 173.944 357.434 174.459C360.908 175.167 364.299 172.927 365.007 169.453C365.716 165.978 363.476 162.587 360.002 161.879C356.527 161.17 353.136 163.41 352.428 166.885H216.202V95.7549L164.075 43.6272H139.038C138.523 41.1056 136.554 39.136 134.032 38.6211ZM132.747 48.763C130.619 48.763 128.895 47.0386 128.895 44.9112C128.895 42.7837 130.619 41.0594 132.747 41.0594C134.874 41.0594 136.598 42.7837 136.598 44.9112C136.598 47.0386 134.874 48.763 132.747 48.763ZM358.719 164.317C360.846 164.317 362.571 166.041 362.571 168.169C362.571 170.296 360.846 172.02 358.719 172.02C356.591 172.02 354.867 170.296 354.867 168.169C354.867 166.041 356.591 164.317 358.719 164.317Z" fill="black" fill-opacity="0.3"/>
<path d="M134.03 -84.6347C130.556 -85.3435 127.165 -83.103 126.456 -79.6287C125.748 -76.1544 127.988 -72.7635 131.463 -72.0547V-48.058L90.3767 -6.97225L69.8337 13.5707V105.256H36.3231C35.8083 102.735 33.8387 100.765 31.317 100.25C27.8427 99.5415 24.4519 101.782 23.7432 105.256C23.0345 108.731 25.2748 112.122 28.7491 112.83C32.2235 113.539 35.6144 111.299 36.3231 107.824H72.4016V14.6236L90.3767 -3.35147L134.03 -47.0053V-72.0547C136.552 -72.5696 138.522 -74.5392 139.037 -77.0608C139.745 -80.5352 137.505 -83.926 134.03 -84.6347ZM30.0318 110.392C27.9044 110.392 26.18 108.668 26.18 106.54C26.18 104.413 27.9044 102.688 30.0318 102.688C32.1593 102.688 33.8836 104.413 33.8836 106.54C33.8836 108.668 32.1593 110.392 30.0318 110.392ZM132.746 -74.4942C130.619 -74.4942 128.895 -76.2186 128.895 -78.346C128.895 -80.4735 130.619 -82.1978 132.746 -82.1978C134.874 -82.1978 136.598 -80.4735 136.598 -78.346C136.598 -76.2186 134.874 -74.4942 132.746 -74.4942Z" fill="black" fill-opacity="0.3"/>
<path d="M113.489 59.1646C110.015 58.4558 106.624 60.6964 105.915 64.1707C105.206 67.645 107.447 71.0359 110.921 71.7447C114.395 72.4534 117.786 70.2129 118.495 66.7386H152.763L193.091 107.067V166.885H159.581C159.066 164.364 157.096 162.394 154.575 161.879C151.1 161.17 147.71 163.411 147.001 166.885C146.292 170.36 148.533 173.751 152.007 174.459C155.481 175.168 158.872 172.927 159.581 169.453H195.659V106.014L153.816 64.1707H118.495C117.98 61.649 116.011 59.6794 113.489 59.1646ZM112.204 69.3064C110.076 69.3064 108.352 67.5821 108.352 65.4546C108.352 63.3271 110.076 61.6028 112.204 61.6028C114.331 61.6028 116.056 63.3271 116.056 65.4546C116.056 67.5821 114.331 69.3064 112.204 69.3064ZM153.29 172.021C151.162 172.021 149.438 170.297 149.438 168.169C149.438 166.042 151.162 164.317 153.29 164.317C155.417 164.317 157.141 166.042 157.141 168.169C157.141 170.297 155.417 172.021 153.29 172.021Z" fill="black" fill-opacity="0.3"/>
<path d="M195.661 38.6214C192.186 37.9127 188.796 40.1532 188.087 43.6275C187.378 47.1018 189.619 50.4928 193.093 51.2015C196.567 51.9102 199.958 49.6697 200.667 46.1954H236.745V-15.4334H249.713C250.228 -12.9118 252.198 -10.9421 254.719 -10.4273C258.193 -9.71855 261.584 -11.9591 262.293 -15.4334C263.002 -18.9077 260.761 -22.2986 257.287 -23.0073C253.813 -23.716 250.422 -21.4756 249.713 -18.0013H234.177V43.6275H200.667C200.152 41.1059 198.182 39.1362 195.661 38.6214ZM194.376 48.7632C192.248 48.7632 190.524 47.0389 190.524 44.9114C190.524 42.784 192.248 41.0596 194.376 41.0596C196.503 41.0596 198.227 42.784 198.227 44.9114C198.227 47.0389 196.503 48.7632 194.376 48.7632ZM256.004 -20.5691C258.132 -20.5691 259.856 -18.8448 259.856 -16.7173C259.856 -14.5899 258.132 -12.8655 256.004 -12.8655C253.877 -12.8655 252.153 -14.5899 252.153 -16.7173C252.153 -18.8448 253.877 -20.5691 256.004 -20.5691Z" fill="black" fill-opacity="0.3"/>
<path d="M270.257 125.798C269.548 129.272 271.789 132.663 275.263 133.371C278.737 134.08 282.128 131.84 282.837 128.365C283.546 124.891 281.305 121.5 277.831 120.792V105.256H257.288V10.1166C259.81 9.60173 261.779 7.63211 262.294 5.11047C263.003 1.63615 260.762 -1.75462 257.288 -2.46335C253.814 -3.17208 250.423 -0.931717 249.714 2.54261C249.005 6.01693 251.246 9.40785 254.72 10.1166V107.824H275.263V120.792C272.741 121.306 270.772 123.276 270.257 125.798ZM252.152 3.82528C252.152 1.69781 253.876 -0.0265137 256.004 -0.0265137C258.131 -0.0265137 259.856 1.69781 259.856 3.82528C259.856 5.95276 258.131 7.67708 256.004 7.67708C253.876 7.67708 252.152 5.95276 252.152 3.82528ZM276.547 123.231C278.674 123.231 280.399 124.955 280.399 127.083C280.399 129.21 278.674 130.935 276.547 130.935C274.419 130.935 272.695 129.21 272.695 127.083C272.695 124.955 274.419 123.231 276.547 123.231Z" fill="black" fill-opacity="0.3"/>
<path d="M213.636 71.7447C217.11 72.4534 220.501 70.2129 221.21 66.7386H234.178V128.367H249.713C250.228 130.889 252.198 132.859 254.719 133.373C258.194 134.082 261.584 131.842 262.293 128.367C263.002 124.893 260.761 121.502 257.287 120.793C253.813 120.085 250.422 122.325 249.713 125.799H236.745V64.1707H221.21C220.695 61.649 218.725 59.6794 216.204 59.1646C212.729 58.4558 209.339 60.6964 208.63 64.1707C207.921 67.645 210.162 71.0359 213.636 71.7447ZM256.004 123.232C258.132 123.232 259.856 124.956 259.856 127.083C259.856 129.211 258.132 130.935 256.004 130.935C253.877 130.935 252.153 129.211 252.153 127.083C252.153 124.956 253.877 123.232 256.004 123.232ZM214.919 61.6028C217.046 61.6028 218.77 63.3271 218.77 65.4546C218.77 67.5821 217.046 69.3064 214.919 69.3064C212.791 69.3064 211.067 67.5821 211.067 65.4546C211.067 63.3271 212.791 61.6028 214.919 61.6028Z" fill="black" fill-opacity="0.3"/>
<path d="M234.178 153.916C237.652 154.625 241.043 152.385 241.752 148.91H318.916V51.203C321.438 50.6882 323.407 48.7185 323.922 46.1969C324.631 42.7226 322.39 39.3318 318.916 38.6231C315.442 37.9143 312.051 40.1547 311.342 43.629C310.633 47.1034 312.874 50.4943 316.348 51.203V146.342H241.752C241.237 143.821 239.267 141.851 236.746 141.336C233.271 140.628 229.881 142.868 229.172 146.342C228.463 149.817 230.704 153.208 234.178 153.916ZM313.78 44.9117C313.78 42.7842 315.505 41.0599 317.632 41.0599C319.76 41.0599 321.484 42.7842 321.484 44.9117C321.484 47.0392 319.76 48.7635 317.632 48.7635C315.505 48.7635 313.78 47.0392 313.78 44.9117ZM235.461 143.775C237.588 143.775 239.312 145.499 239.312 147.626C239.312 149.754 237.588 151.478 235.461 151.478C233.333 151.478 231.609 149.754 231.609 147.626C231.609 145.499 233.333 143.775 235.461 143.775Z" fill="black" fill-opacity="0.3"/>
<path d="M439.606 228.514V272.168H455.142C455.657 274.689 457.626 276.659 460.148 277.174C463.622 277.883 467.013 275.642 467.722 272.168C468.431 268.693 466.19 265.303 462.716 264.594C459.242 263.885 455.851 266.126 455.142 269.6H442.174V228.514V187.428H380.545V66.7386H393.513C394.028 69.2602 395.998 71.2298 398.519 71.7447C401.994 72.4534 405.384 70.2129 406.093 66.7386C406.802 63.2642 404.561 59.8733 401.087 59.1646C397.613 58.4558 394.222 60.6964 393.513 64.1707H377.978V189.996H439.606V228.514ZM461.433 267.032C463.561 267.032 465.285 268.756 465.285 270.884C465.285 273.011 463.561 274.736 461.433 274.736C459.306 274.736 457.581 273.011 457.581 270.884C457.581 268.756 459.306 267.032 461.433 267.032ZM399.804 61.6028C401.932 61.6028 403.656 63.3271 403.656 65.4546C403.656 67.5821 401.932 69.3064 399.804 69.3064C397.677 69.3064 395.953 67.5821 395.953 65.4546C395.953 63.3271 397.677 61.6028 399.804 61.6028Z" fill="black" fill-opacity="0.3"/>
<path d="M380.545 413.4H323.924C323.409 410.878 321.439 408.908 318.918 408.394C315.443 407.685 312.053 409.925 311.344 413.4C310.635 416.874 312.875 420.265 316.35 420.974C319.824 421.682 323.215 419.442 323.924 415.968H377.977V433.943H357.434V536.657H344.467C343.952 534.136 341.982 532.166 339.461 531.651C335.986 530.942 332.595 533.183 331.887 536.657C331.178 540.132 333.418 543.522 336.893 544.231C340.367 544.94 343.758 542.699 344.467 539.225H360.002V436.51H380.545V413.4ZM317.632 418.535C315.505 418.535 313.781 416.811 313.781 414.684C313.781 412.556 315.505 410.832 317.632 410.832C319.76 410.832 321.484 412.556 321.484 414.684C321.484 416.811 319.76 418.535 317.632 418.535ZM338.175 541.793C336.048 541.793 334.324 540.069 334.324 537.941C334.324 535.814 336.048 534.089 338.175 534.089C340.303 534.089 342.027 535.814 342.027 537.941C342.027 540.069 340.303 541.793 338.175 541.793Z" fill="black" fill-opacity="0.3"/>
<path d="M480.692 333.796H496.228C496.743 336.318 498.712 338.287 501.234 338.802C504.708 339.511 508.099 337.27 508.808 333.796C509.517 330.322 507.276 326.931 503.802 326.222C500.328 325.513 496.937 327.754 496.228 331.228H480.692H401.088V256.632C403.61 256.117 405.58 254.147 406.094 251.626C406.803 248.151 404.563 244.761 401.088 244.052C397.614 243.343 394.223 245.583 393.515 249.058C392.806 252.532 395.046 255.923 398.521 256.632V333.796H480.692ZM502.519 328.66C504.647 328.66 506.371 330.385 506.371 332.512C506.371 334.64 504.647 336.364 502.519 336.364C500.392 336.364 498.667 334.64 498.667 332.512C498.667 330.385 500.392 328.66 502.519 328.66ZM395.953 250.34C395.953 248.213 397.677 246.489 399.805 246.489C401.932 246.489 403.656 248.213 403.656 250.34C403.656 252.468 401.932 254.192 399.805 254.192C397.677 254.192 395.953 252.468 395.953 250.34Z" fill="black" fill-opacity="0.3"/>
<path d="M316.875 333.796H380.545V256.632C383.067 256.117 385.037 254.147 385.551 251.626C386.26 248.151 384.02 244.761 380.545 244.052C377.071 243.343 373.68 245.583 372.971 249.058C372.263 252.532 374.503 255.923 377.978 256.632V331.228H315.822L275.263 371.788V470.021C272.741 470.536 270.772 472.506 270.257 475.027C269.548 478.502 271.789 481.892 275.263 482.601C278.737 483.31 282.128 481.07 282.837 477.595C283.546 474.121 281.305 470.73 277.831 470.021V372.84L316.875 333.796ZM375.41 250.34C375.41 248.213 377.134 246.489 379.262 246.489C381.389 246.489 383.113 248.213 383.113 250.34C383.113 252.468 381.389 254.192 379.262 254.192C377.134 254.192 375.41 252.468 375.41 250.34ZM280.399 476.313C280.399 478.44 278.674 480.164 276.547 480.164C274.419 480.164 272.695 478.44 272.695 476.313C272.695 474.185 274.419 472.461 276.547 472.461C278.674 472.461 280.399 474.185 280.399 476.313Z" fill="black" fill-opacity="0.3"/>
<path d="M193.093 441.517C196.567 442.226 199.958 439.986 200.667 436.511H236.745V374.883H249.713C250.228 377.404 252.198 379.374 254.719 379.889C258.193 380.597 261.584 378.357 262.293 374.883C263.002 371.408 260.761 368.017 257.287 367.309C253.813 366.6 250.422 368.84 249.713 372.315H234.177V433.944H200.667C200.152 431.422 198.182 429.452 195.661 428.937C192.186 428.229 188.796 430.469 188.087 433.944C187.378 437.418 189.619 440.809 193.093 441.517ZM256.004 369.747C258.132 369.747 259.856 371.471 259.856 373.599C259.856 375.726 258.132 377.45 256.004 377.45C253.877 377.45 252.153 375.726 252.153 373.599C252.153 371.471 253.877 369.747 256.004 369.747ZM194.376 431.376C196.503 431.376 198.227 433.1 198.227 435.227C198.227 437.355 196.503 439.079 194.376 439.079C192.248 439.079 190.524 437.355 190.524 435.227C190.524 433.1 192.248 431.376 194.376 431.376Z" fill="black" fill-opacity="0.3"/>
<path d="M421.631 477.596V433.943H401.088V420.975C403.61 420.46 405.58 418.491 406.094 415.969C406.803 412.495 404.563 409.104 401.088 408.395C397.614 407.686 394.223 409.927 393.515 413.401C392.806 416.875 395.046 420.266 398.521 420.975V436.511H419.064V475.029H398.521V559.768H460.149V618.829V641.94H480.692H502.519H503.803V618.829V557.2H480.692V613.822C478.171 614.336 476.199 616.307 475.685 618.829C475.685 618.83 475.685 618.83 475.685 618.831C474.976 622.306 477.219 625.695 480.692 626.404C481.519 626.569 482.37 626.569 483.197 626.404C486.689 625.712 488.959 622.321 488.266 618.829C487.753 616.307 485.781 614.336 483.259 613.822V559.768H501.234V618.829V639.372H480.691H462.716V618.829V557.2H401.087V477.596H421.631ZM395.953 414.684C395.953 412.556 397.677 410.832 399.805 410.832C401.932 410.832 403.656 412.556 403.656 414.684C403.656 416.811 401.932 418.535 399.805 418.535C397.677 418.535 395.953 416.811 395.953 414.684ZM485.61 618.829C485.905 619.661 485.905 620.57 485.61 621.403C484.899 623.409 482.697 624.458 480.692 623.746C480.691 623.746 480.69 623.745 480.689 623.745C478.683 623.035 477.633 620.834 478.343 618.829C478.73 617.731 479.595 616.867 480.692 616.479C480.694 616.479 480.695 616.478 480.696 616.478C482.702 615.771 484.902 616.823 485.61 618.829Z" fill="black" fill-opacity="0.3"/>
<path d="M331.886 516.114C331.177 519.588 333.418 522.979 336.892 523.687C340.366 524.396 343.757 522.156 344.466 518.682C345.175 515.207 342.934 511.816 339.46 511.108V441.518C341.981 441.004 343.951 439.034 344.466 436.512C345.175 433.038 342.934 429.647 339.46 428.939C335.985 428.23 332.594 430.47 331.886 433.944C331.177 437.419 333.418 440.81 336.892 441.518V511.108C334.37 511.622 332.401 513.592 331.886 516.114ZM334.324 435.227C334.324 433.1 336.048 431.375 338.176 431.375C340.303 431.375 342.028 433.1 342.028 435.227C342.028 437.355 340.303 439.079 338.176 439.079C336.048 439.079 334.324 437.355 334.324 435.227ZM338.176 513.547C340.303 513.547 342.028 515.271 342.028 517.399C342.028 519.526 340.303 521.251 338.176 521.251C336.048 521.251 334.324 519.526 334.324 517.399C334.324 515.271 336.048 513.547 338.176 513.547Z" fill="black" fill-opacity="0.3"/>
<path d="M152.007 420.974C155.481 421.683 158.872 419.442 159.581 415.968H216.202V359.347C218.724 358.832 220.694 356.862 221.208 354.34C221.917 350.866 219.677 347.475 216.202 346.767C212.728 346.058 209.337 348.298 208.628 351.773C207.92 355.247 210.16 358.638 213.634 359.347V413.4H159.581C159.066 410.878 157.096 408.909 154.575 408.394C151.101 407.685 147.71 409.926 147.001 413.4C146.292 416.874 148.533 420.265 152.007 420.974ZM211.067 353.055C211.067 350.928 212.791 349.203 214.918 349.203C217.046 349.203 218.77 350.928 218.77 353.055C218.77 355.183 217.046 356.907 214.918 356.907C212.791 356.907 211.067 355.183 211.067 353.055ZM153.29 410.832C155.417 410.832 157.141 412.557 157.141 414.684C157.141 416.812 155.417 418.536 153.29 418.536C151.162 418.536 149.438 416.812 149.438 414.684C149.438 412.557 151.162 410.832 153.29 410.832Z" fill="black" fill-opacity="0.3"/>
<path d="M152.007 277.174C155.481 277.882 158.872 275.642 159.581 272.168H195.659V228.514V189.996H352.428C352.942 192.518 354.912 194.487 357.434 195.002C360.908 195.711 364.299 193.47 365.008 189.996C365.716 186.522 363.476 183.131 360.002 182.422C356.527 181.713 353.136 183.954 352.428 187.428H195.659H193.092V228.514V269.6H159.581C159.066 267.078 157.096 265.108 154.575 264.594C151.101 263.885 147.71 266.125 147.001 269.6C146.292 273.074 148.533 276.465 152.007 277.174ZM358.719 184.86C360.846 184.86 362.571 186.584 362.571 188.712C362.571 190.839 360.846 192.564 358.719 192.564C356.591 192.564 354.867 190.839 354.867 188.712C354.867 186.584 356.591 184.86 358.719 184.86ZM153.29 267.032C155.417 267.032 157.141 268.756 157.141 270.884C157.141 273.011 155.417 274.735 153.29 274.735C151.162 274.735 149.438 273.011 149.438 270.884C149.438 268.756 151.162 267.032 153.29 267.032Z" fill="black" fill-opacity="0.3"/>
<path d="M131.462 503.146C134.936 503.854 138.327 501.614 139.035 498.14C139.744 494.665 137.504 491.274 134.029 490.566C130.555 489.857 127.164 492.097 126.455 495.572H92.9448V415.21L154.574 353.582V297.718C157.095 297.203 159.065 295.233 159.58 292.712C160.288 289.237 158.048 285.846 154.574 285.138C151.099 284.429 147.708 286.669 147 290.144C146.291 293.618 148.531 297.009 152.006 297.718V352.529L90.377 414.157V498.14H126.455C126.97 500.661 128.94 502.631 131.462 503.146ZM132.747 493.004C134.874 493.004 136.599 494.728 136.599 496.856C136.599 498.983 134.874 500.707 132.747 500.707C130.619 500.707 128.895 498.983 128.895 496.856C128.895 494.728 130.619 493.004 132.747 493.004ZM149.438 291.426C149.438 289.299 151.162 287.575 153.29 287.575C155.417 287.575 157.141 289.299 157.141 291.426C157.141 293.554 155.417 295.278 153.29 295.278C151.162 295.278 149.438 293.554 149.438 291.426Z" fill="black" fill-opacity="0.3"/>
<path d="M360.002 552.194C356.527 551.485 353.136 553.725 352.428 557.2H216.202V486.07L164.075 433.942H139.038C138.523 431.421 136.554 429.451 134.032 428.936C130.558 428.227 127.167 430.468 126.458 433.942C125.749 437.416 127.99 440.807 131.464 441.516C134.938 442.225 138.329 439.984 139.038 436.51H163.047L213.634 487.097V559.768H352.428C352.942 562.289 354.912 564.259 357.434 564.774C360.908 565.482 364.299 563.242 365.007 559.768C365.716 556.293 363.476 552.902 360.002 552.194ZM132.747 439.078C130.619 439.078 128.895 437.354 128.895 435.226C128.895 433.099 130.619 431.374 132.747 431.374C134.874 431.374 136.598 433.099 136.598 435.226C136.598 437.354 134.874 439.078 132.747 439.078ZM358.719 562.335C356.591 562.335 354.867 560.611 354.867 558.484C354.867 556.356 356.591 554.632 358.719 554.632C360.846 554.632 362.571 556.356 362.571 558.484C362.571 560.611 360.846 562.335 358.719 562.335Z" fill="black" fill-opacity="0.3"/>
<path d="M195.659 496.329L153.816 454.486H118.495C117.98 451.964 116.011 449.994 113.489 449.48C110.015 448.771 106.624 451.011 105.915 454.486C105.206 457.96 107.447 461.351 110.921 462.06C114.395 462.768 117.786 460.528 118.495 457.053H152.763L193.091 497.382V557.2H159.581C159.066 554.679 157.096 552.709 154.575 552.194C151.1 551.485 147.71 553.726 147.001 557.2C146.292 560.675 148.533 564.065 152.007 564.774C155.481 565.483 158.872 563.242 159.581 559.768H195.659V496.329V496.329ZM112.204 459.621C110.076 459.621 108.352 457.897 108.352 455.77C108.352 453.642 110.076 451.918 112.204 451.918C114.331 451.918 116.056 453.642 116.056 455.77C116.056 457.897 114.331 459.621 112.204 459.621ZM153.29 562.336C151.162 562.336 149.438 560.612 149.438 558.484C149.438 556.357 151.162 554.632 153.29 554.632C155.417 554.632 157.141 556.357 157.141 558.484C157.141 560.612 155.417 562.336 153.29 562.336Z" fill="black" fill-opacity="0.3"/>
<path d="M213.636 462.06C217.11 462.768 220.501 460.528 221.21 457.053H234.178V518.682H249.713C250.228 521.204 252.198 523.174 254.719 523.688C258.194 524.397 261.584 522.157 262.293 518.682C263.002 515.208 260.761 511.817 257.287 511.108C253.813 510.4 250.422 512.64 249.713 516.114H236.745V454.486H221.21C220.695 451.964 218.725 449.994 216.204 449.48C212.729 448.771 209.339 451.011 208.63 454.486C207.921 457.96 210.162 461.351 213.636 462.06ZM256.004 513.547C258.132 513.547 259.856 515.271 259.856 517.398C259.856 519.526 258.132 521.25 256.004 521.25C253.877 521.25 252.153 519.526 252.153 517.398C252.153 515.271 253.877 513.547 256.004 513.547ZM214.919 451.918C217.046 451.918 218.77 453.642 218.77 455.77C218.77 457.897 217.046 459.621 214.919 459.621C212.791 459.621 211.067 457.897 211.067 455.77C211.067 453.642 212.791 451.918 214.919 451.918Z" fill="black" fill-opacity="0.3"/>
<path d="M270.257 516.113C269.548 519.587 271.789 522.978 275.263 523.687C278.737 524.396 282.128 522.155 282.837 518.681C283.546 515.207 281.305 511.816 277.831 511.107V495.571H257.288V400.432C259.81 399.917 261.779 397.948 262.294 395.426C263.003 391.952 260.762 388.561 257.288 387.852C253.814 387.143 250.423 389.384 249.714 392.858C249.005 396.332 251.246 399.723 254.72 400.432V498.139H275.263V511.107C272.741 511.622 270.772 513.591 270.257 516.113ZM252.152 394.141C252.152 392.013 253.876 390.289 256.004 390.289C258.131 390.289 259.856 392.013 259.856 394.141C259.856 396.268 258.131 397.993 256.004 397.993C253.876 397.993 252.152 396.268 252.152 394.141ZM276.547 513.546C278.674 513.546 280.399 515.271 280.399 517.398C280.399 519.526 278.674 521.25 276.547 521.25C274.419 521.25 272.695 519.526 272.695 517.398C272.695 515.271 274.419 513.546 276.547 513.546Z" fill="black" fill-opacity="0.3"/>
<path d="M134.031 279.614V228.513V147.626V146.342H90.3771H36.3236C35.8087 143.82 33.8391 141.85 31.3174 141.335C27.8431 140.627 24.4523 142.867 23.7436 146.342C23.0349 149.816 25.2753 153.207 28.7496 153.916C32.2239 154.624 35.6148 152.384 36.3236 148.909H90.3771H131.463V228.513V280.628L101.406 310.685H90.3771H31.3162V277.174C33.8378 276.659 35.8074 274.69 36.3223 272.168C37.031 268.694 34.7905 265.303 31.3162 264.594C27.8419 263.886 24.4509 266.126 23.7422 269.6C23.0335 273.075 25.274 276.466 28.7483 277.174V313.253H90.3771H102.459L134.031 281.681V279.614ZM30.0323 151.477C27.9048 151.477 26.1805 149.753 26.1805 147.626C26.1805 145.498 27.9048 143.774 30.0323 143.774C32.1597 143.774 33.8841 145.498 33.8841 147.626C33.8841 149.753 32.1597 151.477 30.0323 151.477ZM26.1805 270.883C26.1805 268.756 27.9048 267.031 30.0323 267.031C32.1597 267.031 33.8841 268.756 33.8841 270.883C33.8841 273.011 32.1597 274.735 30.0323 274.735C27.9048 274.735 26.1805 273.011 26.1805 270.883Z" fill="black" fill-opacity="0.3"/>
<path d="M328.431 354.338H475.685C476.199 356.86 478.171 358.831 480.692 359.346C481.115 359.432 481.546 359.475 481.977 359.475C485.522 359.475 488.397 356.599 488.396 353.055C488.395 352.642 488.352 352.23 488.271 351.826C487.577 348.335 484.183 346.067 480.692 346.763C478.171 347.278 476.199 349.249 475.685 351.771H327.378L295.806 383.342V511.107C293.284 511.621 291.315 513.591 290.8 516.113C290.091 519.587 292.332 522.978 295.806 523.687C299.28 524.395 302.671 522.155 303.38 518.681C304.089 515.206 301.848 511.815 298.374 511.107V384.395L328.431 354.338ZM480.692 349.421C481.519 349.13 482.422 349.13 483.249 349.421C485.255 350.127 486.309 352.327 485.603 354.333C484.897 356.34 482.698 357.394 480.691 356.688C479.589 356.3 478.723 355.434 478.336 354.333C477.631 352.327 478.685 350.127 480.692 349.421ZM300.942 517.398C300.942 519.525 299.217 521.25 297.09 521.25C294.962 521.25 293.238 519.525 293.238 517.398C293.238 515.27 294.962 513.546 297.09 513.546C299.217 513.546 300.942 515.27 300.942 517.398Z" fill="black" fill-opacity="0.3"/>
<path d="M234.178 359.345C237.652 360.054 241.043 357.813 241.752 354.339H267.341L308.426 313.253H360.002V256.632C362.524 256.117 364.493 254.147 365.008 251.626C365.717 248.151 363.476 244.761 360.002 244.052C356.528 243.343 353.137 245.583 352.428 249.058C351.719 252.532 353.96 255.923 357.434 256.632V310.685H307.361L266.275 351.771H241.752C241.237 349.249 239.267 347.28 236.746 346.765C233.271 346.056 229.881 348.297 229.172 351.771C228.463 355.245 230.704 358.636 234.178 359.345ZM354.866 250.34C354.866 248.213 356.591 246.489 358.718 246.489C360.846 246.489 362.57 248.213 362.57 250.34C362.57 252.468 360.846 254.192 358.718 254.192C356.591 254.192 354.866 252.468 354.866 250.34ZM235.461 349.203C237.588 349.203 239.312 350.928 239.312 353.055C239.312 355.183 237.588 356.907 235.461 356.907C233.333 356.907 231.609 355.183 231.609 353.055C231.609 350.928 233.333 349.203 235.461 349.203Z" fill="black" fill-opacity="0.3"/>
<path d="M401.088 228.515V210.54H419.063V228.515V244.05C416.541 244.565 414.572 246.535 414.057 249.056C413.348 252.531 415.589 255.921 419.063 256.63C422.537 257.339 425.928 255.098 426.637 251.624C427.346 248.15 425.105 244.759 421.631 244.05V228.515V209.256V207.972H398.52V228.515H336.891V290.143H303.381C302.866 287.622 300.896 285.652 298.375 285.137C294.9 284.429 291.51 286.669 290.801 290.143C290.092 293.618 292.332 297.009 295.807 297.717C299.281 298.426 302.672 296.186 303.381 292.711H339.459V231.082H401.088V228.515ZM424.199 250.341C424.199 252.469 422.474 254.193 420.347 254.193C418.219 254.193 416.495 252.469 416.495 250.341C416.495 248.214 418.219 246.49 420.347 246.49C422.474 246.49 424.199 248.214 424.199 250.341ZM297.089 295.279C294.962 295.279 293.238 293.555 293.238 291.427C293.238 289.3 294.962 287.576 297.089 287.576C299.217 287.576 300.941 289.3 300.941 291.427C300.941 293.555 299.217 295.279 297.089 295.279Z" fill="black" fill-opacity="0.3"/>
<path d="M175.117 363.854V292.711H216.203V228.514V210.539H372.971C373.486 213.061 375.455 215.031 377.977 215.545C381.451 216.254 384.842 214.014 385.551 210.539C386.259 207.065 384.019 203.674 380.545 202.965C377.07 202.257 373.68 204.497 372.971 207.971H213.635V228.514V290.143H172.549V362.801L110.92 424.43V428.936C108.399 429.451 106.429 431.421 105.914 433.942C105.205 437.417 107.446 440.807 110.92 441.516C114.395 442.225 117.785 439.985 118.494 436.51C119.203 433.036 116.962 429.645 113.488 428.936V425.483L175.117 363.854ZM379.262 205.404C381.39 205.404 383.114 207.128 383.114 209.255C383.114 211.383 381.39 213.107 379.262 213.107C377.135 213.107 375.41 211.383 375.41 209.255C375.41 207.128 377.135 205.404 379.262 205.404ZM116.056 435.228C116.056 437.355 114.332 439.079 112.204 439.079C110.077 439.079 108.352 437.355 108.352 435.228C108.352 433.1 110.077 431.376 112.204 431.376C114.332 431.376 116.056 433.1 116.056 435.228Z" fill="black" fill-opacity="0.3"/>
<path d="M434.6 475.027C433.892 478.502 436.132 481.892 439.606 482.601C443.081 483.31 446.471 481.069 447.18 477.595C447.889 474.121 445.648 470.73 442.174 470.021V413.4H426.638C426.124 410.878 424.154 408.908 421.632 408.394C418.158 407.685 414.767 409.925 414.059 413.4C413.35 416.874 415.59 420.265 419.065 420.974C422.539 421.682 425.93 419.442 426.638 415.968H439.606V470.021C437.085 470.536 435.115 472.506 434.6 475.027ZM420.347 418.535C418.22 418.535 416.495 416.811 416.495 414.684C416.495 412.556 418.22 410.832 420.347 410.832C422.475 410.832 424.199 412.556 424.199 414.684C424.199 416.811 422.475 418.535 420.347 418.535ZM440.89 472.461C443.018 472.461 444.742 474.185 444.742 476.312C444.742 478.44 443.018 480.164 440.89 480.164C438.763 480.164 437.038 478.44 437.038 476.312C437.038 474.185 438.763 472.461 440.89 472.461Z" fill="black" fill-opacity="0.3"/>
<path d="M270.256 310.684C269.548 314.159 271.788 317.55 275.262 318.258C278.737 318.967 282.128 316.727 282.836 313.252C283.545 309.778 281.305 306.387 277.83 305.678V249.057H241.752C241.237 246.535 239.267 244.566 236.746 244.051C233.271 243.342 229.881 245.583 229.172 249.057C228.463 252.531 230.704 255.922 234.178 256.631C237.652 257.34 241.043 255.099 241.752 251.625H275.262V305.678C272.741 306.193 270.771 308.163 270.256 310.684ZM235.461 254.193C233.333 254.193 231.609 252.468 231.609 250.341C231.609 248.213 233.333 246.489 235.461 246.489C237.588 246.489 239.312 248.213 239.312 250.341C239.312 252.468 237.588 254.193 235.461 254.193ZM276.546 308.118C278.674 308.118 280.398 309.842 280.398 311.97C280.398 314.097 278.674 315.821 276.546 315.821C274.419 315.821 272.695 314.097 272.695 311.97C272.695 309.842 274.419 308.118 276.546 308.118Z" fill="black" fill-opacity="0.3"/>
<path d="M193.092 310.686V392.857H180.124C179.609 390.336 177.639 388.366 175.118 387.851C171.643 387.143 168.253 389.383 167.544 392.857C166.835 396.332 169.076 399.723 172.55 400.431C176.024 401.14 179.415 398.9 180.124 395.425H195.659V313.254H236.745V277.175C239.267 276.66 241.237 274.691 241.751 272.169C242.46 268.695 240.22 265.304 236.745 264.595C233.271 263.887 229.88 266.127 229.171 269.601C228.463 273.076 230.703 276.466 234.177 277.175V310.686H193.092ZM173.833 397.993C171.705 397.993 169.981 396.269 169.981 394.141C169.981 392.014 171.705 390.29 173.833 390.29C175.96 390.29 177.684 392.014 177.684 394.141C177.684 396.269 175.96 397.993 173.833 397.993ZM231.61 270.884C231.61 268.756 233.334 267.032 235.461 267.032C237.589 267.032 239.313 268.756 239.313 270.884C239.313 273.011 237.589 274.736 235.461 274.736C233.334 274.736 231.61 273.011 231.61 270.884Z" fill="black" fill-opacity="0.3"/>
<path d="M213.636 338.803C217.11 339.511 220.501 337.271 221.21 333.797H257.288V277.175C259.81 276.66 261.78 274.691 262.294 272.169C263.003 268.695 260.763 265.304 257.288 264.595C253.814 263.887 250.423 266.127 249.714 269.601C249.006 273.076 251.246 276.466 254.72 277.175V331.229H221.21C220.695 328.707 218.725 326.737 216.204 326.223C212.729 325.514 209.339 327.754 208.63 331.229C207.921 334.703 210.162 338.094 213.636 338.803ZM252.153 270.884C252.153 268.756 253.877 267.032 256.004 267.032C258.132 267.032 259.856 268.756 259.856 270.884C259.856 273.011 258.132 274.736 256.004 274.736C253.877 274.736 252.153 273.011 252.153 270.884ZM214.919 328.661C217.046 328.661 218.77 330.385 218.77 332.513C218.77 334.64 217.046 336.364 214.919 336.364C212.791 336.364 211.067 334.64 211.067 332.513C211.067 330.385 212.791 328.661 214.919 328.661Z" fill="black" fill-opacity="0.3"/>
<path d="M159.581 249.057C159.066 246.535 157.096 244.565 154.575 244.05C151.101 243.342 147.71 245.582 147.001 249.057C146.292 252.531 148.533 255.922 152.007 256.63C155.481 257.339 158.872 255.099 159.581 251.624H175.116V228.514H154.574V189.996H172.549V202.963C170.027 203.478 168.057 205.448 167.543 207.969C166.834 211.444 169.074 214.834 172.549 215.543C176.023 216.252 179.414 214.012 180.123 210.537C180.831 207.063 178.591 203.672 175.116 202.963V187.428H152.006V228.514V231.081H172.549V249.057H159.581ZM153.29 254.192C151.162 254.192 149.438 252.468 149.438 250.34C149.438 248.213 151.162 246.489 153.29 246.489C155.417 246.489 157.141 248.213 157.141 250.34C157.141 252.468 155.417 254.192 153.29 254.192ZM177.684 209.255C177.684 211.382 175.96 213.106 173.833 213.106C171.705 213.106 169.981 211.382 169.981 209.255C169.981 207.127 171.705 205.403 173.833 205.403C175.96 205.403 177.684 207.127 177.684 209.255Z" fill="black" fill-opacity="0.3"/>
<path d="M318.917 272.168V228.514H241.752C241.239 225.987 239.265 224.014 236.739 223.5C233.264 222.794 229.876 225.04 229.17 228.514C228.461 231.989 230.703 235.381 234.177 236.089C237.652 236.798 241.044 234.556 241.752 231.082H316.349V269.6H298.374V256.632C300.896 256.118 302.865 254.148 303.38 251.626C304.089 248.152 301.848 244.761 298.374 244.052C294.9 243.344 291.509 245.584 290.8 249.058C290.091 252.533 292.332 255.924 295.806 256.632V272.168H318.917ZM239.095 231.07C238.388 233.077 236.189 234.131 234.182 233.425C232.176 232.719 231.122 230.521 231.828 228.514C232.215 227.413 233.082 226.546 234.182 226.16C236.189 225.453 238.388 226.507 239.095 228.514C239.386 229.341 239.386 230.244 239.095 231.07ZM293.238 250.341C293.238 248.214 294.962 246.489 297.09 246.489C299.217 246.489 300.942 248.214 300.942 250.341C300.942 252.469 299.217 254.193 297.09 254.193C294.962 254.193 293.238 252.469 293.238 250.341Z" fill="black" fill-opacity="0.3"/>
<path d="M471.178 290.142H447.181C446.667 287.62 444.697 285.651 442.175 285.136C438.701 284.427 435.31 286.668 434.602 290.142C433.893 293.616 436.133 297.007 439.608 297.716C443.082 298.425 446.473 296.184 447.181 292.71H472.231L480.692 284.249L492.774 272.167H496.228C496.743 274.688 498.712 276.658 501.234 277.173C504.708 277.882 508.099 275.641 508.808 272.167C509.516 268.692 507.276 265.302 503.802 264.593C500.327 263.884 496.937 266.125 496.228 269.599H491.721L480.692 280.641V280.628L471.178 290.142ZM440.89 295.278C438.763 295.278 437.038 293.553 437.038 291.426C437.038 289.298 438.763 287.574 440.89 287.574C443.018 287.574 444.742 289.298 444.742 291.426C444.742 293.553 443.018 295.278 440.89 295.278ZM502.519 267.031C504.646 267.031 506.371 268.755 506.371 270.883C506.371 273.01 504.646 274.735 502.519 274.735C500.392 274.735 498.667 273.01 498.667 270.883C498.667 268.755 500.392 267.031 502.519 267.031Z" fill="black" fill-opacity="0.3"/>
<path d="M234.178 544.232C237.652 544.941 241.043 542.7 241.752 539.226H318.916V441.518C321.438 441.004 323.407 439.034 323.922 436.512C324.631 433.038 322.39 429.647 318.916 428.939C315.442 428.23 312.051 430.47 311.342 433.944C310.633 437.419 312.874 440.81 316.348 441.518V536.658H241.752C241.237 534.136 239.267 532.167 236.746 531.652C233.271 530.943 229.881 533.184 229.172 536.658C228.463 540.132 230.704 543.523 234.178 544.232ZM313.78 435.227C313.78 433.1 315.505 431.375 317.632 431.375C319.76 431.375 321.484 433.1 321.484 435.227C321.484 437.355 319.76 439.079 317.632 439.079C315.505 439.079 313.78 437.355 313.78 435.227ZM235.461 534.09C237.588 534.09 239.312 535.814 239.312 537.942C239.312 540.069 237.588 541.794 235.461 541.794C233.333 541.794 231.609 540.069 231.609 537.942C231.609 535.814 233.333 534.09 235.461 534.09Z" fill="black" fill-opacity="0.3"/>
<path d="M419.065 503.146C422.539 503.854 425.93 501.614 426.638 498.14H462.717V404.939L480.692 386.964L524.346 343.31V318.261C526.867 317.746 528.837 315.776 529.352 313.255C530.06 309.78 527.82 306.389 524.346 305.681C520.871 304.972 517.481 307.212 516.772 310.687C516.063 314.161 518.304 317.552 521.778 318.261V342.257L480.692 383.343L460.149 403.886V495.572H426.638C426.124 493.05 424.154 491.08 421.632 490.566C418.158 489.857 414.767 492.097 414.059 495.572C413.35 499.046 415.59 502.437 419.065 503.146ZM519.21 311.969C519.21 309.842 520.934 308.118 523.062 308.118C525.189 308.118 526.914 309.842 526.914 311.969C526.914 314.097 525.189 315.821 523.062 315.821C520.934 315.821 519.21 314.097 519.21 311.969ZM420.347 493.004C422.475 493.004 424.199 494.728 424.199 496.856C424.199 498.983 422.475 500.707 420.347 500.707C418.22 500.707 416.495 498.983 416.495 496.856C416.495 494.728 418.22 493.004 420.347 493.004Z" fill="black" fill-opacity="0.3"/>
<path d="M455.142 372.315H344.467C343.952 369.793 341.982 367.823 339.461 367.309C335.986 366.6 332.595 368.84 331.887 372.315C331.178 375.789 333.418 379.18 336.893 379.889C340.367 380.597 343.758 378.357 344.467 374.883H455.142C455.657 377.404 457.626 379.374 460.148 379.889C463.622 380.597 467.013 378.357 467.722 374.883C468.43 371.408 466.19 368.017 462.716 367.309C459.241 366.6 455.85 368.84 455.142 372.315ZM338.175 377.45C336.048 377.45 334.324 375.726 334.324 373.599C334.324 371.471 336.048 369.747 338.175 369.747C340.303 369.747 342.027 371.471 342.027 373.599C342.027 375.726 340.303 377.45 338.175 377.45ZM465.285 373.599C465.285 375.726 463.56 377.45 461.433 377.45C459.305 377.45 457.581 375.726 457.581 373.599C457.581 371.471 459.305 369.747 461.433 369.747C463.56 369.747 465.285 371.471 465.285 373.599Z" fill="black" fill-opacity="0.3"/>
<path d="M316.35 400.431C319.824 401.139 323.215 398.899 323.924 395.425H434.599C435.114 397.946 437.083 399.916 439.605 400.431C443.079 401.139 446.47 398.899 447.179 395.425C447.887 391.95 445.647 388.559 442.173 387.851C438.698 387.142 435.308 389.382 434.599 392.857H323.924C323.409 390.335 321.439 388.365 318.918 387.851C315.443 387.142 312.053 389.382 311.344 392.857C310.635 396.331 312.875 399.722 316.35 400.431ZM440.89 390.289C443.017 390.289 444.742 392.013 444.742 394.141C444.742 396.268 443.017 397.992 440.89 397.992C438.762 397.992 437.038 396.268 437.038 394.141C437.038 392.013 438.762 390.289 440.89 390.289ZM317.632 390.289C319.76 390.289 321.484 392.013 321.484 394.141C321.484 396.268 319.76 397.992 317.632 397.992C315.505 397.992 313.781 396.268 313.781 394.141C313.781 392.013 315.505 390.289 317.632 390.289Z" fill="black" fill-opacity="0.3"/>
<path d="M49.2909 228.514V272.168H64.8264C65.3413 274.689 67.3109 276.659 69.8325 277.174C73.3069 277.883 76.6976 275.642 77.4064 272.168C78.1151 268.693 75.8747 265.303 72.4004 264.594C68.9261 263.885 65.5352 266.126 64.8264 269.6H51.8587V228.514V187.428H-9.77003V66.7386H3.19766C3.71252 69.2602 5.68213 71.2298 8.20378 71.7447C11.6781 72.4534 15.0689 70.2129 15.7776 66.7386C16.4863 63.2642 14.246 59.8733 10.7716 59.1646C7.29732 58.4558 3.90639 60.6964 3.19766 64.1707H-12.3379V189.996H49.2909V228.514ZM71.1177 267.032C73.2452 267.032 74.9695 268.756 74.9695 270.884C74.9695 273.011 73.2452 274.736 71.1177 274.736C68.9903 274.736 67.2659 273.011 67.2659 270.884C67.2659 268.756 68.9903 267.032 71.1177 267.032ZM9.48897 61.6028C11.6164 61.6028 13.3408 63.3271 13.3408 65.4546C13.3408 67.5821 11.6164 69.3064 9.48897 69.3064C7.36149 69.3064 5.63717 67.5821 5.63717 65.4546C5.63717 63.3271 7.36149 61.6028 9.48897 61.6028Z" fill="black" fill-opacity="0.3"/>
<path d="M44.2847 84.7123C43.576 88.1866 45.8165 91.5774 49.2908 92.2861C52.7651 92.9948 56.1561 90.7545 56.8648 87.2801C57.5735 83.8058 55.333 80.4149 51.8587 79.7061V23.0847H36.3231C35.8083 20.5631 33.8387 18.5935 31.317 18.0786C27.8427 17.3699 24.4519 19.6104 23.7432 23.0847C23.0345 26.5591 25.2748 29.95 28.7491 30.6587C32.2235 31.3675 35.6144 29.1269 36.3231 25.6526H49.2908V79.7061C46.7692 80.221 44.7996 82.1906 44.2847 84.7123ZM30.0318 28.2205C27.9044 28.2205 26.18 26.4962 26.18 24.3687C26.18 22.2412 27.9044 20.5169 30.0318 20.5169C32.1593 20.5169 33.8836 22.2412 33.8836 24.3687C33.8836 26.4962 32.1593 28.2205 30.0318 28.2205ZM50.5748 82.1457C52.7022 82.1457 54.4265 83.87 54.4265 85.9974C54.4265 88.1249 52.7022 89.8492 50.5748 89.8492C48.4473 89.8492 46.723 88.1249 46.723 85.9974C46.723 83.87 48.4473 82.1457 50.5748 82.1457Z" fill="black" fill-opacity="0.3"/>
<path d="M-94.5095 -6.97297V120.791C-97.0311 121.306 -99.0007 123.276 -99.5156 125.797C-100.224 129.272 -97.9838 132.662 -94.5095 133.371C-91.0352 134.08 -87.6442 131.84 -86.9355 128.365C-86.2268 124.891 -88.4673 121.5 -91.9416 120.791V-5.92005L-61.8847 -35.977H85.3694C85.8843 -33.4553 87.8552 -31.4845 90.3768 -30.9696C90.7992 -30.8836 91.2306 -30.84 91.662 -30.84C95.2069 -30.8413 98.0817 -33.716 98.0804 -37.2609C98.0791 -37.673 98.0367 -38.0851 97.9558 -38.4896C97.2612 -41.9806 93.8678 -44.2481 90.3768 -43.5522C87.8552 -43.0373 85.8843 -41.0665 85.3694 -38.5448H-62.9376L-94.5095 -6.97297ZM-89.3738 127.083C-89.3738 129.21 -91.0981 130.934 -93.2256 130.934C-95.353 130.934 -97.0774 129.21 -97.0774 127.083C-97.0774 124.955 -95.353 123.231 -93.2256 123.231C-91.0981 123.231 -89.3738 124.955 -89.3738 127.083ZM90.3768 -40.8944C91.2037 -41.1859 92.1062 -41.1859 92.9331 -40.8944C94.9399 -40.1883 95.9939 -37.9889 95.2878 -35.9821C94.5816 -33.9753 92.3823 -32.9212 90.3756 -33.6273C89.2739 -34.0151 88.4073 -34.8818 88.0208 -35.9821C87.316 -37.9889 88.37 -40.1883 90.3768 -40.8944Z" fill="black" fill-opacity="0.3"/>
<path d="M31.3161 87.2809V43.6272H10.7732V30.6596C13.2949 30.1447 15.2645 28.1751 15.7793 25.6534C16.4881 22.1791 14.2475 18.7883 10.7732 18.0796C7.2989 17.3709 3.90797 19.6113 3.19924 23.0856C2.49051 26.5599 4.73103 29.9508 8.20535 30.6596V46.1951H28.7483V84.7131H8.20535V169.453H69.8341V228.514V251.624H90.377H112.204H113.488V228.514V166.885H90.377V223.506C87.8554 224.021 85.8845 225.992 85.3697 228.514C85.3697 228.515 85.3697 228.515 85.3697 228.516C84.6609 231.99 86.904 235.38 90.377 236.089C91.2039 236.253 92.0552 236.253 92.8821 236.089C96.3744 235.397 98.6443 232.006 97.9523 228.514C97.4374 225.992 95.4666 224.021 92.9449 223.506V169.453H110.92V228.514V249.056H90.377H72.402V228.514V166.885H10.7732V87.2809H31.3161ZM5.63749 24.3683C5.63749 22.2408 7.36181 20.5165 9.48929 20.5165C11.6168 20.5165 13.3411 22.2408 13.3411 24.3683C13.3411 26.4957 11.6168 28.2201 9.48929 28.2201C7.36181 28.2201 5.63749 26.4957 5.63749 24.3683ZM95.2945 228.514C95.5898 229.346 95.5898 230.255 95.2945 231.088C94.5832 233.093 92.3825 234.142 90.377 233.431C90.3758 233.431 90.3744 233.43 90.3731 233.43C88.3676 232.72 87.3175 230.519 88.0275 228.514C88.4153 227.416 89.2793 226.552 90.377 226.164C90.3783 226.164 90.3797 226.163 90.381 226.163C92.3865 225.455 94.587 226.508 95.2945 228.514Z" fill="black" fill-opacity="0.3"/>
<path d="M-73.9657 400.431C-70.4914 401.139 -67.1004 398.899 -66.3917 395.425H44.2832C44.7981 397.946 46.7677 399.916 49.2893 400.431C52.7636 401.139 56.1544 398.899 56.8631 395.425C57.5719 391.95 55.3315 388.559 51.8572 387.851C48.3829 387.142 44.9919 389.382 44.2832 392.857H-66.3917C-66.9066 390.335 -68.8762 388.365 -71.3978 387.851C-74.8722 387.142 -78.2629 389.382 -78.9717 392.857C-79.6804 396.331 -77.44 399.722 -73.9657 400.431ZM50.5745 390.289C52.702 390.289 54.4263 392.013 54.4263 394.141C54.4263 396.268 52.702 397.992 50.5745 397.992C48.447 397.992 46.7227 396.268 46.7227 394.141C46.7227 392.013 48.447 390.289 50.5745 390.289ZM-72.683 390.289C-70.5555 390.289 -68.8312 392.013 -68.8312 394.141C-68.8312 396.268 -70.5555 397.992 -72.683 397.992C-74.8105 397.992 -76.5348 396.268 -76.5348 394.141C-76.5348 392.013 -74.8105 390.289 -72.683 390.289Z" fill="black" fill-opacity="0.3"/>
<path d="M90.3771 333.796H105.913C106.427 336.318 108.397 338.287 110.919 338.802C114.393 339.511 117.784 337.27 118.493 333.796C119.201 330.322 116.961 326.931 113.487 326.222C110.012 325.513 106.621 327.754 105.913 331.228H90.3771H10.7732V256.632C13.2949 256.117 15.2645 254.147 15.7793 251.626C16.4881 248.151 14.2475 244.761 10.7732 244.052C7.2989 243.343 3.90797 245.583 3.19924 249.058C2.49051 252.532 4.73103 255.923 8.20535 256.632V333.796H90.3771ZM112.204 328.66C114.331 328.66 116.056 330.385 116.056 332.512C116.056 334.64 114.331 336.364 112.204 336.364C110.076 336.364 108.352 334.64 108.352 332.512C108.352 330.385 110.076 328.66 112.204 328.66ZM5.63749 250.34C5.63749 248.213 7.36181 246.489 9.48929 246.489C11.6168 246.489 13.3411 248.213 13.3411 250.34C13.3411 252.468 11.6168 254.192 9.48929 254.192C7.36181 254.192 5.63749 252.468 5.63749 250.34Z" fill="black" fill-opacity="0.3"/>
<path d="M28.7491 503.146C32.2235 503.854 35.6144 501.614 36.3231 498.14H72.4016V404.939L90.3767 386.964L134.03 343.31V318.261C136.552 317.746 138.522 315.776 139.037 313.255C139.745 309.78 137.505 306.389 134.03 305.681C130.556 304.972 127.165 307.212 126.456 310.687C125.748 314.161 127.988 317.552 131.463 318.261V342.257L90.3767 383.343L69.8337 403.886V495.572H36.3231C35.8083 493.05 33.8387 491.08 31.317 490.566C27.8427 489.857 24.4519 492.097 23.7432 495.572C23.0345 499.046 25.2748 502.437 28.7491 503.146ZM128.895 311.969C128.895 309.842 130.619 308.118 132.746 308.118C134.874 308.118 136.598 309.842 136.598 311.969C136.598 314.097 134.874 315.821 132.746 315.821C130.619 315.821 128.895 314.097 128.895 311.969ZM30.0318 493.004C32.1593 493.004 33.8836 494.728 33.8836 496.856C33.8836 498.983 32.1593 500.707 30.0318 500.707C27.9044 500.707 26.18 498.983 26.18 496.856C26.18 494.728 27.9044 493.004 30.0318 493.004Z" fill="black" fill-opacity="0.3"/>
<path d="M-61.8847 354.338H85.3694C85.8843 356.86 87.8552 358.831 90.3768 359.346C90.7992 359.432 91.2306 359.475 91.662 359.475C95.2069 359.475 98.0817 356.599 98.0804 353.055C98.0791 352.642 98.0367 352.23 97.9558 351.826C97.2612 348.335 93.8678 346.067 90.3768 346.763C87.8552 347.278 85.8843 349.249 85.3694 351.771H-62.9376L-94.5095 383.342V511.107C-97.0311 511.621 -99.0007 513.591 -99.5156 516.113C-100.224 519.587 -97.9838 522.978 -94.5095 523.687C-91.0352 524.395 -87.6442 522.155 -86.9355 518.681C-86.2268 515.206 -88.4673 511.815 -91.9416 511.107V384.395L-61.8847 354.338ZM90.3768 349.421C91.2037 349.13 92.1062 349.13 92.9331 349.421C94.9399 350.127 95.9939 352.327 95.2878 354.333C94.5816 356.34 92.3823 357.394 90.3756 356.688C89.2739 356.3 88.4073 355.434 88.0208 354.333C87.316 352.327 88.37 350.127 90.3768 349.421ZM-89.3738 517.398C-89.3738 519.525 -91.0981 521.25 -93.2256 521.25C-95.353 521.25 -97.0774 519.525 -97.0774 517.398C-97.0774 515.27 -95.353 513.546 -93.2256 513.546C-91.0981 513.546 -89.3738 515.27 -89.3738 517.398Z" fill="black" fill-opacity="0.3"/>
<path d="M44.2847 475.027C43.576 478.502 45.8165 481.892 49.2908 482.601C52.7651 483.31 56.1561 481.069 56.8648 477.595C57.5735 474.121 55.333 470.73 51.8587 470.021V413.4H36.3231C35.8083 410.878 33.8387 408.908 31.317 408.394C27.8427 407.685 24.4519 409.925 23.7432 413.4C23.0345 416.874 25.2748 420.265 28.7491 420.974C32.2235 421.682 35.6144 419.442 36.3231 415.968H49.2908V470.021C46.7692 470.536 44.7996 472.506 44.2847 475.027ZM30.0318 418.535C27.9044 418.535 26.18 416.811 26.18 414.684C26.18 412.556 27.9044 410.832 30.0318 410.832C32.1593 410.832 33.8836 412.556 33.8836 414.684C33.8836 416.811 32.1593 418.535 30.0318 418.535ZM50.5748 472.461C52.7022 472.461 54.4265 474.185 54.4265 476.312C54.4265 478.44 52.7022 480.164 50.5748 480.164C48.4473 480.164 46.723 478.44 46.723 476.312C46.723 474.185 48.4473 472.461 50.5748 472.461Z" fill="black" fill-opacity="0.3"/>
<path d="M80.8627 290.142H56.8661C56.3512 287.62 54.3816 285.651 51.86 285.136C48.3857 284.427 44.9949 286.668 44.2862 290.142C43.5774 293.616 45.8178 297.007 49.2921 297.716C52.7664 298.425 56.1574 296.184 56.8661 292.71H81.9156L90.3767 284.249L102.459 272.167H105.912C106.427 274.688 108.397 276.658 110.918 277.173C114.393 277.882 117.783 275.641 118.492 272.167C119.201 268.692 116.961 265.302 113.486 264.593C110.012 263.884 106.621 266.125 105.912 269.599H101.406L90.3767 280.641V280.628L80.8627 290.142ZM50.5748 295.278C48.4473 295.278 46.723 293.553 46.723 291.426C46.723 289.298 48.4473 287.574 50.5748 287.574C52.7023 287.574 54.4266 289.298 54.4266 291.426C54.4266 293.553 52.7023 295.278 50.5748 295.278ZM112.204 267.031C114.331 267.031 116.055 268.755 116.055 270.883C116.055 273.01 114.331 274.735 112.204 274.735C110.076 274.735 108.352 273.01 108.352 270.883C108.352 268.755 110.076 267.031 112.204 267.031Z" fill="black" fill-opacity="0.3"/>
<path d="M64.8262 372.315H-45.8487C-46.3636 369.793 -48.3332 367.823 -50.8549 367.309C-54.3292 366.6 -57.72 368.84 -58.4287 372.315C-59.1374 375.789 -56.897 379.18 -53.4227 379.889C-49.9484 380.597 -46.5575 378.357 -45.8487 374.883H64.8262C65.341 377.404 67.3107 379.374 69.8323 379.889C73.3066 380.597 76.6974 378.357 77.4061 374.883C78.1148 371.408 75.8745 368.017 72.4002 367.309C68.9258 366.6 65.5349 368.84 64.8262 372.315ZM-52.14 377.45C-54.2675 377.45 -55.9918 375.726 -55.9918 373.599C-55.9918 371.471 -54.2675 369.747 -52.14 369.747C-50.0126 369.747 -48.2883 371.471 -48.2883 373.599C-48.2883 375.726 -50.0126 377.45 -52.14 377.45ZM74.9693 373.599C74.9693 375.726 73.245 377.45 71.1175 377.45C68.99 377.45 67.2657 375.726 67.2657 373.599C67.2657 371.471 68.99 369.747 71.1175 369.747C73.245 369.747 74.9693 371.471 74.9693 373.599Z" fill="black" fill-opacity="0.3"/>
<path d="M31.3161 477.596V433.943H10.7732V420.975C13.2949 420.46 15.2645 418.491 15.7793 415.969C16.4881 412.495 14.2475 409.104 10.7732 408.395C7.2989 407.686 3.90797 409.927 3.19924 413.401C2.49051 416.875 4.73103 420.266 8.20535 420.975V436.511H28.7483V475.029H8.20535V559.768H69.8341V618.829V641.94H90.377H112.204H113.488V618.829V557.2H90.377V613.822C87.8554 614.336 85.8845 616.307 85.3697 618.829C85.3697 618.83 85.3697 618.83 85.3697 618.831C84.6609 622.306 86.904 625.695 90.377 626.404C91.2039 626.569 92.0552 626.569 92.8821 626.404C96.3744 625.712 98.6443 622.321 97.9523 618.829C97.4374 616.307 95.4666 614.336 92.9449 613.822V559.768H110.92V618.829V639.372H90.377H72.402V618.829V557.2H10.7732V477.596H31.3161ZM5.63749 414.684C5.63749 412.556 7.36181 410.832 9.48929 410.832C11.6168 410.832 13.3411 412.556 13.3411 414.684C13.3411 416.811 11.6168 418.535 9.48929 418.535C7.36181 418.535 5.63749 416.811 5.63749 414.684ZM95.2945 618.829C95.5898 619.661 95.5898 620.57 95.2945 621.403C94.5832 623.409 92.3825 624.458 90.377 623.746C90.3758 623.746 90.3744 623.745 90.3731 623.745C88.3676 623.035 87.3175 620.834 88.0275 618.829C88.4153 617.731 89.2793 616.867 90.377 616.479C90.3783 616.479 90.3797 616.478 90.381 616.478C92.3865 615.771 94.587 616.823 95.2945 618.829Z" fill="black" fill-opacity="0.3"/>
<g filter="url(#filter2_i_205_4833)">
<circle cx="255.5" cy="253.5" r="211.5" fill="url(#paint2_radial_205_4833)"/>
</g>
</g>
<g filter="url(#filter3_di_205_4833)">
<circle cx="255.5" cy="253.5" r="109.667" fill="url(#paint3_radial_205_4833)"/>
<circle cx="255.5" cy="253.5" r="90.0833" stroke="black" stroke-opacity="0.1" stroke-width="39.1667" stroke-dasharray="5.88 5.88"/>
</g>
<circle cx="255.5" cy="253.5" r="54.8333" fill="url(#paint4_linear_205_4833)"/>
<circle opacity="0.5" cx="316.208" cy="200.625" r="19.5833" fill="white"/>
<circle opacity="0.5" cx="277.042" cy="230" r="9.79167" fill="white"/>
</g>
</g>
<defs>
<filter id="filter0_d_205_4833" x="4" y="12" width="503" height="503" filterUnits="userSpaceOnUse" color-interpolation-filters="sRGB">
<feFlood flood-opacity="0" result="BackgroundImageFix"/>
<feColorMatrix in="SourceAlpha" type="matrix" values="0 0 0 0 0 0 0 0 0 0 0 0 0 0 0 0 0 0 127 0" result="hardAlpha"/>
<feOffset dy="10"/>
<feGaussianBlur stdDeviation="20"/>
<feComposite in2="hardAlpha" operator="out"/>
<feColorMatrix type="matrix" values="0 0 0 0 0 0 0 0 0 0 0 0 0 0 0 0 0 0 0.15 0"/>
<feBlend mode="normal" in2="BackgroundImageFix" result="effect1_dropShadow_205_4833"/>
<feBlend mode="normal" in="SourceGraphic" in2="effect1_dropShadow_205_4833" result="shape"/>
</filter>
<filter id="filter1_di_205_4833" x="-3" y="-24.5833" width="517" height="517" filterUnits="userSpaceOnUse" color-interpolation-filters="sRGB">
<feFlood flood-opacity="0" result="BackgroundImageFix"/>
<feColorMatrix in="SourceAlpha" type="matrix" values="0 0 0 0 0 0 0 0 0 0 0 0 0 0 0 0 0 0 127 0" result="hardAlpha"/>
<feOffset dy="-19.5833"/>
<feGaussianBlur stdDeviation="23.5"/>
<feComposite in2="hardAlpha" operator="out"/>
<feColorMatrix type="matrix" values="0 0 0 0 0 0 0 0 0 0 0 0 0 0 0 0 0 0 0.12 0"/>
<feBlend mode="normal" in2="BackgroundImageFix" result="effect1_dropShadow_205_4833"/>
<feBlend mode="normal" in="SourceGraphic" in2="effect1_dropShadow_205_4833" result="shape"/>
<feColorMatrix in="SourceAlpha" type="matrix" values="0 0 0 0 0 0 0 0 0 0 0 0 0 0 0 0 0 0 127 0" result="hardAlpha"/>
<feOffset dy="-50.9167"/>
<feGaussianBlur stdDeviation="23.5"/>
<feComposite in2="hardAlpha" operator="arithmetic" k2="-1" k3="1"/>
<feColorMatrix type="matrix" values="0 0 0 0 1 0 0 0 0 1 0 0 0 0 1 0 0 0 1 0"/>
<feBlend mode="normal" in2="shape" result="effect2_innerShadow_205_4833"/>
</filter>
<filter id="filter2_i_205_4833" x="44" y="42" width="423" height="423" filterUnits="userSpaceOnUse" color-interpolation-filters="sRGB">
<feFlood flood-opacity="0" result="BackgroundImageFix"/>
<feBlend mode="normal" in="SourceGraphic" in2="BackgroundImageFix" result="shape"/>
<feColorMatrix in="SourceAlpha" type="matrix" values="0 0 0 0 0 0 0 0 0 0 0 0 0 0 0 0 0 0 127 0" result="hardAlpha"/>
<feMorphology radius="23.5" operator="erode" in="SourceAlpha" result="effect1_innerShadow_205_4833"/>
<feOffset/>
<feGaussianBlur stdDeviation="21.5417"/>
<feComposite in2="hardAlpha" operator="arithmetic" k2="-1" k3="1"/>
<feColorMatrix type="matrix" values="0 0 0 0 1 0 0 0 0 1 0 0 0 0 1 0 0 0 1 0"/>
<feBlend mode="normal" in2="shape" result="effect1_innerShadow_205_4833"/>
</filter>
<filter id="filter3_di_205_4833" x="106.666" y="104.666" width="297.666" height="297.667" filterUnits="userSpaceOnUse" color-interpolation-filters="sRGB">
<feFlood flood-opacity="0" result="BackgroundImageFix"/>
<feColorMatrix in="SourceAlpha" type="matrix" values="0 0 0 0 0 0 0 0 0 0 0 0 0 0 0 0 0 0 127 0" result="hardAlpha"/>
<feMorphology radius="19.5833" operator="dilate" in="SourceAlpha" result="effect1_dropShadow_205_4833"/>
<feOffset/>
<feGaussianBlur stdDeviation="9.79167"/>
<feComposite in2="hardAlpha" operator="out"/>
<feColorMatrix type="matrix" values="0 0 0 0 1 0 0 0 0 1 0 0 0 0 1 0 0 0 0.25 0"/>
<feBlend mode="normal" in2="BackgroundImageFix" result="effect1_dropShadow_205_4833"/>
<feBlend mode="normal" in="SourceGraphic" in2="effect1_dropShadow_205_4833" result="shape"/>
<feColorMatrix in="SourceAlpha" type="matrix" values="0 0 0 0 0 0 0 0 0 0 0 0 0 0 0 0 0 0 127 0" result="hardAlpha"/>
<feOffset dy="-11.75"/>
<feGaussianBlur stdDeviation="7.83333"/>
<feComposite in2="hardAlpha" operator="arithmetic" k2="-1" k3="1"/>
<feColorMatrix type="matrix" values="0 0 0 0 1 0 0 0 0 1 0 0 0 0 1 0 0 0 0.5 0"/>
<feBlend mode="normal" in2="shape" result="effect2_innerShadow_205_4833"/>
</filter>
<radialGradient id="paint0_radial_205_4833" cx="0" cy="0" r="1" gradientUnits="userSpaceOnUse" gradientTransform="translate(255.5 42) rotate(90) scale(423)">
<stop stop-color="white"/>
<stop offset="1" stop-color="#DBDBDB"/>
</radialGradient>
<radialGradient id="paint1_radial_205_4833" cx="0" cy="0" r="1" gradientUnits="userSpaceOnUse" gradientTransform="translate(255.5 42) rotate(90) scale(423)">
<stop stop-color="white"/>
<stop offset="1" stop-color="#DBDBDB"/>
</radialGradient>
<radialGradient id="paint2_radial_205_4833" cx="0" cy="0" r="1" gradientUnits="userSpaceOnUse" gradientTransform="translate(247.667 243.708) rotate(87.9727) scale(221.43)">
<stop stop-color="white" stop-opacity="0.7"/>
<stop offset="1" stop-color="#DBDBDB" stop-opacity="0.9"/>
</radialGradient>
<radialGradient id="paint3_radial_205_4833" cx="0" cy="0" r="1" gradientUnits="userSpaceOnUse" gradientTransform="translate(255.5 143.833) rotate(90) scale(219.333)">
<stop stop-color="#67BFFF"/>
<stop offset="1" stop-color="#0075FF"/>
</radialGradient>
<linearGradient id="paint4_linear_205_4833" x1="255.5" y1="198.667" x2="255.5" y2="382.75" gradientUnits="userSpaceOnUse">
<stop offset="0.177083" stop-color="#050505"/>
<stop offset="1" stop-color="#050505" stop-opacity="0"/>
</linearGradient>
<clipPath id="clip0_205_4833">
<rect width="512" height="512" fill="white"/>
</clipPath>
</defs>
</svg>
