<svg fill="none" height="299" viewBox="0 0 1070 299" width="1070" xmlns="http://www.w3.org/2000/svg" xmlns:xlink="http://www.w3.org/1999/xlink"><filter id="a" color-interpolation-filters="sRGB" filterUnits="userSpaceOnUse" height="148.773" width="770.5" x="299.445" y="58.8828"><feFlood flood-opacity="0" result="BackgroundImageFix"/><feBlend in="SourceGraphic" in2="BackgroundImageFix" mode="normal" result="shape"/><feGaussianBlur result="effect1_foregroundBlur_106_24239" stdDeviation="11"/></filter><filter id="b" color-interpolation-filters="sRGB" filterUnits="userSpaceOnUse" height="266.667" width="266.667" x=".666668" y="31.6667"><feFlood flood-opacity="0" result="BackgroundImageFix"/><feBlend in="SourceGraphic" in2="BackgroundImageFix" mode="normal" result="shape"/><feGaussianBlur result="effect1_foregroundBlur_106_24239" stdDeviation="29.1667"/></filter><filter id="c" color-interpolation-filters="sRGB" filterUnits="userSpaceOnUse" height="264" width="264" x="2" y="-34"><feFlood flood-opacity="0" result="BackgroundImageFix"/><feColorMatrix in="SourceAlpha" result="hardAlpha" type="matrix" values="0 0 0 0 0 0 0 0 0 0 0 0 0 0 0 0 0 0 127 0"/><feOffset dy="-10"/><feGaussianBlur stdDeviation="12"/><feComposite in2="hardAlpha" operator="out"/><feColorMatrix type="matrix" values="0 0 0 0 0 0 0 0 0 0 0 0 0 0 0 0 0 0 0.12 0"/><feBlend in2="BackgroundImageFix" mode="normal" result="effect1_dropShadow_106_24239"/><feBlend in="SourceGraphic" in2="effect1_dropShadow_106_24239" mode="normal" result="shape"/><feColorMatrix in="SourceAlpha" result="hardAlpha" type="matrix" values="0 0 0 0 0 0 0 0 0 0 0 0 0 0 0 0 0 0 127 0"/><feOffset dy="-26"/><feGaussianBlur stdDeviation="12"/><feComposite in2="hardAlpha" k2="-1" k3="1" operator="arithmetic"/><feColorMatrix type="matrix" values="0 0 0 0 1 0 0 0 0 1 0 0 0 0 1 0 0 0 1 0"/><feBlend in2="shape" mode="normal" result="effect2_innerShadow_106_24239"/></filter><filter id="d" color-interpolation-filters="sRGB" filterUnits="userSpaceOnUse" height="216" width="216" x="26" y="0"><feFlood flood-opacity="0" result="BackgroundImageFix"/><feBlend in="SourceGraphic" in2="BackgroundImageFix" mode="normal" result="shape"/><feColorMatrix in="SourceAlpha" result="hardAlpha" type="matrix" values="0 0 0 0 0 0 0 0 0 0 0 0 0 0 0 0 0 0 127 0"/><feMorphology in="SourceAlpha" operator="erode" radius="12" result="effect1_innerShadow_106_24239"/><feOffset/><feGaussianBlur stdDeviation="11"/><feComposite in2="hardAlpha" k2="-1" k3="1" operator="arithmetic"/><feColorMatrix type="matrix" values="0 0 0 0 1 0 0 0 0 1 0 0 0 0 1 0 0 0 1 0"/><feBlend in2="shape" mode="normal" result="effect1_innerShadow_106_24239"/></filter><filter id="e" color-interpolation-filters="sRGB" filterUnits="userSpaceOnUse" height="152" width="152" x="58" y="32"><feFlood flood-opacity="0" result="BackgroundImageFix"/><feColorMatrix in="SourceAlpha" result="hardAlpha" type="matrix" values="0 0 0 0 0 0 0 0 0 0 0 0 0 0 0 0 0 0 127 0"/><feMorphology in="SourceAlpha" operator="dilate" radius="10" result="effect1_dropShadow_106_24239"/><feOffset/><feGaussianBlur stdDeviation="5"/><feComposite in2="hardAlpha" operator="out"/><feColorMatrix type="matrix" values="0 0 0 0 1 0 0 0 0 1 0 0 0 0 1 0 0 0 0.25 0"/><feBlend in2="BackgroundImageFix" mode="normal" result="effect1_dropShadow_106_24239"/><feBlend in="SourceGraphic" in2="effect1_dropShadow_106_24239" mode="normal" result="shape"/><feColorMatrix in="SourceAlpha" result="hardAlpha" type="matrix" values="0 0 0 0 0 0 0 0 0 0 0 0 0 0 0 0 0 0 127 0"/><feOffset dy="-6"/><feGaussianBlur stdDeviation="4"/><feComposite in2="hardAlpha" k2="-1" k3="1" operator="arithmetic"/><feColorMatrix type="matrix" values="0 0 0 0 1 0 0 0 0 1 0 0 0 0 1 0 0 0 0.5 0"/><feBlend in2="shape" mode="normal" result="effect2_innerShadow_106_24239"/></filter><linearGradient id="f" gradientUnits="userSpaceOnUse" x1="371.803" x2="943.943" y1="64.5" y2="161.097"><stop offset="0" stop-color="#464646"/><stop offset=".243151"/><stop offset=".690799"/><stop offset="1" stop-color="#464646"/></linearGradient><radialGradient id="g" cx="0" cy="0" gradientTransform="matrix(0 216 -216 0 134 0)" gradientUnits="userSpaceOnUse" r="1"><stop offset="0" stop-color="#fff"/><stop offset="1" stop-color="#dbdbdb"/></radialGradient><radialGradient id="h" cx="0" cy="0" gradientTransform="matrix(3.99996321 113.00022715 -113.00022715 3.99996321 130 103)" gradientUnits="userSpaceOnUse" r="1"><stop offset="0" stop-color="#fff" stop-opacity=".7"/><stop offset="1" stop-color="#dbdbdb" stop-opacity=".9"/></radialGradient><radialGradient id="i" cx="0" cy="0" gradientTransform="matrix(0 112 -112 0 134 52)" gradientUnits="userSpaceOnUse" r="1"><stop offset="0" stop-color="#67bfff"/><stop offset="1" stop-color="#0075ff"/></radialGradient><linearGradient id="j" gradientUnits="userSpaceOnUse" x1="134" x2="134" y1="80" y2="174"><stop offset=".177083" stop-color="#050505"/><stop offset="1" stop-color="#050505" stop-opacity="0"/></linearGradient><mask id="k" height="216" maskUnits="userSpaceOnUse" width="216" x="26" y="0"><circle cx="134" cy="108" fill="url(#g)" r="108"/></mask><g filter="url(#a)" opacity=".2"><path d="m391.641 149.613c0 2.617-.332 4.981-.996 7.09-.665 2.07-1.543 3.906-2.637 5.508-1.094 1.562-2.363 2.91-3.809 4.043-1.445 1.094-2.969 1.992-4.57 2.695-1.563.703-3.164 1.231-4.805 1.582-1.601.313-3.125.469-4.57.469h-27.481c-2.617 0-4.961-.332-7.031-.996s-3.906-1.543-5.508-2.637c-1.562-1.133-2.91-2.422-4.043-3.867-1.093-1.445-1.992-2.949-2.695-4.512-.703-1.601-1.23-3.203-1.582-4.804-.312-1.641-.469-3.164-.469-4.571v-20.625c0-3.906.703-7.207 2.11-9.902 1.445-2.734 3.222-4.941 5.332-6.621 2.148-1.719 4.472-2.949 6.972-3.692 2.5-.742 4.805-1.113 6.914-1.113h27.481v15.235h-27.363c-2.032 0-3.575.527-4.629 1.582-1.055 1.015-1.582 2.519-1.582 4.511v20.508c0 2.07.508 3.633 1.523 4.688 1.055 1.054 2.578 1.582 4.57 1.582h27.481c2.07 0 3.613-.528 4.629-1.582 1.015-1.055 1.523-2.579 1.523-4.571v-68.7302h15.235zm82.675-20.976c0 2.109-.371 4.394-1.113 6.855-.742 2.422-1.953 4.688-3.633 6.797-1.64 2.07-3.808 3.809-6.504 5.215-2.656 1.406-5.898 2.109-9.726 2.109h-27.481v-14.472h27.481c2.07 0 3.672-.625 4.805-1.875 1.132-1.289 1.699-2.871 1.699-4.746 0-1.993-.645-3.555-1.934-4.688-1.25-1.133-2.773-1.699-4.57-1.699h-27.481c-2.07 0-3.671.644-4.804 1.933-1.133 1.25-1.7 2.813-1.7 4.688v21.269c0 2.032.625 3.614 1.875 4.747 1.29 1.132 2.872 1.699 4.747 1.699h27.363v14.531h-27.481c-2.109 0-4.394-.371-6.855-1.113-2.422-.742-4.688-1.934-6.797-3.575-2.07-1.679-3.809-3.847-5.215-6.503-1.406-2.696-2.109-5.957-2.109-9.786v-21.386c0-2.11.371-4.375 1.113-6.797.742-2.461 1.934-4.727 3.574-6.797 1.68-2.109 3.848-3.867 6.504-5.273 2.696-1.407 5.957-2.11 9.785-2.11h27.481c2.109 0 4.375.371 6.797 1.113 2.461.743 4.726 1.954 6.797 3.633 2.109 1.641 3.867 3.809 5.273 6.504 1.406 2.656 2.109 5.899 2.109 9.727zm100.137 8.379c0 5.117-.879 9.824-2.637 14.121-1.757 4.297-4.199 8.008-7.324 11.133s-6.836 5.566-11.133 7.324c-4.257 1.718-8.906 2.578-13.945 2.578h-20.625c-5.039 0-9.707-.86-14.004-2.578-4.297-1.758-8.008-4.199-11.133-7.324s-5.586-6.836-7.382-11.133c-1.758-4.297-2.637-9.004-2.637-14.121v-16.055c0-5.078.879-9.766 2.637-14.063 1.796-4.336 4.257-8.0464 7.382-11.1324 3.125-3.125 6.836-5.5664 11.133-7.3242s8.965-2.6367 14.004-2.6367h20.625c5.039 0 9.688.8789 13.945 2.6367 4.297 1.7578 8.008 4.1992 11.133 7.3242 3.125 3.086 5.567 6.7964 7.324 11.1324 1.758 4.297 2.637 8.985 2.637 14.063zm-15.234-16.055c0-3.008-.489-5.723-1.465-8.145-.938-2.461-2.285-4.55-4.043-6.269-1.719-1.758-3.809-3.106-6.27-4.043-2.421-.977-5.097-1.465-8.027-1.465h-20.625c-2.969 0-5.684.488-8.144 1.465-2.422.937-4.512 2.285-6.27 4.043-1.758 1.719-3.125 3.808-4.102 6.269-.937 2.422-1.406 5.137-1.406 8.145v16.055c0 3.007.469 5.742 1.406 8.203.977 2.422 2.344 4.511 4.102 6.269 1.758 1.719 3.848 3.067 6.27 4.043 2.46.938 5.175 1.407 8.144 1.407h20.508c2.969 0 5.664-.469 8.086-1.407 2.461-.976 4.57-2.324 6.328-4.043 1.758-1.758 3.105-3.847 4.043-6.269.976-2.461 1.465-5.196 1.465-8.203zm83.672 1.934h-34.278c-2.07 0-3.633.527-4.687 1.582-1.055 1.015-1.582 2.519-1.582 4.511v42.012h-15.235v-42.012c0-2.617.332-4.961.996-7.031.665-2.07 1.543-3.887 2.637-5.449 1.133-1.602 2.422-2.949 3.867-4.043 1.446-1.133 2.95-2.051 4.512-2.754 1.602-.703 3.203-1.211 4.805-1.523 1.64-.352 3.164-.528 4.57-.528h34.395zm70.547 27.128c0 2.11-.372 4.395-1.114 6.856-.742 2.422-1.953 4.687-3.633 6.797-1.64 2.07-3.808 3.808-6.503 5.215-2.657 1.406-5.899 2.109-9.727 2.109h-27.481c-2.109 0-4.394-.371-6.855-1.113-2.422-.742-4.687-1.934-6.797-3.575-2.07-1.679-3.808-3.847-5.215-6.503-1.406-2.696-2.109-5.957-2.109-9.786 0-2.109.371-4.394 1.113-6.855s1.934-4.727 3.574-6.797c1.68-2.109 3.848-3.867 6.504-5.273 2.696-1.407 5.957-2.11 9.785-2.11h27.481v14.532h-27.481c-2.07 0-3.671.644-4.804 1.933-1.133 1.25-1.699 2.813-1.699 4.688 0 1.992.644 3.554 1.933 4.687 1.328 1.094 2.891 1.641 4.688 1.641h27.363c2.07 0 3.672-.625 4.805-1.875 1.132-1.25 1.699-2.813 1.699-4.688v-21.269c0-1.992-.625-3.575-1.875-4.746-1.211-1.172-2.754-1.758-4.629-1.758h-33.457v-14.473h33.457c2.109 0 4.375.371 6.797 1.113 2.461.743 4.726 1.954 6.797 3.633 2.109 1.641 3.867 3.809 5.273 6.504 1.406 2.656 2.11 5.899 2.11 9.727zm74.355 20.977h-41.309c-2.109 0-4.414-.371-6.914-1.113s-4.824-1.953-6.972-3.633c-2.11-1.719-3.887-3.926-5.332-6.621-1.407-2.735-2.11-6.074-2.11-10.02v-20.625c0-1.445.156-2.968.469-4.57.352-1.602.879-3.184 1.582-4.746.703-1.602 1.602-3.125 2.695-4.57 1.133-1.446 2.481-2.715 4.043-3.809 1.602-1.094 3.438-1.973 5.508-2.637s4.414-.996 7.031-.996h41.309v15.235h-41.309c-1.992 0-3.515.507-4.57 1.523-1.016 1.016-1.523 2.578-1.523 4.687v20.508c0 1.992.527 3.516 1.582 4.571 1.054 1.054 2.597 1.582 4.629 1.582h41.191zm40.43 0h-6.797c-2.188 0-4.531-.371-7.031-1.113-2.461-.742-4.766-1.953-6.915-3.633-2.148-1.719-3.925-3.926-5.332-6.621-1.406-2.735-2.109-6.074-2.109-10.02v-68.7302h15.234v68.7302c0 1.875.586 3.379 1.758 4.512 1.172 1.094 2.637 1.641 4.395 1.641h6.797zm77.929-42.363c0 2.109-.371 4.394-1.113 6.855-.742 2.422-1.953 4.688-3.633 6.797-1.64 2.07-3.808 3.809-6.504 5.215-2.656 1.406-5.898 2.109-9.726 2.109h-27.481v-14.472h27.481c2.07 0 3.672-.625 4.804-1.875 1.133-1.289 1.7-2.871 1.7-4.746 0-1.993-.645-3.555-1.934-4.688-1.25-1.133-2.773-1.699-4.57-1.699h-27.481c-2.07 0-3.672.644-4.804 1.933-1.133 1.25-1.7 2.813-1.7 4.688v21.269c0 2.032.625 3.614 1.875 4.747 1.289 1.132 2.872 1.699 4.746 1.699h27.364v14.531h-27.481c-2.109 0-4.394-.371-6.855-1.113-2.422-.742-4.688-1.934-6.797-3.575-2.07-1.679-3.809-3.847-5.215-6.503-1.406-2.696-2.109-5.957-2.109-9.786v-21.386c0-2.11.371-4.375 1.113-6.797.742-2.461 1.934-4.727 3.574-6.797 1.68-2.109 3.848-3.867 6.504-5.273 2.695-1.407 5.957-2.11 9.785-2.11h27.481c2.109 0 4.375.371 6.797 1.113 2.461.743 4.726 1.954 6.797 3.633 2.109 1.641 3.867 3.809 5.273 6.504 1.406 2.656 2.109 5.899 2.109 9.727zm13.7 38.269c0 .563-.115 1.094-.344 1.594-.209.479-.5.906-.875 1.281-.354.354-.781.636-1.281.844-.48.208-.99.313-1.532.313-.562 0-1.093-.105-1.593-.313-.48-.208-.907-.49-1.282-.844-.354-.375-.635-.802-.843-1.281-.209-.5-.313-1.031-.313-1.594 0-.541.104-1.052.313-1.531.208-.5.489-.927.843-1.281.375-.375.802-.667 1.282-.875.5-.229 1.031-.344 1.593-.344.542 0 1.052.115 1.532.344.5.208.927.5 1.281.875.375.354.666.781.875 1.281.229.479.344.99.344 1.531zm44.937-29.687-14.594 15.937 16.438 17.844h-11.188l-10.812-11.781-10.813 11.781h-11.218l16.406-17.906-14.531-15.875h11.125l8.968 9.781 9.032-9.781zm42.911 37.031c0 1.396-.18 2.646-.54 3.75-.35 1.125-.82 2.104-1.4 2.938-.59.854-1.26 1.572-2.03 2.156-.77.604-1.59 1.094-2.44 1.468-.83.376-1.678.646-2.532.813-.854.187-1.667.281-2.438.281h-14.656v-8.125h14.656c1.084 0 1.896-.281 2.438-.843.541-.563.812-1.376.812-2.438v-37.031h8.13zm-11.38-3.25h-14.656c-1.167 0-2.417-.198-3.75-.594-1.312-.396-2.542-1.041-3.687-1.937-1.146-.917-2.094-2.094-2.844-3.531-.75-1.459-1.125-3.24-1.125-5.344v-22.375h8.125v22.375c0 1.062.281 1.875.844 2.437.562.563 1.395.844 2.5.844h14.593zm51.13-31.281c.33.771.41 1.552.25 2.343-.15.792-.5 1.48-1.07 2.063l-18.78 18.75h19.53v8.125h-29.31c-.83 0-1.59-.229-2.28-.688-.67-.479-1.17-1.083-1.5-1.812-.31-.771-.4-1.552-.25-2.344.17-.812.55-1.521 1.16-2.125l18.68-18.687h-19.53v-8.125h29.38c.81 0 1.55.219 2.22.656.68.437 1.18 1.052 1.5 1.844z" fill="#000"/></g><path d="m394.695 115.844c0 5.117-.898 9.824-2.695 14.121-1.758 4.297-4.199 8.008-7.324 11.133-3.125 3.086-6.836 5.507-11.133 7.265s-8.965 2.637-14.004 2.637h-41.133c-1.094 0-2.109-.195-3.047-.586-.937-.391-1.757-.918-2.461-1.582-.664-.703-1.191-1.523-1.582-2.461-.39-.937-.586-1.953-.586-3.047v-68.6717c0-1.0546.196-2.0507.586-2.9882.391-.9375.918-1.7579 1.582-2.461.704-.7031 1.524-1.25 2.461-1.6406.938-.3906 1.953-.5859 3.047-.5859h41.133c5.039 0 9.707.8789 14.004 2.6367s8.008 4.1992 11.133 7.3242c3.125 3.0859 5.566 6.7969 7.324 11.1328 1.797 4.2969 2.695 8.9844 2.695 14.0627zm-15.234-13.711c0-2.9689-.488-5.6838-1.465-8.1447-.937-2.461-2.285-4.5508-4.043-6.2695-1.758-1.7579-3.867-3.1055-6.328-4.043-2.422-.9766-5.117-1.4649-8.086-1.4649h-33.574v53.5551h33.574c2.969 0 5.664-.469 8.086-1.407 2.461-.976 4.57-2.324 6.328-4.043 1.758-1.757 3.106-3.847 4.043-6.269.977-2.461 1.465-5.195 1.465-8.203zm96.621 6.504c0 2.109-.371 4.394-1.113 6.855-.742 2.422-1.953 4.688-3.633 6.797-1.641 2.07-3.809 3.809-6.504 5.215-2.656 1.406-5.898 2.109-9.727 2.109h-27.48v-14.472h27.48c2.071 0 3.672-.625 4.805-1.875 1.133-1.289 1.699-2.871 1.699-4.746 0-1.993-.644-3.555-1.933-4.688-1.25-1.133-2.774-1.699-4.571-1.699h-27.48c-2.07 0-3.672.644-4.805 1.933-1.132 1.25-1.699 2.813-1.699 4.688v21.269c0 2.032.625 3.614 1.875 4.747 1.289 1.132 2.871 1.699 4.746 1.699h27.363v14.531h-27.48c-2.109 0-4.395-.371-6.855-1.113-2.422-.742-4.688-1.934-6.797-3.575-2.071-1.679-3.809-3.847-5.215-6.503-1.406-2.696-2.11-5.957-2.11-9.786v-21.386c0-2.11.372-4.375 1.114-6.797.742-2.4611 1.933-4.7267 3.574-6.797 1.68-2.1094 3.848-3.8672 6.504-5.2735 2.695-1.4062 5.957-2.1093 9.785-2.1093h27.48c2.11 0 4.375.371 6.797 1.1132 2.461.7422 4.727 1.9532 6.797 3.6328 2.11 1.6407 3.867 3.8086 5.274 6.504 1.406 2.6558 2.109 5.8988 2.109 9.7268zm100.137 8.379c0 5.117-.879 9.824-2.637 14.121s-4.199 8.008-7.324 11.133-6.836 5.566-11.133 7.324c-4.258 1.718-8.906 2.578-13.945 2.578h-20.625c-5.039 0-9.707-.86-14.004-2.578-4.297-1.758-8.008-4.199-11.133-7.324s-5.586-6.836-7.383-11.133c-1.758-4.297-2.637-9.004-2.637-14.121v-16.055c0-5.0782.879-9.7657 2.637-14.0626 1.797-4.3359 4.258-8.0468 7.383-11.1328 3.125-3.125 6.836-5.5664 11.133-7.3242s8.965-2.6367 14.004-2.6367h20.625c5.039 0 9.687.8789 13.945 2.6367 4.297 1.7578 8.008 4.1992 11.133 7.3242 3.125 3.086 5.566 6.7969 7.324 11.1328 1.758 4.2969 2.637 8.9844 2.637 14.0626zm-15.235-16.055c0-3.0079-.488-5.7227-1.464-8.1446-.938-2.4609-2.286-4.5508-4.043-6.2695-1.719-1.7578-3.809-3.1055-6.27-4.043-2.422-.9766-5.098-1.4648-8.027-1.4648h-20.625c-2.969 0-5.684.4882-8.145 1.4648-2.422.9375-4.512 2.2852-6.269 4.043-1.758 1.7187-3.125 3.8086-4.102 6.2695-.937 2.4219-1.406 5.1367-1.406 8.1446v16.055c0 3.007.469 5.742 1.406 8.203.977 2.422 2.344 4.511 4.102 6.269 1.757 1.719 3.847 3.067 6.269 4.043 2.461.938 5.176 1.407 8.145 1.407h20.507c2.969 0 5.665-.469 8.086-1.407 2.461-.976 4.571-2.324 6.329-4.043 1.757-1.758 3.105-3.847 4.043-6.269.976-2.461 1.464-5.196 1.464-8.203zm83.672 1.934h-34.277c-2.07 0-3.633.527-4.688 1.582-1.054 1.015-1.582 2.519-1.582 4.511v42.012h-15.234v-42.012c0-2.617.332-4.961.996-7.031.664-2.0703 1.543-3.8867 2.637-5.4492 1.133-1.6016 2.422-2.9492 3.867-4.043 1.445-1.1328 2.949-2.0507 4.512-2.7539 1.601-.7031 3.203-1.2109 4.804-1.5234 1.641-.3516 3.164-.5273 4.571-.5273h34.394zm70.547 27.128c0 2.11-.371 4.395-1.113 6.856-.742 2.422-1.953 4.687-3.633 6.797-1.641 2.07-3.809 3.808-6.504 5.215-2.656 1.406-5.898 2.109-9.726 2.109h-27.481c-2.109 0-4.394-.371-6.855-1.113-2.422-.742-4.688-1.934-6.797-3.575-2.071-1.679-3.809-3.847-5.215-6.503-1.406-2.696-2.109-5.957-2.109-9.786 0-2.109.371-4.394 1.113-6.855s1.933-4.727 3.574-6.797c1.68-2.109 3.848-3.867 6.504-5.273 2.695-1.407 5.957-2.11 9.785-2.11h27.481v14.532h-27.481c-2.07 0-3.672.644-4.805 1.933-1.132 1.25-1.699 2.813-1.699 4.688 0 1.992.645 3.554 1.934 4.687 1.328 1.094 2.89 1.641 4.687 1.641h27.364c2.07 0 3.671-.625 4.804-1.875s1.699-2.813 1.699-4.688v-21.269c0-1.992-.625-3.575-1.875-4.746-1.21-1.172-2.753-1.758-4.628-1.758h-33.457v-14.4728h33.457c2.109 0 4.375.371 6.796 1.1132 2.461.7422 4.727 1.9532 6.797 3.6328 2.11 1.6407 3.868 3.8086 5.274 6.504 1.406 2.6558 2.109 5.8988 2.109 9.7268zm74.356 20.977h-41.309c-2.109 0-4.414-.371-6.914-1.113s-4.824-1.953-6.973-3.633c-2.109-1.719-3.886-3.926-5.332-6.621-1.406-2.735-2.109-6.074-2.109-10.02v-20.625c0-1.445.156-2.968.469-4.57.351-1.602.879-3.184 1.582-4.7461.703-1.6016 1.601-3.125 2.695-4.5703 1.133-1.4454 2.48-2.7149 4.043-3.8086 1.601-1.0938 3.437-1.9727 5.508-2.6368 2.07-.664 4.414-.996 7.031-.996h41.309v15.2348h-41.309c-1.992 0-3.516.507-4.57 1.523-1.016 1.016-1.524 2.578-1.524 4.687v20.508c0 1.992.528 3.516 1.582 4.571 1.055 1.054 2.598 1.582 4.629 1.582h41.192zm40.429 0h-6.797c-2.187 0-4.531-.371-7.031-1.113-2.461-.742-4.765-1.953-6.914-3.633-2.148-1.719-3.926-3.926-5.332-6.621-1.406-2.735-2.109-6.074-2.109-10.02v-68.7302h15.234v68.7302c0 1.875.586 3.379 1.758 4.512 1.172 1.094 2.637 1.641 4.394 1.641h6.797zm77.93-42.363c0 2.109-.371 4.394-1.113 6.855-.743 2.422-1.953 4.688-3.633 6.797-1.641 2.07-3.809 3.809-6.504 5.215-2.656 1.406-5.898 2.109-9.727 2.109h-27.48v-14.472h27.48c2.071 0 3.672-.625 4.805-1.875 1.133-1.289 1.699-2.871 1.699-4.746 0-1.993-.644-3.555-1.933-4.688-1.25-1.133-2.774-1.699-4.571-1.699h-27.48c-2.07 0-3.672.644-4.805 1.933-1.133 1.25-1.699 2.813-1.699 4.688v21.269c0 2.032.625 3.614 1.875 4.747 1.289 1.132 2.871 1.699 4.746 1.699h27.363v14.531h-27.48c-2.109 0-4.395-.371-6.856-1.113-2.421-.742-4.687-1.934-6.796-3.575-2.071-1.679-3.809-3.847-5.215-6.503-1.406-2.696-2.11-5.957-2.11-9.786v-21.386c0-2.11.371-4.375 1.114-6.797.742-2.4611 1.933-4.7267 3.574-6.797 1.68-2.1094 3.848-3.8672 6.504-5.2735 2.695-1.4062 5.957-2.1093 9.785-2.1093h27.48c2.11 0 4.375.371 6.797 1.1132 2.461.7422 4.727 1.9532 6.797 3.6328 2.11 1.6407 3.867 3.8086 5.274 6.504 1.406 2.6558 2.109 5.8988 2.109 9.7268zm13.699 38.269c0 .563-.114 1.094-.344 1.594-.208.479-.5.906-.875 1.281-.354.354-.781.636-1.281.844-.479.208-.989.313-1.531.313-.563 0-1.094-.105-1.594-.313-.479-.208-.906-.49-1.281-.844-.354-.375-.635-.802-.844-1.281-.208-.5-.312-1.031-.312-1.594 0-.541.104-1.052.312-1.531.209-.5.49-.927.844-1.281.375-.375.802-.667 1.281-.875.5-.229 1.031-.344 1.594-.344.542 0 1.052.115 1.531.344.5.208.927.5 1.281.875.375.354.667.781.875 1.281.23.479.344.99.344 1.531zm44.938-29.687-14.594 15.937 16.437 17.844h-11.187l-10.813-11.781-10.812 11.781h-11.219l16.406-17.906-14.531-15.875h11.125l8.969 9.781 9.031-9.781zm42.905 37.031c0 1.396-.18 2.646-.53 3.75-.35 1.125-.82 2.104-1.41 2.938-.58.854-1.26 1.572-2.03 2.156-.77.604-1.58 1.094-2.44 1.468-.83.376-1.67.646-2.53.813-.851.187-1.663.281-2.434.281h-14.656v-8.125h14.656c1.083 0 1.896-.281 2.434-.843.55-.563.82-1.376.82-2.438v-37.031h8.12zm-11.374-3.25h-14.656c-1.167 0-2.417-.198-3.75-.594-1.313-.396-2.542-1.041-3.688-1.937-1.146-.917-2.094-2.094-2.844-3.531-.75-1.459-1.125-3.24-1.125-5.344v-22.375h8.125v22.375c0 1.062.282 1.875.844 2.437.563.563 1.396.844 2.5.844h14.594zm51.124-31.281c.33.771.42 1.552.25 2.343-.14.792-.5 1.48-1.06 2.063l-18.78 18.75h19.53v8.125h-29.31c-.84 0-1.6-.229-2.29-.688-.66-.479-1.16-1.083-1.5-1.812-.31-.771-.39-1.552-.25-2.344.17-.812.56-1.521 1.16-2.125l18.69-18.687h-19.53v-8.125h29.37c.81 0 1.55.219 2.22.656.69.437 1.19 1.052 1.5 1.844z" fill="url(#f)"/><g filter="url(#b)" opacity=".2"><circle cx="134" cy="165" fill="#000" r="75"/></g><g mask="url(#k)"><g filter="url(#c)"><circle cx="134" cy="108" fill="url(#g)" r="108"/></g><g fill="#000" fill-opacity=".3"><path d="m60.8272 150.314c1.0863 0 1.9669-.881 1.9669-1.967 0-1.087-.8806-1.967-1.9669-1.967-1.0862 0-1.9668.88-1.9668 1.967 0 1.086.8806 1.967 1.9668 1.967z"/><path d="m186.707 66.3932c1.087 0 1.967-.8806 1.967-1.9669 0-1.0862-.88-1.9668-1.967-1.9668-1.086 0-1.967.8806-1.967 1.9668 0 1.0863.881 1.9669 1.967 1.9669z"/><path d="m71.3172 3.45328c1.0863 0 1.9669-.8806 1.9669-1.96687 0-1.086279-.8806-1.966879-1.9669-1.966879s-1.9669.8806-1.9669 1.966879c0 1.08627.8806 1.96687 1.9669 1.96687z"/><path d="m29.3573 24.4333c1.0862 0 1.9668-.8806 1.9668-1.9669s-.8806-1.9669-1.9668-1.9669c-1.0863 0-1.9669.8806-1.9669 1.9669s.8806 1.9669 1.9669 1.9669z"/><path d="m29.3573 129.333c1.0862 0 1.9668-.88 1.9668-1.967 0-1.086-.8806-1.967-1.9668-1.967-1.0863 0-1.9669.881-1.9669 1.967 0 1.087.8806 1.967 1.9669 1.967z"/><path d="m60.8272 118.843c1.0863 0 1.9669-.88 1.9669-1.966 0-1.087-.8806-1.967-1.9669-1.967-1.0862 0-1.9668.88-1.9668 1.967 0 1.086.8806 1.966 1.9668 1.966z"/><path d="m49.6836 94.0402c-.0006 0-.0013.0007-.002.0007-.5605.198-1.0018.6392-1.1998 1.1998-.3625 1.0241.1737 2.1478 1.1978 2.5104.0007 0 .0014.0006.002.0006 1.0241.3632 2.1478-.173 2.511-1.1965.1508-.4255.1508-.889 0-1.3145-.3612-1.0241-1.4849-1.5617-2.509-1.2005z"/><path d="m176.217 3.45328c1.087 0 1.967-.8806 1.967-1.96687 0-1.086279-.88-1.966879-1.967-1.966879-1.086 0-1.967.8806-1.967 1.966879 0 1.08627.881 1.96687 1.967 1.96687z"/><path d="m176.217 45.4132c1.087 0 1.967-.8806 1.967-1.9668 0-1.0863-.88-1.9669-1.967-1.9669-1.086 0-1.967.8806-1.967 1.9669 0 1.0862.881 1.9668 1.967 1.9668z"/><path d="m144.747 24.4333c1.087 0 1.967-.8806 1.967-1.9669s-.88-1.9669-1.967-1.9669c-1.086 0-1.967.8806-1.967 1.9669s.881 1.9669 1.967 1.9669z"/><path d="m144.747 45.4132c1.087 0 1.967-.8806 1.967-1.9668 0-1.0863-.88-1.9669-1.967-1.9669-1.086 0-1.967.8806-1.967 1.9669 0 1.0862.881 1.9668 1.967 1.9668z"/><path d="m134.257 45.4132c1.087 0 1.967-.8806 1.967-1.9668 0-1.0863-.88-1.9669-1.967-1.9669-1.086 0-1.967.8806-1.967 1.9669 0 1.0862.881 1.9668 1.967 1.9668z"/><path d="m102.787 3.45328c1.086 0 1.967-.8806 1.967-1.96687 0-1.086279-.881-1.966879-1.967-1.966879s-1.967.8806-1.967 1.966879c0 1.08627.881 1.96687 1.967 1.96687z"/><path d="m228.667 129.333c1.087 0 1.967-.88 1.967-1.967 0-1.086-.88-1.967-1.967-1.967-1.086 0-1.967.881-1.967 1.967 0 1.087.881 1.967 1.967 1.967z"/><path d="m228.667 24.4333c1.087 0 1.967-.8806 1.967-1.9669s-.88-1.9669-1.967-1.9669c-1.086 0-1.967.8806-1.967 1.9669s.881 1.9669 1.967 1.9669z"/><path d="m155.237 45.4132c1.087 0 1.967-.8806 1.967-1.9668 0-1.0863-.88-1.9669-1.967-1.9669-1.086 0-1.967.8806-1.967 1.9669 0 1.0862.881 1.9668 1.967 1.9668z"/><path d="m218.177 34.9235c1.086 0 1.967-.8806 1.967-1.9669s-.881-1.9669-1.967-1.9669-1.967.8806-1.967 1.9669.881 1.9669 1.967 1.9669z"/><path d="m165.727 3.45328c1.087 0 1.967-.8806 1.967-1.96687 0-1.086279-.88-1.966879-1.967-1.966879-1.086 0-1.967.8806-1.967 1.966879 0 1.08627.881 1.96687 1.967 1.96687z"/><path d="m123.767 55.9035c1.086 0 1.967-.8806 1.967-1.9669s-.881-1.9669-1.967-1.9669-1.967.8806-1.967 1.9669.881 1.9669 1.967 1.9669z"/><path d="m239.157 118.843c1.087 0 1.967-.88 1.967-1.966 0-1.087-.88-1.967-1.967-1.967-1.086 0-1.967.88-1.967 1.967 0 1.086.881 1.966 1.967 1.966z"/><path d="m176.217 55.9035c1.087 0 1.967-.8806 1.967-1.9669s-.88-1.9669-1.967-1.9669c-1.086 0-1.967.8806-1.967 1.9669s.881 1.9669 1.967 1.9669z"/><path d="m113.277 13.9435c1.086 0 1.967-.8806 1.967-1.9669 0-1.0862-.881-1.9668-1.967-1.9668s-1.967.8806-1.967 1.9668c0 1.0863.881 1.9669 1.967 1.9669z"/><path d="m218.177 55.9035c1.086 0 1.967-.8806 1.967-1.9669s-.881-1.9669-1.967-1.9669-1.967.8806-1.967 1.9669.881 1.9669 1.967 1.9669z"/><path d="m207.687 13.9435c1.086 0 1.967-.8806 1.967-1.9669 0-1.0862-.881-1.9668-1.967-1.9668s-1.967.8806-1.967 1.9668c0 1.0863.881 1.9669 1.967 1.9669z"/><path d="m218.177 45.4132c1.086 0 1.967-.8806 1.967-1.9668 0-1.0863-.881-1.9669-1.967-1.9669s-1.967.8806-1.967 1.9669c0 1.0862.881 1.9668 1.967 1.9668z"/><path d="m218.177 118.843c1.086 0 1.967-.88 1.967-1.966 0-1.087-.881-1.967-1.967-1.967s-1.967.88-1.967 1.967c0 1.086.881 1.966 1.967 1.966z"/><path d="m81.8072 118.843c1.0863 0 1.9669-.88 1.9669-1.966 0-1.087-.8806-1.967-1.9669-1.967s-1.9669.88-1.9669 1.967c0 1.086.8806 1.966 1.9669 1.966z"/><path d="m92.2972 87.3732c1.0863 0 1.9669-.8806 1.9669-1.9669 0-1.0862-.8806-1.9668-1.9669-1.9668s-1.9669.8806-1.9669 1.9668c0 1.0863.8806 1.9669 1.9669 1.9669z"/><path d="m186.707 76.8835c1.087 0 1.967-.8806 1.967-1.9669s-.88-1.9669-1.967-1.9669c-1.086 0-1.967.8806-1.967 1.9669s.881 1.9669 1.967 1.9669z"/><path d="m81.8072 108.354c1.0863 0 1.9669-.881 1.9669-1.967s-.8806-1.967-1.9669-1.967-1.9669.881-1.9669 1.967.8806 1.967 1.9669 1.967z"/><path d="m81.8072 45.4132c1.0863 0 1.9669-.8806 1.9669-1.9668 0-1.0863-.8806-1.9669-1.9669-1.9669s-1.9669.8806-1.9669 1.9669c0 1.0862.8806 1.9668 1.9669 1.9668z"/><path d="m60.8272 24.4333c1.0863 0 1.9669-.8806 1.9669-1.9669s-.8806-1.9669-1.9669-1.9669c-1.0862 0-1.9668.8806-1.9668 1.9669s.8806 1.9669 1.9668 1.9669z"/><path d="m60.8272 13.9435c1.0863 0 1.9669-.8806 1.9669-1.9669 0-1.0862-.8806-1.9668-1.9669-1.9668-1.0862 0-1.9668.8806-1.9668 1.9668 0 1.0863.8806 1.9669 1.9668 1.9669z"/><path d="m81.8072 55.9035c1.0863 0 1.9669-.8806 1.9669-1.9669s-.8806-1.9669-1.9669-1.9669-1.9669.8806-1.9669 1.9669.8806 1.9669 1.9669 1.9669z"/><path d="m81.8072 66.3932c1.0863 0 1.9669-.8806 1.9669-1.9669 0-1.0862-.8806-1.9668-1.9669-1.9668s-1.9669.8806-1.9669 1.9668c0 1.0863.8806 1.9669 1.9669 1.9669z"/><path d="m39.8472 118.843c1.0863 0 1.9669-.88 1.9669-1.966 0-1.087-.8806-1.967-1.9669-1.967-1.0862 0-1.9668.88-1.9668 1.967 0 1.086.8806 1.966 1.9668 1.966z"/><path d="m155.237 129.333c1.087 0 1.967-.88 1.967-1.967 0-1.086-.88-1.967-1.967-1.967-1.086 0-1.967.881-1.967 1.967 0 1.087.881 1.967 1.967 1.967z"/><path d="m60.8272 202.763c1.0863 0 1.9669-.88 1.9669-1.967 0-1.086-.8806-1.966-1.9669-1.966-1.0862 0-1.9668.88-1.9668 1.966 0 1.087.8806 1.967 1.9668 1.967z"/><path d="m197.197 87.3732c1.086 0 1.967-.8806 1.967-1.9669 0-1.0862-.881-1.9668-1.967-1.9668s-1.967.8806-1.967 1.9668c0 1.0863.881 1.9669 1.967 1.9669z"/><path d="m60.8272 213.254c1.0863 0 1.9669-.881 1.9669-1.967 0-1.087-.8806-1.967-1.9669-1.967-1.0862 0-1.9668.88-1.9668 1.967 0 1.086.8806 1.967 1.9668 1.967z"/><path d="m207.687 192.274c1.086 0 1.967-.881 1.967-1.967 0-1.087-.881-1.967-1.967-1.967s-1.967.88-1.967 1.967c0 1.086.881 1.967 1.967 1.967z"/><path d="m123.114 94.0383c-.562.198-1.005.6406-1.202 1.2025-.361 1.0247.178 2.1477 1.202 2.5077 1.025.3606 2.148-.1777 2.509-1.2024.148-.4222.148-.8831 0-1.3053-.361-1.0248-1.484-1.563-2.509-1.2025z"/><path d="m144.747 139.823c1.087 0 1.967-.88 1.967-1.966 0-1.087-.88-1.967-1.967-1.967-1.086 0-1.967.88-1.967 1.967 0 1.086.881 1.966 1.967 1.966z"/><path d="m123.767 108.354c1.086 0 1.967-.881 1.967-1.967s-.881-1.967-1.967-1.967-1.967.881-1.967 1.967.881 1.967 1.967 1.967z"/><path d="m134.257 181.783c1.087 0 1.967-.88 1.967-1.967 0-1.086-.88-1.966-1.967-1.966-1.086 0-1.967.88-1.967 1.966 0 1.087.881 1.967 1.967 1.967z"/><path d="m155.237 108.354c1.087 0 1.967-.881 1.967-1.967s-.88-1.967-1.967-1.967c-1.086 0-1.967.881-1.967 1.967s.881 1.967 1.967 1.967z"/><path d="m186.707 108.354c1.087 0 1.967-.881 1.967-1.967s-.88-1.967-1.967-1.967c-1.086 0-1.967.881-1.967 1.967s.881 1.967 1.967 1.967z"/><path d="m92.2972 181.783c1.0863 0 1.9669-.88 1.9669-1.967 0-1.086-.8806-1.966-1.9669-1.966s-1.9669.88-1.9669 1.966c0 1.087.8806 1.967 1.9669 1.967z"/><path d="m123.767 160.803c1.086 0 1.967-.88 1.967-1.966 0-1.087-.881-1.967-1.967-1.967s-1.967.88-1.967 1.967c0 1.086.881 1.966 1.967 1.966z"/><path d="m113.277 150.314c1.086 0 1.967-.881 1.967-1.967 0-1.087-.881-1.967-1.967-1.967s-1.967.88-1.967 1.967c0 1.086.881 1.967 1.967 1.967z"/><path d="m123.767 118.843c1.086 0 1.967-.88 1.967-1.966 0-1.087-.881-1.967-1.967-1.967s-1.967.88-1.967 1.967c0 1.086.881 1.966 1.967 1.966z"/><path d="m134.257 118.843c1.087 0 1.967-.88 1.967-1.966 0-1.087-.88-1.967-1.967-1.967-1.086 0-1.967.88-1.967 1.967 0 1.086.881 1.966 1.967 1.966z"/><path d="m197.197 108.354c1.086 0 1.967-.881 1.967-1.967s-.881-1.967-1.967-1.967-1.967.881-1.967 1.967.881 1.967 1.967 1.967z"/><path d="m207.687 108.354c1.086 0 1.967-.881 1.967-1.967s-.881-1.967-1.967-1.967-1.967.881-1.967 1.967.881 1.967 1.967 1.967z"/><path d="m218.177 108.354c1.086 0 1.967-.881 1.967-1.967s-.881-1.967-1.967-1.967-1.967.881-1.967 1.967.881 1.967 1.967 1.967z"/><path d="m71.3172 34.9235c1.0863 0 1.9669-.8806 1.9669-1.9669s-.8806-1.9669-1.9669-1.9669-1.9669.8806-1.9669 1.9669.8806 1.9669 1.9669 1.9669z"/><path d="m60.8272 3.45328c1.0863 0 1.9669-.8806 1.9669-1.96687 0-1.086279-.8806-1.966879-1.9669-1.966879-1.0862 0-1.9668.8806-1.9668 1.966879 0 1.08627.8806 1.96687 1.9668 1.96687z"/><path d="m81.8072 129.333c1.0863 0 1.9669-.88 1.9669-1.967 0-1.086-.8806-1.967-1.9669-1.967s-1.9669.881-1.9669 1.967c0 1.087.8806 1.967 1.9669 1.967z"/><path d="m49.6816 160.692c1.0248.361 2.1479-.178 2.5085-1.202.3606-1.025-.1784-2.148-1.2025-2.509-.4222-.149-.8831-.149-1.3053 0-1.0248.361-1.563 1.484-1.2024 2.509.1967.562.6392 1.004 1.2017 1.202z"/><path d="m71.3172 139.823c1.0863 0 1.9669-.88 1.9669-1.966 0-1.087-.8806-1.967-1.9669-1.967s-1.9669.88-1.9669 1.967c0 1.086.8806 1.966 1.9669 1.966z"/><path d="m39.8472 171.294c1.0863 0 1.9669-.881 1.9669-1.967 0-1.087-.8806-1.967-1.9669-1.967-1.0862 0-1.9668.88-1.9668 1.967 0 1.086.8806 1.967 1.9668 1.967z"/><path d="m29.3573 181.783c1.0862 0 1.9668-.88 1.9668-1.967 0-1.086-.8806-1.966-1.9668-1.966-1.0863 0-1.9669.88-1.9669 1.966 0 1.087.8806 1.967 1.9669 1.967z"/><path d="m239.157 171.294c1.087 0 1.967-.881 1.967-1.967 0-1.087-.88-1.967-1.967-1.967-1.086 0-1.967.88-1.967 1.967 0 1.086.881 1.967 1.967 1.967z"/><path d="m165.727 181.783c1.087 0 1.967-.88 1.967-1.967 0-1.086-.88-1.966-1.967-1.966-1.086 0-1.967.88-1.967 1.966 0 1.087.881 1.967 1.967 1.967z"/><path d="m228.667 181.783c1.087 0 1.967-.88 1.967-1.967 0-1.086-.88-1.966-1.967-1.966-1.086 0-1.967.88-1.967 1.966 0 1.087.881 1.967 1.967 1.967z"/><path d="m165.727 202.763c1.087 0 1.967-.88 1.967-1.967 0-1.086-.88-1.966-1.967-1.966-1.086 0-1.967.88-1.967 1.966 0 1.087.881 1.967 1.967 1.967z"/><path d="m113.277 213.254c1.086 0 1.967-.881 1.967-1.967 0-1.087-.881-1.967-1.967-1.967s-1.967.88-1.967 1.967c0 1.086.881 1.967 1.967 1.967z"/><path d="m102.787 202.763c1.086 0 1.967-.88 1.967-1.967 0-1.086-.881-1.966-1.967-1.966s-1.967.88-1.967 1.966c0 1.087.881 1.967 1.967 1.967z"/><path d="m134.257 171.294c1.087 0 1.967-.881 1.967-1.967 0-1.087-.88-1.967-1.967-1.967-1.086 0-1.967.88-1.967 1.967 0 1.086.881 1.967 1.967 1.967z"/><path d="m81.8072 192.274c1.0863 0 1.9669-.881 1.9669-1.967 0-1.087-.8806-1.967-1.9669-1.967s-1.9669.88-1.9669 1.967c0 1.086.8806 1.967 1.9669 1.967z"/><path d="m176.217 171.294c1.087 0 1.967-.881 1.967-1.967 0-1.087-.88-1.967-1.967-1.967-1.086 0-1.967.88-1.967 1.967 0 1.086.881 1.967 1.967 1.967z"/><path d="m218.177 192.274c1.086 0 1.967-.881 1.967-1.967 0-1.087-.881-1.967-1.967-1.967s-1.967.88-1.967 1.967c0 1.086.881 1.967 1.967 1.967z"/><path d="m113.277 160.803c1.086 0 1.967-.88 1.967-1.966 0-1.087-.881-1.967-1.967-1.967s-1.967.88-1.967 1.967c0 1.086.881 1.966 1.967 1.966z"/><path d="m165.727 192.274c1.087 0 1.967-.881 1.967-1.967 0-1.087-.88-1.967-1.967-1.967-1.086 0-1.967.88-1.967 1.967 0 1.086.881 1.967 1.967 1.967z"/><path d="m71.3172 202.763c1.0863 0 1.9669-.88 1.9669-1.967 0-1.086-.8806-1.966-1.9669-1.966s-1.9669.88-1.9669 1.966c0 1.087.8806 1.967 1.9669 1.967z"/><path d="m176.217 202.763c1.087 0 1.967-.88 1.967-1.967 0-1.086-.88-1.966-1.967-1.966-1.086 0-1.967.88-1.967 1.966 0 1.087.881 1.967 1.967 1.967z"/><path d="m207.687 213.254c1.086 0 1.967-.881 1.967-1.967 0-1.087-.881-1.967-1.967-1.967s-1.967.88-1.967 1.967c0 1.086.881 1.967 1.967 1.967z"/><path d="m280.461 46.6587c1.774.3619 3.506-.7822 3.867-2.5563.362-1.7742-.782-3.5057-2.556-3.8676s-3.505.7822-3.867 2.5563h-28.913-27.602c-.263-1.2876-1.269-2.2934-2.557-2.5563-1.774-.3619-3.505.7822-3.867 2.5563s.782 3.5057 2.556 3.8676 3.506-.7822 3.868-2.5563h27.602 28.913c.263 1.2876 1.268 2.2934 2.556 2.5563zm.656-5.1788c1.087 0 1.967.8805 1.967 1.9668 0 1.0864-.88 1.9669-1.967 1.9669-1.086 0-1.967-.8805-1.967-1.9669 0-1.0863.881-1.9668 1.967-1.9668zm-62.94 3.9337c-1.086 0-1.967-.8805-1.967-1.9669 0-1.0863.881-1.9668 1.967-1.9668 1.087 0 1.967.8805 1.967 1.9668 0 1.0864-.88 1.9669-1.967 1.9669z"/><path d="m271.283-64.6646c-1.774-.3619-3.506.7821-3.868 2.5563-.362 1.7741.782 3.5056 2.557 3.8675v12.2537l-20.98 20.9799-10.49 10.49v46.8183h-17.112c-.263-1.2877-1.269-2.2935-2.557-2.5564-1.774-.3619-3.505.7822-3.867 2.5564-.362 1.7741.782 3.5056 2.556 3.8675s3.506-.7822 3.868-2.5563h18.423v-47.5918l9.179-9.1788 22.291-22.2913v-12.7912c1.288-.2629 2.293-1.2686 2.556-2.5563.362-1.7741-.782-3.5056-2.556-3.8675zm-53.106 99.5882c-1.086 0-1.967-.8805-1.967-1.9669s.881-1.9669 1.967-1.9669c1.087 0 1.967.8805 1.967 1.9669s-.88 1.9669-1.967 1.9669zm52.45-94.4101c-1.086 0-1.967-.8805-1.967-1.9669 0-1.0863.881-1.9668 1.967-1.9668 1.087 0 1.967.8805 1.967 1.9668 0 1.0864-.88 1.9669-1.967 1.9669z"/><path d="m271.283 121.335v-26.0941-41.3044-.6556h-22.291-27.602c-.263-1.2877-1.269-2.2934-2.557-2.5564-1.774-.3619-3.505.7822-3.867 2.5564-.362 1.7741.782 3.5056 2.556 3.8675s3.506-.7822 3.868-2.5563h27.602 20.98v40.6488 26.6121l-15.349 15.348h-5.631-30.159v-17.112c1.287-.263 2.293-1.269 2.556-2.556.362-1.774-.782-3.506-2.556-3.868s-3.506.782-3.868 2.557c-.362 1.774.782 3.505 2.557 3.867v18.423h31.47 6.169l16.122-16.122zm-53.106-65.4316c-1.086 0-1.967-.8805-1.967-1.9669s.881-1.9669 1.967-1.9669c1.087 0 1.967.8805 1.967 1.9669s-.88 1.9669-1.967 1.9669zm-1.967 60.9736c0-1.087.881-1.967 1.967-1.967 1.087 0 1.967.88 1.967 1.967 0 1.086-.88 1.966-1.967 1.966-1.086 0-1.967-.88-1.967-1.966z"/><path d="m112.622-104.069v31.47h-20.9804v37.1018l-31.47 31.47002v2.30125c-1.2876.2629-2.2934 1.268663-2.5563 2.556311-.3619 1.774119.7822 3.505579 2.5563 3.867489 1.7741.3619 3.5057-.78212 3.8676-2.55624s-.7822-3.50566-2.5563-3.86756v-1.7636l31.47-31.47007v-36.3282h20.9801v-32.7812-9.179h80.052c.263 1.288 1.268 2.294 2.556 2.557 1.774.361 3.506-.783 3.867-2.557.362-1.774-.782-3.505-2.556-3.867s-3.505.782-3.867 2.556h-81.363zm-49.8279 105.55565c0 1.08637-.8805 1.96687-1.9669 1.96687-1.0863 0-1.9668-.8805-1.9668-1.96687 0-1.086374.8805-1.966879 1.9668-1.966879 1.0864 0 1.9669.880505 1.9669 1.966879zm134.4029-117.35665c1.087 0 1.967.88 1.967 1.967 0 1.086-.88 1.966-1.967 1.966-1.086 0-1.967-.88-1.967-1.966 0-1.087.881-1.967 1.967-1.967z"/><path d="m60.1723 25.6782c1.7741.3619 3.5056-.7822 3.8675-2.5563h12.2536l15.3482 15.3482v14.8106h-6.6218c-.2629-1.2877-1.2686-2.2935-2.5563-2.5564-1.7741-.3619-3.5056.7822-3.8675 2.5564-.3619 1.7741.7821 3.5056 2.5563 3.8675 1.7741.3619 3.5056-.7822 3.8675-2.5563h7.9331v-16.6595l-16.1218-16.1218h-12.7913c-.2629-1.2876-1.2686-2.2934-2.5563-2.5563-1.7741-.3619-3.5056.7822-3.8675 2.5563-.3619 1.7742.7821 3.5057 2.5563 3.8676zm21.635 30.225c-1.0864 0-1.9669-.8805-1.9669-1.9669s.8805-1.9669 1.9669-1.9669c1.0863 0 1.9668.8805 1.9668 1.9669s-.8805 1.9669-1.9668 1.9669zm-20.9801-35.4038c1.0864 0 1.9669.8805 1.9669 1.9669 0 1.0863-.8805 1.9668-1.9669 1.9668-1.0863 0-1.9668-.8805-1.9668-1.9668 0-1.0864.8805-1.9669 1.9668-1.9669z"/><path d="m154.582-25.0076v65.2412c-1.288.263-2.294 1.2687-2.557 2.5564-.362 1.7741.783 3.5055 2.557 3.8674 1.774.362 3.505-.7821 3.867-2.5562s-.782-3.5056-2.556-3.8676v-64.7036l15.348-15.3482h75.194c.262 1.2877 1.269 2.2941 2.557 2.557.215.0439.436.0662.656.0662 1.81-.0007 3.278-1.4686 3.277-3.2788 0-.2105-.022-.4209-.063-.6274-.355-1.7827-2.088-2.9405-3.87-2.5852-1.288.2629-2.295 1.2693-2.557 2.557h-75.732zm2.622 68.4538c0 1.0864-.88 1.9669-1.967 1.9669-1.086 0-1.967-.8805-1.967-1.9669 0-1.0863.881-1.9668 1.967-1.9668 1.087 0 1.967.8805 1.967 1.9668zm91.788-85.7754c.422-.1489.883-.1489 1.305 0 1.025.3606 1.563 1.4836 1.202 2.5084-.36 1.0247-1.483 1.563-2.508 1.2024-.562-.198-1.005-.6406-1.202-1.2024-.36-1.0248.178-2.1478 1.203-2.5084z"/><path d="m164.803-51.6192-20.711 20.7112v50.1619c-1.288.2629-2.294 1.2687-2.557 2.5563-.362 1.7741.783 3.5056 2.557 3.8675s3.505-.7821 3.867-2.5562c.362-1.7742-.782-3.5057-2.556-3.8676v-49.6242l19.937-19.9376h32.513v-39.4031c1.288-.2629 2.293-1.2687 2.556-2.5563.362-1.7741-.782-3.5056-2.556-3.8675s-3.506.7821-3.868 2.5562c-.362 1.7742.783 3.5057 2.557 3.8676v38.0918zm-18.089 74.0857c0 1.0863-.88 1.9669-1.967 1.9669-1.086 0-1.967-.8806-1.967-1.9669 0-1.0864.881-1.9669 1.967-1.9669 1.087 0 1.967.8805 1.967 1.9669zm48.516-115.3901c0-1.0863.881-1.9668 1.967-1.9668 1.087 0 1.967.8805 1.967 1.9668 0 1.0864-.88 1.9669-1.967 1.9669-1.086 0-1.967-.8805-1.967-1.9669z"/><path d="m225.455 21.8103c-.362 1.7741.782 3.5056 2.557 3.8675 1.774.3619 3.505-.7821 3.867-2.5563.362-1.7741-.782-3.5056-2.556-3.8675v-28.91308h-7.933c-.263-1.28762-1.269-2.29342-2.557-2.55632-1.774-.3619-3.505.7822-3.867 2.55632s.782 3.50566 2.556 3.86756c1.774.36191 3.506-.78219 3.868-2.55631h6.622v27.60183c-1.288.2629-2.294 1.2686-2.557 2.5563zm-7.278-28.84688c-1.086 0-1.967-.8805-1.967-1.96688 0-1.08634.881-1.96684 1.967-1.96684 1.087 0 1.967.8805 1.967 1.96684 0 1.08638-.88 1.96688-1.967 1.96688zm10.49 27.53628c1.087 0 1.967.8805 1.967 1.9669 0 1.0863-.88 1.9668-1.967 1.9668-1.086 0-1.967-.8805-1.967-1.9668 0-1.0864.881-1.9669 1.967-1.9669z"/><path d="m218.833 23.1219v-22.291206h-10.49v-6.621804c1.287-.2629 2.293-1.26866 2.556-2.55631.362-1.77408-.782-3.50558-2.556-3.86748s-3.506.7821-3.868 2.55623c-.362 1.77412.782 3.50566 2.557 3.86756v7.93305h10.49v19.66876h-10.49v43.2713h31.47v30.1587 11.8013h10.49 11.145.656v-11.8013-31.47h-11.801v28.9131c-1.288.2629-2.295 1.2693-2.557 2.5569v.0013c-.362 1.7741.783 3.505 2.557 3.8669.422.0839.856.0839 1.279 0 1.783-.3534 2.942-2.0849 2.588-3.8682-.262-1.2876-1.269-2.294-2.557-2.5569v-27.6018h9.179v30.1587 10.4903h-10.49-9.179v-10.4903-31.47h-31.47v-40.6488zm-13.113-32.12558c0-1.08642.881-1.96692 1.967-1.96692 1.087 0 1.967.8805 1.967 1.96692 0 1.08637-.88 1.96687-1.967 1.96687-1.086 0-1.967-.8805-1.967-1.96687zm45.783 104.24438c.15.4249.15.889 0 1.3146-.364 1.024-1.488 1.5597-2.511 1.1964-.001 0-.002-.0006-.002-.0006-1.024-.3626-1.561-1.4863-1.198-2.5104.198-.5605.639-1.0017 1.2-1.1997 0 0 .001-.0008.001-.0008 1.025-.3612 2.148.1764 2.51 1.2005z"/><path d="m81.1509 46.6587c1.7741.3619 3.5056-.7822 3.8675-2.5563.3619-1.7742-.7821-3.5057-2.5562-3.8676-1.7742-.3619-3.5057.7822-3.8676 2.5563h-28.9131-27.6018c-.2629-1.2876-1.2686-2.2934-2.5563-2.5563-1.7741-.3619-3.5055.7822-3.8675 2.5563-.3619 1.7741.7822 3.5057 2.5563 3.8676s3.5056-.7822 3.8675-2.5563h27.6018 28.9131c.2629 1.2876 1.2687 2.2934 2.5563 2.5563zm.6563-5.1788c1.0864 0 1.9669.8805 1.9669 1.9668 0 1.0864-.8805 1.9669-1.9669 1.9669s-1.9669-.8805-1.9669-1.9669c0-1.0863.8805-1.9668 1.9669-1.9668zm-62.94 3.9337c-1.0864 0-1.9669-.8805-1.9669-1.9669 0-1.0863.8805-1.9668 1.9669-1.9668 1.0863 0 1.9668.8805 1.9668 1.9668 0 1.0864-.8805 1.9669-1.9668 1.9669z"/><path d="m173.005 42.7903c-.362 1.7741.783 3.5056 2.557 3.8675s3.505-.7821 3.867-2.5562c.362-1.7742-.782-3.5057-2.556-3.8676v-35.53487c1.288-.26291 2.293-1.26867 2.556-2.55631.362-1.774126-.782-3.50558-2.556-3.86749-1.774-.3619-3.506.782113-3.868 2.556235-.362 1.774125.783 3.505655 2.557 3.867565v35.53487c-1.288.2629-2.294 1.2687-2.557 2.5563zm1.245-41.30375c0-1.086371.881-1.966875 1.967-1.966875 1.087 0 1.967.880504 1.967 1.966875 0 1.08637-.88 1.96688-1.967 1.96688-1.086 0-1.967-.88051-1.967-1.96688zm1.967 39.99315c1.087 0 1.967.8805 1.967 1.9669 0 1.0863-.88 1.9668-1.967 1.9668-1.086 0-1.967-.8805-1.967-1.9668 0-1.0864.881-1.9669 1.967-1.9669z"/><path d="m175.562 57.1485c1.774.3619 3.506-.7822 3.868-2.5563h7.933v-52.45003h10.49v-11.80125h-28.913c-.263-1.28762-1.269-2.29342-2.556-2.55632-1.775-.3619-3.506.7822-3.868 2.55632s.782 3.50566 2.556 3.86756c1.774.36191 3.506-.78219 3.868-2.55631h27.602v9.178753h-10.49v52.449977h-6.622c-.263-1.2876-1.269-2.2934-2.556-2.5563-1.775-.3619-3.506.7822-3.868 2.5563-.362 1.7742.782 3.5057 2.556 3.8676zm-9.835-64.18508c-1.086 0-1.967-.8805-1.967-1.96688 0-1.08634.881-1.96684 1.967-1.96684 1.087 0 1.967.8805 1.967 1.96684 0 1.08638-.88 1.96688-1.967 1.96688zm10.49 59.00628c1.087 0 1.967.8805 1.967 1.9669 0 1.0863-.88 1.9668-1.967 1.9668-1.086 0-1.967-.8805-1.967-1.9668 0-1.0864.881-1.9669 1.967-1.9669z"/><path d="m49.6816-9.2724v42.8845h18.4231c.2629 1.2876 1.2687 2.2934 2.5563 2.5563 1.7741.3619 3.5056-.7822 3.8675-2.5563s-.7821-3.5057-2.5562-3.8676c-1.7742-.3619-3.5057.7822-3.8676 2.5563h-17.1118v-41.03554l31.47-31.47006v-28.5262c1.2876-.2629 2.2934-1.2687 2.5563-2.5563.3619-1.7741-.7822-3.5056-2.5563-3.8675-1.7741-.362-3.5057.7821-3.8676 2.5562s.7822 3.5057 2.5564 3.8676v27.9886zm21.6357 40.262c1.0863 0 1.9668.8805 1.9668 1.9669 0 1.0863-.8805 1.9668-1.9668 1.9668-1.0864 0-1.9669-.8805-1.9669-1.9668 0-1.0864.8805-1.9669 1.9669-1.9669zm8.5231-102.9332c0-1.0864.8805-1.9669 1.9669-1.9669 1.0863 0 1.9669.8805 1.9669 1.9669s-.8806 1.9669-1.9669 1.9669c-1.0864 0-1.9669-.8805-1.9669-1.9669z"/><path d="m71.9735-1.72565c-1.7741-.3619-3.5056.782194-3.8675 2.556316-.3619 1.774124.7821 3.505664 2.5563 3.867564 1.7741.36191 3.5056-.78219 3.8675-2.55631h12.2602l25.832 25.83168v37.1083h70.873c.263 1.2877 1.268 2.2934 2.556 2.5564 1.774.3619 3.506-.7822 3.867-2.5564.362-1.7741-.782-3.5056-2.556-3.8675s-3.505.7822-3.867 2.5563h-69.562v-36.3217l-26.6185-26.618334h-12.7847c-.2629-1.287648-1.2686-2.293406-2.5563-2.556316zm-.6563 5.17882c-1.0863 0-1.9668-.88051-1.9668-1.96688s.8805-1.966875 1.9668-1.966875c1.0864 0 1.9669.880505 1.9669 1.966875s-.8805 1.96688-1.9669 1.96688zm115.3898 59.00623c1.087 0 1.967.8805 1.967 1.9669s-.88 1.9669-1.967 1.9669c-1.086 0-1.967-.8805-1.967-1.9669s.881-1.9669 1.967-1.9669z"/><path d="m71.9728-64.6646c-1.7741-.3619-3.5056.7821-3.8676 2.5563-.3619 1.7741.7822 3.5056 2.5564 3.8675v12.2537l-20.98 20.9799-10.4901 10.49v46.8183h-17.1118c-.2629-1.2877-1.2686-2.2935-2.5563-2.5564-1.7741-.3619-3.5055.7822-3.8675 2.5564-.3619 1.7741.7822 3.5056 2.5563 3.8675s3.5056-.7822 3.8675-2.5563h18.4231v-47.5918l9.1788-9.1788 22.2912-22.2913v-12.7912c1.2877-.2629 2.2934-1.2686 2.5563-2.5563.3619-1.7741-.7822-3.5056-2.5563-3.8675zm-53.1056 99.5882c-1.0864 0-1.9669-.8805-1.9669-1.9669s.8805-1.9669 1.9669-1.9669c1.0863 0 1.9668.8805 1.9668 1.9669s-.8805 1.9669-1.9668 1.9669zm52.45-94.4101c-1.0864 0-1.9669-.8805-1.9669-1.9669 0-1.0863.8805-1.9668 1.9669-1.9668s1.9669.8805 1.9669 1.9668c0 1.0864-.8805 1.9669-1.9669 1.9669z"/><path d="m61.4835 8.76459c-1.7741-.36191-3.5056.78219-3.8675 2.55631-.3619 1.7741.7821 3.5057 2.5563 3.8676 1.7741.3619 3.5056-.7822 3.8675-2.5563h17.4986l20.5936 20.5932v30.5455h-17.1122c-.2629-1.2876-1.2686-2.2934-2.5563-2.5563-1.7741-.3619-3.5056.7822-3.8675 2.5563s.7821 3.5057 2.5563 3.8676c1.7741.3619 3.5056-.7822 3.8675-2.5563h18.4232v-32.3945l-21.3669-21.3668h-18.0363c-.2629-1.2876-1.2686-2.29341-2.5563-2.55631zm-.6563 5.17881c-1.0863 0-1.9668-.8805-1.9668-1.9669 0-1.0863.8805-1.9669 1.9668-1.9669 1.0864 0 1.9669.8806 1.9669 1.9669 0 1.0864-.8805 1.9669-1.9669 1.9669zm20.9801 52.45c-1.0864 0-1.9669-.8805-1.9669-1.9669 0-1.0863.8805-1.9668 1.9669-1.9668 1.0863 0 1.9668.8805 1.9668 1.9668 0 1.0864-.8805 1.9669-1.9668 1.9669z"/><path d="m103.443-1.7254c-1.774-.36191-3.5051.78219-3.867 2.556312-.3619 1.774118.782 3.505658 2.556 3.867568 1.774.3619 3.506-.7822 3.868-2.55632h18.423v-31.46996h6.622c.263 1.2876 1.268 2.2934 2.556 2.5563 1.774.3619 3.506-.7822 3.867-2.5563.362-1.7742-.782-3.5057-2.556-3.8676s-3.505.7822-3.867 2.5563h-7.933v31.470012h-17.112c-.263-1.287648-1.269-2.293412-2.557-2.556312zm-.656 5.17881c-1.086 0-1.967-.8805-1.967-1.96687 0-1.086373.881-1.966878 1.967-1.966878 1.087 0 1.967.880505 1.967 1.966878 0 1.08637-.88 1.96687-1.967 1.96687zm31.47-35.40371c1.087 0 1.967.8805 1.967 1.9668 0 1.0864-.88 1.9669-1.967 1.9669-1.086 0-1.967-.8805-1.967-1.9669 0-1.0863.881-1.9668 1.967-1.9668z"/><path d="m141.535 42.7903c-.362 1.7741.783 3.5056 2.557 3.8675s3.505-.7821 3.867-2.5562-.782-3.5057-2.556-3.8676v-7.933h-10.49v-48.5819c1.288-.2629 2.293-1.2686 2.556-2.5563.362-1.7741-.782-3.5055-2.556-3.8674-1.774-.362-3.506.7821-3.868 2.5562s.783 3.5056 2.557 3.8675v49.8931h10.49v6.6218c-1.288.2629-2.294 1.2687-2.557 2.5563zm-9.245-62.2837c0-1.0864.881-1.9669 1.967-1.9669 1.087 0 1.967.8805 1.967 1.9669 0 1.0863-.88 1.9668-1.967 1.9668-1.086 0-1.967-.8805-1.967-1.9668zm12.457 60.9731c1.087 0 1.967.8805 1.967 1.9669s-.88 1.9669-1.967 1.9669c-1.086 0-1.967-.8805-1.967-1.9669s.881-1.9669 1.967-1.9669z"/><path d="m112.622 15.1885c1.774.3619 3.506-.7822 3.868-2.5563h6.622v31.47h7.933c.263 1.2876 1.268 2.2934 2.556 2.5563 1.774.3619 3.506-.7822 3.867-2.5563.362-1.7742-.782-3.5057-2.556-3.8676s-3.505.7822-3.867 2.5563h-6.622v-31.47h-7.933c-.263-1.2876-1.269-2.29341-2.557-2.55631-1.774-.36191-3.505.78219-3.867 2.55631-.362 1.7741.782 3.5057 2.556 3.8676zm21.635 26.2912c1.087 0 1.967.8805 1.967 1.9668 0 1.0864-.88 1.9669-1.967 1.9669-1.086 0-1.967-.8805-1.967-1.9669 0-1.0863.881-1.9668 1.967-1.9668zm-20.98-31.4701c1.087 0 1.967.8806 1.967 1.9669 0 1.0864-.88 1.9669-1.967 1.9669-1.086 0-1.967-.8805-1.967-1.9669 0-1.0863.881-1.9669 1.967-1.9669z"/><path d="m123.112 57.1485c1.774.3619 3.506-.7822 3.868-2.5563h39.403v-49.89307c1.287-.26291 2.293-1.26867 2.556-2.55631.362-1.774126-.782-3.50558-2.556-3.86749-1.774-.3619-3.506.782113-3.868 2.556235-.362 1.774125.782 3.505655 2.557 3.867565v48.58177h-38.092c-.263-1.2876-1.269-2.2934-2.557-2.5563-1.774-.3619-3.505.7822-3.867 2.5563-.362 1.7742.782 3.5057 2.556 3.8676zm40.648-55.66195c0-1.086371.881-1.966875 1.967-1.966875 1.087 0 1.967.880504 1.967 1.966875 0 1.08637-.88 1.96688-1.967 1.96688-1.086 0-1.967-.88051-1.967-1.96688zm-39.993 50.48315c1.087 0 1.967.8805 1.967 1.9669 0 1.0863-.88 1.9668-1.967 1.9668-1.086 0-1.967-.8805-1.967-1.9668 0-1.0864.881-1.9669 1.967-1.9669z"/><path d="m228.012 95.2409v22.2911h7.933c.263 1.288 1.268 2.294 2.556 2.556 1.774.362 3.506-.782 3.867-2.556.362-1.774-.782-3.505-2.556-3.867s-3.505.782-3.867 2.556h-6.622v-20.9801-20.98h-31.47v-61.6287h6.622c.263 1.2876 1.268 2.2934 2.556 2.5563 1.774.3619 3.506-.7822 3.867-2.5563.362-1.7742-.782-3.50571-2.556-3.86761-1.774-.36191-3.505.78219-3.867 2.55631h-7.933v64.2513h31.47zm11.145 19.6691c1.087 0 1.967.88 1.967 1.967 0 1.086-.88 1.966-1.967 1.966-1.086 0-1.967-.88-1.967-1.966 0-1.087.881-1.967 1.967-1.967zm-31.47-104.9004c1.087 0 1.967.8806 1.967 1.9669 0 1.0864-.88 1.9669-1.967 1.9669-1.086 0-1.967-.8805-1.967-1.9669 0-1.0863.881-1.9669 1.967-1.9669z"/><path d="m197.853 189.651h-28.913c-.263-1.288-1.269-2.293-2.556-2.556-1.775-.362-3.506.782-3.868 2.556s.782 3.506 2.556 3.868c1.774.361 3.506-.783 3.868-2.557h27.602v9.179h-10.49v52.45h-6.622c-.263-1.288-1.269-2.293-2.556-2.556-1.775-.362-3.506.782-3.868 2.556s.782 3.506 2.556 3.868c1.774.361 3.506-.783 3.868-2.557h7.933v-52.45h10.49zm-32.126 2.622c-1.086 0-1.967-.88-1.967-1.966 0-1.087.881-1.967 1.967-1.967 1.087 0 1.967.88 1.967 1.967 0 1.086-.88 1.966-1.967 1.966zm10.49 62.941c-1.086 0-1.967-.881-1.967-1.967 0-1.087.881-1.967 1.967-1.967 1.087 0 1.967.88 1.967 1.967 0 1.086-.88 1.967-1.967 1.967z"/><path d="m248.992 149.002h7.933c.263 1.288 1.268 2.294 2.556 2.556 1.774.362 3.505-.782 3.867-2.556s-.782-3.506-2.556-3.867c-1.774-.362-3.505.782-3.867 2.556h-7.933-40.649v-38.092c1.287-.263 2.293-1.269 2.556-2.556.362-1.774-.782-3.506-2.556-3.868s-3.506.782-3.868 2.556c-.362 1.775.782 3.506 2.557 3.868v39.403zm11.145-2.622c1.087 0 1.967.88 1.967 1.966 0 1.087-.88 1.967-1.967 1.967-1.086 0-1.967-.88-1.967-1.967 0-1.086.881-1.966 1.967-1.966zm-54.417-39.994c0-1.086.881-1.966 1.967-1.966 1.087 0 1.967.88 1.967 1.966 0 1.087-.88 1.967-1.967 1.967-1.086 0-1.967-.88-1.967-1.967z"/><path d="m165.34 149.002h32.513v-39.403c1.288-.263 2.293-1.269 2.556-2.556.362-1.774-.782-3.506-2.556-3.868s-3.506.782-3.868 2.556c-.362 1.775.783 3.506 2.557 3.868v38.092h-31.739l-20.711 20.711v50.162c-1.288.263-2.294 1.269-2.557 2.556-.362 1.774.783 3.506 2.557 3.868s3.505-.782 3.867-2.557c.362-1.774-.782-3.505-2.556-3.867v-49.624zm29.89-42.616c0-1.086.881-1.966 1.967-1.966 1.087 0 1.967.88 1.967 1.966 0 1.087-.88 1.967-1.967 1.967-1.086 0-1.967-.88-1.967-1.967zm-48.516 115.39c0 1.087-.88 1.967-1.967 1.967-1.086 0-1.967-.88-1.967-1.967 0-1.086.881-1.966 1.967-1.966 1.087 0 1.967.88 1.967 1.966z"/><path d="m102.132 204.009c1.774.361 3.506-.783 3.868-2.557h18.423v-31.47h6.622c.263 1.288 1.268 2.294 2.556 2.557 1.774.361 3.506-.783 3.867-2.557.362-1.774-.782-3.505-2.556-3.867s-3.505.782-3.867 2.556h-7.933v31.47h-17.112c-.263-1.288-1.269-2.293-2.557-2.556-1.774-.362-3.5051.782-3.867 2.556s.782 3.506 2.556 3.868zm32.125-36.649c1.087 0 1.967.88 1.967 1.967 0 1.086-.88 1.966-1.967 1.966-1.086 0-1.967-.88-1.967-1.966 0-1.087.881-1.967 1.967-1.967zm-31.47 31.47c1.087 0 1.967.88 1.967 1.967 0 1.086-.88 1.967-1.967 1.967-1.086 0-1.967-.881-1.967-1.967 0-1.087.881-1.967 1.967-1.967z"/><path d="m218.833 222.432v-22.291h-10.49v-6.622c1.287-.263 2.293-1.269 2.556-2.556.362-1.774-.782-3.506-2.556-3.868s-3.506.782-3.868 2.556c-.362 1.775.782 3.506 2.557 3.868v7.933h10.49v19.669h-10.49v43.271h31.47v30.159 11.801h10.49 11.145.656v-11.801-31.47h-11.801v28.913c-1.288.263-2.295 1.269-2.557 2.557v.001c-.362 1.774.783 3.505 2.557 3.867.422.084.856.084 1.279 0 1.783-.353 2.942-2.085 2.588-3.868-.262-1.288-1.269-2.294-2.557-2.557v-27.602h9.179v30.159 10.49h-10.49-9.179v-10.49-31.47h-31.47v-40.649zm-13.113-32.126c0-1.086.881-1.967 1.967-1.967 1.087 0 1.967.881 1.967 1.967 0 1.087-.88 1.967-1.967 1.967-1.086 0-1.967-.88-1.967-1.967zm45.783 104.245c.15.425.15.889 0 1.314-.364 1.024-1.488 1.56-2.511 1.197-.001 0-.002-.001-.002-.001-1.024-.362-1.561-1.486-1.198-2.51.198-.561.639-1.002 1.2-1.2 0 0 .001-.001.001-.001 1.025-.361 2.148.177 2.51 1.201z"/><path d="m173.005 242.1c-.362 1.774.783 3.506 2.557 3.868s3.505-.782 3.867-2.556c.362-1.775-.782-3.506-2.556-3.868v-35.535c1.288-.263 2.293-1.268 2.556-2.556.362-1.774-.782-3.506-2.556-3.868s-3.506.783-3.868 2.557.783 3.505 2.557 3.867v35.535c-1.288.263-2.294 1.269-2.557 2.556zm1.245-41.303c0-1.087.881-1.967 1.967-1.967 1.087 0 1.967.88 1.967 1.967 0 1.086-.88 1.966-1.967 1.966-1.086 0-1.967-.88-1.967-1.966zm1.967 39.993c1.087 0 1.967.88 1.967 1.967 0 1.086-.88 1.967-1.967 1.967-1.086 0-1.967-.881-1.967-1.967 0-1.087.881-1.967 1.967-1.967z"/><path d="m81.1522 193.519c1.7742.362 3.5057-.783 3.8676-2.557h28.9132v-28.913c1.288-.263 2.293-1.268 2.556-2.556.362-1.774-.782-3.506-2.556-3.868-1.774-.361-3.506.783-3.868 2.557s.782 3.505 2.557 3.867v27.602h-27.6022c-.2629-1.288-1.2687-2.293-2.5563-2.556-1.7741-.362-3.5056.782-3.8675 2.556s.7821 3.506 2.5562 3.868zm30.1578-34.682c0-1.087.881-1.967 1.967-1.967 1.087 0 1.967.88 1.967 1.967 0 1.086-.88 1.967-1.967 1.967-1.086 0-1.967-.881-1.967-1.967zm-29.5028 29.503c1.0864 0 1.9669.88 1.9669 1.967 0 1.086-.8805 1.967-1.9669 1.967-1.0863 0-1.9668-.881-1.9668-1.967 0-1.087.8805-1.967 1.9668-1.967z"/><path d="m81.1522 120.088c1.7742.362 3.5057-.782 3.8676-2.556h18.4232v-22.2912-19.6687h80.052c.263 1.2876 1.268 2.2934 2.556 2.5563 1.774.3619 3.506-.7822 3.867-2.5563.362-1.7741-.782-3.5057-2.556-3.8676s-3.505.7822-3.867 2.5563h-80.052-1.311v20.98 20.9802h-17.1122c-.2629-1.288-1.2687-2.294-2.5563-2.556-1.7741-.362-3.5056.782-3.8675 2.556s.7821 3.506 2.5562 3.867zm105.5548-47.1384c1.087 0 1.967.8805 1.967 1.9669 0 1.0863-.88 1.9668-1.967 1.9668-1.086 0-1.967-.8805-1.967-1.9668 0-1.0864.881-1.9669 1.967-1.9669zm-104.8998 41.9604c1.0864 0 1.9669.88 1.9669 1.966 0 1.087-.8805 1.967-1.9669 1.967-1.0863 0-1.9668-.88-1.9668-1.967 0-1.086.8805-1.966 1.9668-1.966z"/><path d="m70.661 235.478c1.7741.362 3.5056-.782 3.8675-2.556s-.7821-3.506-2.5562-3.867c-1.7742-.362-3.5057.782-3.8676 2.556h-17.1118v-41.036l31.47-31.47v-28.526c1.2876-.263 2.2934-1.269 2.5563-2.556.3619-1.774-.7822-3.506-2.5563-3.868s-3.5057.782-3.8676 2.556c-.3619 1.775.7822 3.506 2.5564 3.868v27.989l-31.4701 31.47v42.884h18.4231c.2629 1.288 1.2687 2.294 2.5563 2.556zm.6563-5.178c1.0863 0 1.9668.88 1.9668 1.966 0 1.087-.8805 1.967-1.9668 1.967-1.0864 0-1.9669-.88-1.9669-1.967 0-1.086.8805-1.966 1.9669-1.966zm8.5231-102.934c0-1.086.8805-1.966 1.9669-1.966 1.0863 0 1.9669.88 1.9669 1.966 0 1.087-.8806 1.967-1.9669 1.967-1.0864 0-1.9669-.88-1.9669-1.967z"/><path d="m187.362 260.524c-1.774-.361-3.505.783-3.867 2.557h-69.562v-36.322l-26.6185-26.618h-12.7847c-.2629-1.288-1.2686-2.294-2.5563-2.557-1.7741-.361-3.5056.783-3.8675 2.557s.7821 3.505 2.5563 3.867c1.7741.362 3.5056-.782 3.8675-2.556h12.2602l25.832 25.832v37.108h70.873c.263 1.288 1.268 2.293 2.556 2.556 1.774.362 3.506-.782 3.867-2.556.362-1.774-.782-3.506-2.556-3.868zm-116.0448-57.761c-1.0863 0-1.9668-.88-1.9668-1.967 0-1.086.8805-1.967 1.9668-1.967 1.0864 0 1.9669.881 1.9669 1.967 0 1.087-.8805 1.967-1.9669 1.967zm115.3898 62.94c-1.086 0-1.967-.88-1.967-1.967 0-1.086.881-1.967 1.967-1.967 1.087 0 1.967.881 1.967 1.967 0 1.087-.88 1.967-1.967 1.967z"/><path d="m103.443 231.998-21.3669-21.367h-18.0363c-.2629-1.288-1.2686-2.293-2.5563-2.556-1.7741-.362-3.5056.782-3.8675 2.556s.7821 3.506 2.5563 3.868c1.7741.361 3.5056-.783 3.8675-2.557h17.4986l20.5936 20.593v30.546h-17.1122c-.2629-1.288-1.2686-2.293-2.5563-2.556-1.7741-.362-3.5056.782-3.8675 2.556s.7821 3.506 2.5563 3.868c1.7741.361 3.5056-.783 3.8675-2.557h18.4232zm-42.6158-18.745c-1.0863 0-1.9668-.88-1.9668-1.966 0-1.087.8805-1.967 1.9668-1.967 1.0864 0 1.9669.88 1.9669 1.967 0 1.086-.8805 1.966-1.9669 1.966zm20.9801 52.45c-1.0864 0-1.9669-.88-1.9669-1.966 0-1.087.8805-1.967 1.9669-1.967 1.0863 0 1.9668.88 1.9668 1.967 0 1.086-.8805 1.966-1.9668 1.966z"/><path d="m112.622 214.499c1.774.361 3.506-.783 3.868-2.557h6.622v31.47h7.933c.263 1.288 1.268 2.294 2.556 2.557 1.774.361 3.506-.783 3.867-2.557.362-1.774-.782-3.505-2.556-3.867s-3.505.782-3.867 2.556h-6.622v-31.47h-7.933c-.263-1.288-1.269-2.293-2.557-2.556-1.774-.362-3.505.782-3.867 2.556s.782 3.506 2.556 3.868zm21.635 26.291c1.087 0 1.967.88 1.967 1.967 0 1.086-.88 1.966-1.967 1.966-1.086 0-1.967-.88-1.967-1.966 0-1.087.881-1.967 1.967-1.967zm-20.98-31.47c1.087 0 1.967.88 1.967 1.967 0 1.086-.88 1.966-1.967 1.966-1.086 0-1.967-.88-1.967-1.966 0-1.087.881-1.967 1.967-1.967z"/><path d="m141.535 242.1c-.362 1.775.783 3.506 2.557 3.868s3.505-.782 3.867-2.556-.782-3.506-2.556-3.868v-7.933h-10.49v-48.582c1.288-.263 2.293-1.268 2.556-2.556.362-1.774-.782-3.506-2.556-3.868-1.774-.361-3.506.783-3.868 2.557s.783 3.505 2.557 3.867v49.893h10.49v6.622c-1.288.263-2.294 1.269-2.557 2.556zm-9.245-62.283c0-1.087.881-1.967 1.967-1.967 1.087 0 1.967.88 1.967 1.967 0 1.086-.88 1.967-1.967 1.967-1.086 0-1.967-.881-1.967-1.967zm12.457 60.973c1.087 0 1.967.88 1.967 1.967 0 1.086-.88 1.967-1.967 1.967-1.086 0-1.967-.881-1.967-1.967 0-1.087.881-1.967 1.967-1.967z"/><path d="m71.9728 121.335v-26.0941-41.3044-.6556h-22.2913-27.6018c-.2629-1.2877-1.2686-2.2934-2.5563-2.5564-1.7741-.3619-3.5056.7822-3.8675 2.5564-.3619 1.7741.7821 3.5056 2.5563 3.8675 1.7741.3619 3.5056-.7822 3.8675-2.5563h27.6018 20.98v40.6488 26.6121l-15.3482 15.348h-5.6318-30.1587v-17.112c1.2876-.263 2.2934-1.269 2.5563-2.556.3619-1.774-.7822-3.506-2.5563-3.868s-3.5057.782-3.8676 2.557c-.3619 1.774.7822 3.505 2.5563 3.867v18.423h31.47 6.1695l16.1218-16.122zm-53.1056-65.4316c-1.0864 0-1.9669-.8805-1.9669-1.9669s.8805-1.9669 1.9669-1.9669c1.0863 0 1.9668.8805 1.9668 1.9669s-.8805 1.9669-1.9668 1.9669zm-1.9669 60.9736c0-1.087.8805-1.967 1.9669-1.967 1.0863 0 1.9668.88 1.9668 1.967 0 1.086-.8805 1.966-1.9668 1.966-1.0864 0-1.9669-.88-1.9669-1.966z"/><path d="m171.241 159.492h75.194c.262 1.288 1.269 2.294 2.557 2.557.215.044.436.066.656.066 1.81 0 3.278-1.469 3.277-3.279 0-.21-.022-.421-.063-.627-.355-1.783-2.088-2.941-3.87-2.585-1.288.263-2.295 1.269-2.557 2.557h-75.732l-16.121 16.121v65.242c-1.288.263-2.294 1.268-2.557 2.556-.362 1.774.783 3.506 2.557 3.868 1.774.361 3.505-.783 3.867-2.557s-.782-3.505-2.556-3.867v-64.704zm77.751-2.511c.422-.149.883-.149 1.305 0 1.025.36 1.563 1.483 1.202 2.508-.36 1.025-1.483 1.563-2.508 1.203-.562-.198-1.005-.641-1.202-1.203-.36-1.025.178-2.148 1.203-2.508zm-91.788 85.775c0 1.087-.88 1.967-1.967 1.967-1.086 0-1.967-.88-1.967-1.967 0-1.086.881-1.967 1.967-1.967 1.087 0 1.967.881 1.967 1.967z"/><path d="m123.112 162.048c1.774.362 3.506-.782 3.868-2.556h13.066l20.98-20.98h26.337v-28.913c1.287-.263 2.293-1.269 2.556-2.556.362-1.774-.782-3.506-2.556-3.868s-3.506.782-3.868 2.556c-.362 1.775.782 3.506 2.557 3.868v27.602h-25.57l-20.98 20.98h-12.522c-.263-1.288-1.269-2.294-2.557-2.556-1.774-.362-3.505.782-3.867 2.556s.782 3.506 2.556 3.867zm61.628-55.662c0-1.086.881-1.966 1.967-1.966 1.087 0 1.967.88 1.967 1.966 0 1.087-.88 1.967-1.967 1.967-1.086 0-1.967-.88-1.967-1.967zm-60.973 50.484c1.087 0 1.967.88 1.967 1.966 0 1.087-.88 1.967-1.967 1.967-1.086 0-1.967-.88-1.967-1.967 0-1.086.881-1.966 1.967-1.966z"/><path d="m208.343 95.241v-9.1788h9.179v9.1788 7.933c-1.288.263-2.294 1.269-2.557 2.556-.361 1.774.783 3.506 2.557 3.868s3.505-.782 3.867-2.556c.362-1.775-.782-3.506-2.556-3.868v-7.933-9.8344-.6556h-11.801v10.49h-31.47v31.47h-17.112c-.263-1.288-1.269-2.293-2.556-2.556-1.775-.362-3.506.782-3.868 2.556s.782 3.506 2.556 3.868c1.774.361 3.506-.783 3.868-2.557h18.423v-31.4698h31.47zm11.801 11.146c0 1.086-.88 1.966-1.967 1.966-1.086 0-1.967-.88-1.967-1.966 0-1.087.881-1.967 1.967-1.967 1.087 0 1.967.88 1.967 1.967zm-64.907 22.946c-1.086 0-1.967-.88-1.967-1.966 0-1.087.881-1.967 1.967-1.967 1.087 0 1.967.88 1.967 1.967 0 1.086-.88 1.966-1.967 1.966z"/><path d="m92.9529 164.351v-36.329h20.9801v-32.7809-9.1788h80.052c.263 1.2877 1.268 2.2934 2.556 2.5563 1.774.3619 3.506-.7822 3.867-2.5563.362-1.7741-.782-3.5056-2.556-3.8675s-3.505.7822-3.867 2.5563h-81.363v10.49 31.4699h-20.9804v37.102l-31.47 31.47v2.301c-1.2876.263-2.2934 1.269-2.5563 2.556-.3619 1.775.7822 3.506 2.5563 3.868s3.5057-.782 3.8676-2.556-.7822-3.506-2.5563-3.868v-1.763zm104.2441-80.9112c1.087 0 1.967.8805 1.967 1.9669s-.88 1.9669-1.967 1.9669c-1.086 0-1.967-.8805-1.967-1.9669s.881-1.9669 1.967-1.9669zm-134.4029 117.3572c0 1.086-.8805 1.967-1.9669 1.967-1.0863 0-1.9668-.881-1.9668-1.967 0-1.087.8805-1.967 1.9668-1.967 1.0864 0 1.9669.88 1.9669 1.967z"/><path d="m225.455 221.12c-.362 1.774.782 3.506 2.557 3.868 1.774.362 3.505-.782 3.867-2.556.362-1.775-.782-3.506-2.556-3.868v-28.913h-7.933c-.263-1.288-1.269-2.293-2.557-2.556-1.774-.362-3.505.782-3.867 2.556s.782 3.506 2.556 3.868c1.774.361 3.506-.783 3.868-2.557h6.622v27.602c-1.288.263-2.294 1.269-2.557 2.556zm-7.278-28.847c-1.086 0-1.967-.88-1.967-1.966 0-1.087.881-1.967 1.967-1.967 1.087 0 1.967.88 1.967 1.967 0 1.086-.88 1.966-1.967 1.966zm10.49 27.537c1.087 0 1.967.88 1.967 1.967 0 1.086-.88 1.966-1.967 1.966-1.086 0-1.967-.88-1.967-1.966 0-1.087.881-1.967 1.967-1.967z"/><path d="m141.535 137.2c-.362 1.775.782 3.506 2.557 3.868 1.774.362 3.505-.782 3.867-2.556s-.782-3.506-2.556-3.868v-28.913h-18.423c-.263-1.288-1.269-2.293-2.557-2.556-1.774-.362-3.505.782-3.867 2.556s.782 3.506 2.556 3.868 3.506-.783 3.868-2.557h17.112v27.602c-1.288.263-2.294 1.269-2.557 2.556zm-17.768-28.846c-1.086 0-1.967-.881-1.967-1.967 0-1.087.881-1.967 1.967-1.967 1.087 0 1.967.88 1.967 1.967 0 1.086-.88 1.967-1.967 1.967zm20.98 27.536c1.087 0 1.967.88 1.967 1.967 0 1.086-.88 1.967-1.967 1.967-1.086 0-1.967-.881-1.967-1.967 0-1.087.881-1.967 1.967-1.967z"/><path d="m102.132 137.201v41.96h-6.6222c-.2629-1.288-1.2687-2.293-2.5563-2.556-1.7741-.362-3.5056.782-3.8675 2.556s.7821 3.506 2.5562 3.868c1.7742.362 3.5057-.783 3.8676-2.557h7.9332v-41.96h20.98v-18.423c1.288-.263 2.293-1.268 2.556-2.556.362-1.774-.782-3.506-2.556-3.868-1.774-.361-3.506.783-3.868 2.557s.782 3.505 2.557 3.867v17.112zm-9.8348 44.583c-1.0864 0-1.9669-.881-1.9669-1.967 0-1.087.8805-1.967 1.9669-1.967s1.9669.88 1.9669 1.967c0 1.086-.8805 1.967-1.9669 1.967zm29.5028-64.907c0-1.087.881-1.967 1.967-1.967 1.087 0 1.967.88 1.967 1.967 0 1.086-.88 1.967-1.967 1.967-1.086 0-1.967-.881-1.967-1.967z"/><path d="m112.622 151.559c1.774.362 3.506-.783 3.868-2.557h18.423v-28.913c1.287-.263 2.293-1.268 2.556-2.556.362-1.774-.782-3.506-2.556-3.868-1.774-.361-3.506.783-3.868 2.557s.782 3.505 2.557 3.867v27.602h-17.112c-.263-1.288-1.269-2.293-2.557-2.556-1.774-.362-3.505.782-3.867 2.556s.782 3.506 2.556 3.868zm19.668-34.682c0-1.087.881-1.967 1.967-1.967 1.087 0 1.967.88 1.967 1.967 0 1.086-.88 1.967-1.967 1.967-1.086 0-1.967-.881-1.967-1.967zm-19.013 29.503c1.087 0 1.967.88 1.967 1.967 0 1.086-.88 1.967-1.967 1.967-1.086 0-1.967-.881-1.967-1.967 0-1.087.881-1.967 1.967-1.967z"/><path d="m85.0198 105.731c-.2629-1.288-1.2687-2.294-2.5563-2.557-1.7741-.361-3.5056.783-3.8675 2.557s.7821 3.505 2.5562 3.867c1.7742.362 3.5057-.782 3.8676-2.556h7.9331v-11.8013h-10.49v-19.6687h9.1787v6.6218c-1.2876.2629-2.2934 1.2687-2.5563 2.5563-.3619 1.7741.7822 3.5056 2.5563 3.8675s3.5057-.7821 3.8676-2.5562c.3619-1.7742-.7822-3.5057-2.5563-3.8676v-7.9331h-11.8013v20.98 1.3113h10.49v9.179zm-3.2126 2.622c-1.0863 0-1.9668-.88-1.9668-1.967 0-1.086.8805-1.966 1.9668-1.966 1.0864 0 1.9669.88 1.9669 1.966 0 1.087-.8805 1.967-1.9669 1.967zm12.4569-22.9466c0 1.0863-.8805 1.9668-1.9669 1.9668-1.0863 0-1.9668-.8805-1.9668-1.9668 0-1.0864.8805-1.9669 1.9668-1.9669 1.0864 0 1.9669.8805 1.9669 1.9669z"/><path d="m166.383 117.533v-22.2917h-39.403c-.262-1.2903-1.27-2.298-2.56-2.5603-1.775-.3606-3.505.7861-3.865 2.5603-.362 1.7741.782 3.5063 2.557 3.8682 1.774.3619 3.506-.7829 3.868-2.557h38.092v19.6685h-9.179v-6.622c1.287-.262 2.293-1.268 2.556-2.556.362-1.774-.782-3.505-2.556-3.867s-3.506.782-3.868 2.556.782 3.506 2.557 3.867v7.934zm-40.76-20.9864c-.361 1.0247-1.484 1.563-2.509 1.2024s-1.563-1.483-1.202-2.5077c.198-.5626.64-1.0051 1.202-1.2024 1.025-.3606 2.148.1776 2.509 1.2024.148.4222.148.8831 0 1.3053zm27.647 9.8404c0-1.086.881-1.967 1.967-1.967 1.087 0 1.967.881 1.967 1.967s-.88 1.967-1.967 1.967c-1.086 0-1.967-.881-1.967-1.967z"/><path d="m244.133 126.711h-12.253c-.263-1.288-1.269-2.294-2.557-2.557-1.774-.361-3.505.783-3.867 2.557s.782 3.505 2.556 3.867 3.506-.782 3.868-2.556h12.791l4.321-4.32 6.169-6.17h1.764c.263 1.288 1.268 2.293 2.556 2.556 1.774.362 3.506-.782 3.867-2.556.362-1.774-.782-3.506-2.556-3.868-1.774-.361-3.505.783-3.867 2.557h-2.302l-5.631 5.638v-.006zm-15.466 2.622c-1.086 0-1.967-.88-1.967-1.967 0-1.086.881-1.966 1.967-1.966 1.087 0 1.967.88 1.967 1.966 0 1.087-.88 1.967-1.967 1.967zm31.47-14.423c1.087 0 1.967.88 1.967 1.966 0 1.087-.88 1.967-1.967 1.967-1.086 0-1.967-.88-1.967-1.967 0-1.086.881-1.966 1.967-1.966z"/><path d="m123.112 256.459c1.774.361 3.506-.783 3.868-2.557h39.403v-49.893c1.287-.263 2.293-1.268 2.556-2.556.362-1.774-.782-3.506-2.556-3.868s-3.506.783-3.868 2.557.782 3.505 2.557 3.867v48.582h-38.092c-.263-1.288-1.269-2.293-2.557-2.556-1.774-.362-3.505.782-3.867 2.556s.782 3.506 2.556 3.868zm40.648-55.662c0-1.087.881-1.967 1.967-1.967 1.087 0 1.967.88 1.967 1.967 0 1.086-.88 1.966-1.967 1.966-1.086 0-1.967-.88-1.967-1.966zm-39.993 50.483c1.087 0 1.967.88 1.967 1.967 0 1.086-.88 1.967-1.967 1.967-1.086 0-1.967-.881-1.967-1.967 0-1.087.881-1.967 1.967-1.967z"/><path d="m217.522 235.479c1.774.362 3.506-.783 3.868-2.557h18.423v-47.591l9.179-9.179 22.291-22.291v-12.792c1.288-.263 2.293-1.268 2.556-2.556.362-1.774-.782-3.506-2.556-3.868-1.774-.361-3.506.783-3.868 2.557s.782 3.505 2.557 3.867v12.254l-20.98 20.98-10.49 10.49v46.818h-17.112c-.263-1.288-1.269-2.293-2.557-2.556-1.774-.362-3.505.782-3.867 2.556s.782 3.506 2.556 3.868zm51.138-97.622c0-1.087.881-1.967 1.967-1.967 1.087 0 1.967.88 1.967 1.967 0 1.086-.88 1.967-1.967 1.967-1.086 0-1.967-.881-1.967-1.967zm-50.483 92.443c1.087 0 1.967.88 1.967 1.967 0 1.086-.88 1.967-1.967 1.967-1.086 0-1.967-.881-1.967-1.967 0-1.087.881-1.967 1.967-1.967z"/><path d="m235.945 168.671h-56.515c-.263-1.288-1.269-2.293-2.556-2.556-1.775-.362-3.506.782-3.868 2.556s.782 3.506 2.556 3.868c1.774.361 3.506-.783 3.868-2.557h56.515c.263 1.288 1.268 2.294 2.556 2.557 1.774.361 3.506-.783 3.867-2.557.362-1.774-.782-3.505-2.556-3.867s-3.505.782-3.867 2.556zm-59.728 2.622c-1.086 0-1.967-.88-1.967-1.966 0-1.087.881-1.967 1.967-1.967 1.087 0 1.967.88 1.967 1.967 0 1.086-.88 1.966-1.967 1.966zm64.907-1.966c0 1.086-.88 1.966-1.967 1.966-1.086 0-1.967-.88-1.967-1.966 0-1.087.881-1.967 1.967-1.967 1.087 0 1.967.88 1.967 1.967z"/><path d="m165.072 183.028c1.774.362 3.506-.782 3.868-2.556h56.515c.263 1.288 1.268 2.293 2.556 2.556 1.774.362 3.506-.782 3.868-2.556.361-1.774-.783-3.506-2.557-3.868-1.774-.361-3.505.783-3.867 2.557h-56.515c-.263-1.288-1.269-2.294-2.556-2.557-1.775-.361-3.506.783-3.868 2.557s.782 3.505 2.556 3.867zm63.595-5.179c1.087 0 1.967.881 1.967 1.967 0 1.087-.88 1.967-1.967 1.967-1.086 0-1.967-.88-1.967-1.967 0-1.086.881-1.967 1.967-1.967zm-62.94 0c1.087 0 1.967.881 1.967 1.967 0 1.087-.88 1.967-1.967 1.967-1.086 0-1.967-.88-1.967-1.967 0-1.086.881-1.967 1.967-1.967z"/><path d="m28.7016 95.2409v22.2911h7.933c.2629 1.288 1.2687 2.294 2.5563 2.556 1.7742.362 3.5056-.782 3.8675-2.556s-.7821-3.505-2.5562-3.867-3.5057.782-3.8676 2.556h-6.6218v-20.9801-20.98h-31.46998v-61.6287h6.6218c.2629 1.2876 1.26866 2.2934 2.55631 2.5563 1.77412.3619 3.50557-.7822 3.86747-2.5563.3619-1.7742-.7821-3.50571-2.55622-3.86761-1.77412-.36191-3.50566.78219-3.86756 2.55631h-7.93305v64.2513h31.47003zm11.1456 19.6691c1.0864 0 1.9669.88 1.9669 1.967 0 1.086-.8805 1.966-1.9669 1.966s-1.9669-.88-1.9669-1.966c0-1.087.8805-1.967 1.9669-1.967zm-31.47-104.9004c1.08637 0 1.9669.8806 1.9669 1.9669 0 1.0864-.88053 1.9669-1.9669 1.9669s-1.96688-.8805-1.96688-1.9669c0-1.0863.88051-1.9669 1.96688-1.9669z"/><path d="m26.1452 21.8103c-.3619 1.7741.7822 3.5056 2.5563 3.8675 1.7742.3619 3.5057-.7821 3.8676-2.5563.3619-1.7741-.7822-3.5056-2.5563-3.8675v-28.91308h-7.9331c-.2629-1.28762-1.2686-2.29342-2.5563-2.55632-1.7741-.3619-3.5055.7822-3.8675 2.55632-.3619 1.77412.7822 3.50566 2.5563 3.86756 1.7741.36191 3.5056-.78219 3.8675-2.55631h6.6218v27.60183c-1.2876.2629-2.2934 1.2686-2.5563 2.5563zm-7.278-28.84688c-1.0864 0-1.9669-.8805-1.9669-1.96688 0-1.08634.8805-1.96684 1.9669-1.96684 1.0863 0 1.9668.8805 1.9668 1.96684 0 1.08638-.8805 1.96688-1.9668 1.96688zm10.49 27.53628c1.0863 0 1.9668.8805 1.9668 1.9669 0 1.0863-.8805 1.9668-1.9668 1.9668-1.0864 0-1.9669-.8805-1.9669-1.9668 0-1.0864.8805-1.9669 1.9669-1.9669z"/><path d="m-44.7284-25.0076v65.2412c-1.2877.263-2.2934 1.2687-2.5563 2.5564-.3619 1.7741.7822 3.5055 2.5563 3.8674 1.7741.362 3.5056-.7821 3.8675-2.5562.362-1.7741-.7821-3.5056-2.5563-3.8676v-64.7036l15.3482-15.3482h75.1937c.2629 1.2877 1.2693 2.2941 2.5569 2.557.2157.0439.436.0662.6563.0662 1.8102-.0007 3.2781-1.4686 3.2775-3.2788-.0007-.2105-.0224-.4209-.0637-.6274-.3547-1.7827-2.0874-2.9405-3.8701-2.5852-1.2876.2629-2.294 1.2693-2.5569 2.557h-75.7313zm2.6225 68.4538c0 1.0864-.8805 1.9669-1.9669 1.9669s-1.9669-.8805-1.9669-1.9669c0-1.0863.8805-1.9668 1.9669-1.9668s1.9669.8805 1.9669 1.9668zm91.7875-85.7754c.4222-.1489.8831-.1489 1.3053 0 1.0248.3606 1.563 1.4836 1.2024 2.5084-.3605 1.0247-1.4836 1.563-2.5083 1.2024-.5626-.198-1.0051-.6406-1.2024-1.2024-.36-1.0248.1783-2.1478 1.203-2.5084z"/><path d="m19.5228 23.1219v-22.291206h-10.49001v-6.621804c1.28761-.2629 2.29341-1.26866 2.55631-2.55631.3619-1.77408-.7822-3.50558-2.55631-3.86748-1.77413-.3619-3.50566.7821-3.86757 2.55623-.3619 1.77412.78219 3.50566 2.55631 3.86756v7.93305h10.48997v19.66876h-10.48997v43.2713h31.46997v30.1587 11.8013h10.49 11.1457.6556v-11.8013-31.47h-11.8013v28.9131c-1.2876.2629-2.294 1.2693-2.5569 2.5569v.0013c-.3619 1.7741.7835 3.505 2.5569 3.8669.4223.0839.857.0839 1.2792 0 1.7833-.3534 2.9424-2.0849 2.5891-3.8682-.263-1.2876-1.2694-2.294-2.557-2.5569v-27.6018h9.1788v30.1587 10.4903h-10.4901-9.1787v-10.4903-31.47h-31.47001v-40.6488zm-13.11252-32.12558c0-1.08642.88051-1.96692 1.96688-1.96692s1.96684.8805 1.96684 1.96692c0 1.08637-.88047 1.96687-1.96684 1.96687s-1.96688-.8805-1.96688-1.96687zm45.78232 104.24438c.1508.4249.1508.889 0 1.3146-.3633 1.024-1.487 1.5597-2.5111 1.1964-.0006 0-.0013-.0006-.002-.0006-1.024-.3626-1.5603-1.4863-1.1977-2.5104.198-.5605.6392-1.0017 1.1997-1.1997.0007 0 .0014-.0008.002-.0008 1.0241-.3612 2.1478.1764 2.5091 1.2005z"/><path d="m-34.2378 183.028c1.7742.362 3.5057-.782 3.8676-2.556h56.5149c.2629 1.288 1.2686 2.293 2.5563 2.556 1.7741.362 3.5055-.782 3.8675-2.556.3619-1.774-.7822-3.506-2.5563-3.868-1.7741-.361-3.5056.783-3.8675 2.557h-56.5149c-.2629-1.288-1.2687-2.294-2.5563-2.557-1.7741-.361-3.5056.783-3.8675 2.557s.7821 3.505 2.5562 3.867zm63.595-5.179c1.0864 0 1.9669.881 1.9669 1.967 0 1.087-.8805 1.967-1.9669 1.967-1.0863 0-1.9668-.88-1.9668-1.967 0-1.086.8805-1.967 1.9668-1.967zm-62.94 0c1.0864 0 1.9669.881 1.9669 1.967 0 1.087-.8805 1.967-1.9669 1.967s-1.9669-.88-1.9669-1.967c0-1.086.8805-1.967 1.9669-1.967z"/><path d="m49.6815 149.002h7.9331c.2629 1.288 1.2687 2.294 2.5563 2.556 1.7741.362 3.5056-.782 3.8675-2.556s-.7821-3.506-2.5562-3.867c-1.7742-.362-3.5057.782-3.8676 2.556h-7.9331-40.64871v-38.092c1.28761-.263 2.29341-1.269 2.55631-2.556.3619-1.774-.7822-3.506-2.55631-3.868-1.77413-.362-3.50566.782-3.86757 2.556-.3619 1.775.78219 3.506 2.55631 3.868v39.403zm11.1457-2.622c1.0863 0 1.9669.88 1.9669 1.966 0 1.087-.8806 1.967-1.9669 1.967-1.0864 0-1.9669-.88-1.9669-1.967 0-1.086.8805-1.966 1.9669-1.966zm-54.41692-39.994c0-1.086.88051-1.966 1.96688-1.966s1.96684.88 1.96684 1.966c0 1.087-.88047 1.967-1.96684 1.967s-1.96688-.88-1.96688-1.967z"/><path d="m18.2122 235.479c1.7741.362 3.5056-.783 3.8675-2.557h18.4231v-47.591l9.1788-9.179 22.2912-22.291v-12.792c1.2877-.263 2.2934-1.268 2.5563-2.556.3619-1.774-.7822-3.506-2.5563-3.868-1.7741-.361-3.5056.783-3.8676 2.557-.3619 1.774.7822 3.505 2.5564 3.867v12.254l-20.98 20.98-10.4901 10.49v46.818h-17.1118c-.2629-1.288-1.2686-2.293-2.5563-2.556-1.7741-.362-3.5055.782-3.8675 2.556-.3619 1.774.7822 3.506 2.5563 3.868zm51.1381-97.622c0-1.087.8805-1.967 1.9669-1.967s1.9669.88 1.9669 1.967c0 1.086-.8805 1.967-1.9669 1.967s-1.9669-.881-1.9669-1.967zm-50.4831 92.443c1.0863 0 1.9668.88 1.9668 1.967 0 1.086-.8805 1.967-1.9668 1.967-1.0864 0-1.9669-.881-1.9669-1.967 0-1.087.8805-1.967 1.9669-1.967z"/><path d="m-28.069 159.492h75.1937c.2629 1.288 1.2693 2.294 2.5569 2.557.2157.044.436.066.6563.066 1.8102 0 3.2781-1.469 3.2775-3.279-.0007-.21-.0224-.421-.0637-.627-.3547-1.783-2.0874-2.941-3.8701-2.585-1.2876.263-2.294 1.269-2.5569 2.557h-75.7313l-16.1218 16.121v65.242c-1.2877.263-2.2934 1.268-2.5563 2.556-.3619 1.774.7822 3.506 2.5563 3.868 1.7741.361 3.5056-.783 3.8675-2.557.362-1.774-.7821-3.505-2.5563-3.867v-64.704zm77.7506-2.511c.4222-.149.8831-.149 1.3053 0 1.0248.36 1.563 1.483 1.2024 2.508-.3605 1.025-1.4836 1.563-2.5083 1.203-.5626-.198-1.0051-.641-1.2024-1.203-.36-1.025.1783-2.148 1.203-2.508zm-91.7875 85.775c0 1.087-.8805 1.967-1.9669 1.967s-1.9669-.88-1.9669-1.967c0-1.086.8805-1.967 1.9669-1.967s1.9669.881 1.9669 1.967z"/><path d="m26.1452 221.12c-.3619 1.774.7822 3.506 2.5563 3.868 1.7742.362 3.5057-.782 3.8676-2.556.3619-1.775-.7822-3.506-2.5563-3.868v-28.913h-7.9331c-.2629-1.288-1.2686-2.293-2.5563-2.556-1.7741-.362-3.5055.782-3.8675 2.556-.3619 1.774.7822 3.506 2.5563 3.868 1.7741.361 3.5056-.783 3.8675-2.557h6.6218v27.602c-1.2876.263-2.2934 1.269-2.5563 2.556zm-7.278-28.847c-1.0864 0-1.9669-.88-1.9669-1.966 0-1.087.8805-1.967 1.9669-1.967 1.0863 0 1.9668.88 1.9668 1.967 0 1.086-.8805 1.966-1.9668 1.966zm10.49 27.537c1.0863 0 1.9668.88 1.9668 1.967 0 1.086-.8805 1.966-1.9668 1.966-1.0864 0-1.9669-.88-1.9669-1.966 0-1.087.8805-1.967 1.9669-1.967z"/><path d="m44.8233 126.711h-12.2536c-.2629-1.288-1.2686-2.294-2.5563-2.557-1.7741-.361-3.5056.783-3.8675 2.557s.7821 3.505 2.5563 3.867c1.7741.362 3.5056-.782 3.8675-2.556h12.7913l4.3205-4.32 6.1695-6.17h1.7636c.2629 1.288 1.2687 2.293 2.5563 2.556 1.7741.362 3.5056-.782 3.8675-2.556s-.7821-3.506-2.5562-3.868c-1.7742-.361-3.5057.783-3.8676 2.557h-2.3013l-5.6318 5.638v-.006zm-15.4661 2.622c-1.0864 0-1.9669-.88-1.9669-1.967 0-1.086.8805-1.966 1.9669-1.966 1.0863 0 1.9668.88 1.9668 1.966 0 1.087-.8805 1.967-1.9668 1.967zm31.47-14.423c1.0863 0 1.9668.88 1.9668 1.966 0 1.087-.8805 1.967-1.9668 1.967-1.0864 0-1.9669-.88-1.9669-1.967 0-1.086.8805-1.966 1.9669-1.966z"/><path d="m36.6346 168.671h-56.5148c-.2629-1.288-1.2687-2.293-2.5563-2.556-1.7742-.362-3.5056.782-3.8675 2.556s.7821 3.506 2.5562 3.868c1.7741.361 3.5057-.783 3.8676-2.557h56.5148c.2629 1.288 1.2687 2.294 2.5564 2.557 1.7741.361 3.5055-.783 3.8674-2.557s-.7821-3.505-2.5562-3.867-3.5057.782-3.8676 2.556zm-59.7274 2.622c-1.0864 0-1.9669-.88-1.9669-1.966 0-1.087.8805-1.967 1.9669-1.967s1.9669.88 1.9669 1.967c0 1.086-.8805 1.966-1.9669 1.966zm64.9069-1.966c0 1.086-.8805 1.966-1.9669 1.966-1.0863 0-1.9669-.88-1.9669-1.966 0-1.087.8806-1.967 1.9669-1.967 1.0864 0 1.9669.88 1.9669 1.967z"/><path d="m19.5228 222.432v-22.291h-10.49001v-6.622c1.28761-.263 2.29341-1.269 2.55631-2.556.3619-1.774-.7822-3.506-2.55631-3.868-1.77413-.362-3.50566.782-3.86757 2.556-.3619 1.775.78219 3.506 2.55631 3.868v7.933h10.48997v19.669h-10.48997v43.271h31.46997v30.159 11.801h10.49 11.1457.6556v-11.801-31.47h-11.8013v28.913c-1.2876.263-2.294 1.269-2.5569 2.557v.001c-.3619 1.774.7835 3.505 2.5569 3.867.4223.084.857.084 1.2792 0 1.7833-.353 2.9424-2.085 2.5891-3.868-.263-1.288-1.2694-2.294-2.557-2.557v-27.602h9.1788v30.159 10.49h-10.4901-9.1787v-10.49-31.47h-31.47001v-40.649zm-13.11252-32.126c0-1.086.88051-1.967 1.96688-1.967s1.96684.881 1.96684 1.967c0 1.087-.88047 1.967-1.96684 1.967s-1.96688-.88-1.96688-1.967zm45.78232 104.245c.1508.425.1508.889 0 1.314-.3633 1.024-1.487 1.56-2.5111 1.197-.0006 0-.0013-.001-.002-.001-1.024-.362-1.5603-1.486-1.1977-2.51.198-.561.6392-1.002 1.1997-1.2.0007 0 .0014-.001.002-.001 1.0241-.361 2.1478.177 2.5091 1.201z"/></g><g filter="url(#d)"><circle cx="134" cy="108" fill="url(#h)" r="108"/></g></g><g filter="url(#e)"><circle cx="134" cy="108" fill="url(#i)" r="56"/><circle cx="134" cy="108" r="46" stroke="#000" stroke-dasharray="3 3" stroke-opacity=".1" stroke-width="20"/></g><circle cx="134" cy="108" fill="url(#j)" r="28"/><g fill="#fff"><circle cx="165" cy="81" opacity=".5" r="10"/><circle cx="145" cy="96" opacity=".5" r="5"/></g></svg>